<?xml version="1.0" encoding="utf-8"?><svg width="2239" height="1341" xmlns="http://www.w3.org/2000/svg" xmlns:xlink="http://www.w3.org/1999/xlink" xml:space="preserve" overflow="hidden"><g transform="translate(-1655 -902)"><path d="M2308.5 1668.5C2308.5 1343.2 2571.98 1079.5 2897 1079.5 3222.02 1079.5 3485.5 1343.2 3485.5 1668.5 3485.5 1907.49 3341.22 2122.78 3120.29 2213.46L3120.29 2213.46C3421 2090.04 3564.81 1746 3441.5 1445.02 3318.18 1144.05 2974.43 1000.12 2673.71 1123.54 2452.79 1214.22 2308.5 1429.51 2308.5 1668.5Z" stroke="#161616" stroke-width="4.58333" stroke-miterlimit="8" fill="none" fill-rule="evenodd"/><path d="M3114.37 1885.85C2971.69 2032.13 2737.43 2035.05 2591.15 1892.37 2486.06 1789.87 2451.51 1634.93 2503.09 1497.49L2527.81 1506.76C2461.13 1684.43 2551.1 1882.51 2728.76 1949.19 2856.4 1997.1 3000.28 1965.01 3095.47 1867.42Z" stroke="#161616" stroke-width="4.58333" stroke-miterlimit="8" fill-rule="evenodd"/><rect x="2092.5" y="1327.5" width="261" height="480" stroke="#161616" stroke-width="4.58333" stroke-miterlimit="8" fill="none"/><rect x="2092.5" y="1327.5" width="261" height="68.0001" stroke="#161616" stroke-width="4.58333" stroke-miterlimit="8"/><text fill="#262626" font-family="Arial,Arial_MSFontService,sans-serif" font-weight="700" font-size="41" transform="matrix(1 0 0 1 2125.41 1376)">Void</text><rect x="2223.5" y="1238.5" width="165" height="99" stroke="#161616" stroke-width="3.4375" stroke-linejoin="round" stroke-miterlimit="10" fill="none"/><text fill="#262626" font-family="Arial,Arial_MSFontService,sans-serif" font-weight="400" font-size="55" transform="matrix(1 0 0 1 2261.04 1307)">94</text><text fill="#262626" font-family="Arial,Arial_MSFontService,sans-serif" font-weight="400" font-size="37" transform="matrix(1 0 0 1 2321.77 1307)">%</text><rect x="3093.5" y="1819.5" width="405" height="211" stroke="#161616" stroke-width="4.58333" stroke-miterlimit="8" fill="none"/><rect x="3093.5" y="1819.5" width="405" height="68.0001" stroke="#161616" stroke-width="4.58333" stroke-miterlimit="8"/><text fill="#262626" font-family="Arial,Arial_MSFontService,sans-serif" font-weight="700" font-size="41" transform="matrix(1 0 0 1 3126.13 1868)">Void</text><rect x="3367.5" y="1730.5" width="161" height="100" stroke="#161616" stroke-width="3.4375" stroke-linejoin="round" stroke-miterlimit="10" fill="none"/><text fill="#262626" font-family="Arial,Arial_MSFontService,sans-serif" font-weight="400" font-size="55" transform="matrix(1 0 0 1 3400.96 1799)">42</text><text fill="#262626" font-family="Arial,Arial_MSFontService,sans-serif" font-weight="400" font-size="37" transform="matrix(1 0 0 1 3461.69 1799)">%</text><rect x="3030.5" y="1001.5" width="299" height="319" stroke="#161616" stroke-width="4.58333" stroke-miterlimit="8" fill="none"/><rect x="3030.5" y="1001.5" width="299" height="45.0001" stroke="#161616" stroke-width="4.58333" stroke-miterlimit="8"/><text fill="#262626" font-family="Arial,Arial_MSFontService,sans-serif" font-weight="700" font-size="41" transform="matrix(1 0 0 1 3063.22 1039)">Void</text><rect x="3191.5" y="903.5" width="161" height="100" stroke="#161616" stroke-width="3.4375" stroke-linejoin="round" stroke-miterlimit="10" fill="none"/><text fill="#262626" font-family="Arial,Arial_MSFontService,sans-serif" font-weight="400" font-size="55" transform="matrix(1 0 0 1 3225.39 973)">94</text><text fill="#262626" font-family="Arial,Arial_MSFontService,sans-serif" font-weight="400" font-size="37" transform="matrix(1 0 0 1 3286.12 973)">%</text><rect x="1850.5" y="1836.5" width="405" height="211" stroke="#161616" stroke-width="4.58333" stroke-miterlimit="8" fill="none"/><rect x="1850.5" y="1836.5" width="405" height="66.9996" stroke="#161616" stroke-width="4.58333" stroke-miterlimit="8"/><text fill="#262626" font-family="Arial,Arial_MSFontService,sans-serif" font-weight="700" font-size="41" transform="matrix(1 0 0 1 1883.21 1885)">Void</text><rect x="2124.5" y="1746.5" width="161" height="100" stroke="#161616" stroke-width="3.4375" stroke-linejoin="round" stroke-miterlimit="10" fill="none"/><text fill="#262626" font-family="Arial,Arial_MSFontService,sans-serif" font-weight="400" font-size="55" transform="matrix(1 0 0 1 2158.04 1816)">22</text><text fill="#262626" font-family="Arial,Arial_MSFontService,sans-serif" font-weight="400" font-size="37" transform="matrix(1 0 0 1 2218.77 1816)">%</text><rect x="2479.5" y="1933.5" width="266" height="307" stroke="#161616" stroke-width="4.58333" stroke-miterlimit="8" fill="none"/><rect x="2479.5" y="1933.5" width="266" height="45" stroke="#161616" stroke-width="4.58333" stroke-miterlimit="8"/><text fill="#262626" font-family="Arial,Arial_MSFontService,sans-serif" font-weight="700" font-size="41" transform="matrix(1 0 0 1 2512.42 1971)">Void</text><rect x="2607.5" y="1836.5" width="161" height="99.9996" stroke="#161616" stroke-width="3.4375" stroke-linejoin="round" stroke-miterlimit="10" fill="none"/><text fill="#262626" font-family="Arial,Arial_MSFontService,sans-serif" font-weight="400" font-size="55" transform="matrix(1 0 0 1 2640.87 1905)">94</text><text fill="#262626" font-family="Arial,Arial_MSFontService,sans-serif" font-weight="400" font-size="37" transform="matrix(1 0 0 1 2701.6 1905)">%</text><rect x="3227.5" y="1258.5" width="620" height="211" stroke="#161616" stroke-width="4.58333" stroke-miterlimit="8" fill="none"/><rect x="3227.5" y="1258.5" width="620" height="68.0001" stroke="#161616" stroke-width="4.58333" stroke-miterlimit="8"/><text fill="#262626" font-family="Arial,Arial_MSFontService,sans-serif" font-weight="700" font-size="41" transform="matrix(1 0 0 1 3259.98 1307)">Void</text><rect x="3731.5" y="1168.5" width="161" height="100" stroke="#161616" stroke-width="3.4375" stroke-linejoin="round" stroke-miterlimit="10" fill="none"/><text fill="#262626" font-family="Arial,Arial_MSFontService,sans-serif" font-weight="400" font-size="55" transform="matrix(1 0 0 1 3765.08 1238)">42</text><text fill="#262626" font-family="Arial,Arial_MSFontService,sans-serif" font-weight="400" font-size="37" transform="matrix(1 0 0 1 3825.81 1238)">%</text><rect x="2230.5" y="1567.5" width="266" height="306" stroke="#161616" stroke-width="4.58333" stroke-miterlimit="8" fill="none"/><rect x="2230.5" y="1567.5" width="266" height="45" stroke="#161616" stroke-width="4.58333" stroke-miterlimit="8"/><text fill="#262626" font-family="Arial,Arial_MSFontService,sans-serif" font-weight="700" font-size="41" transform="matrix(1 0 0 1 2263.38 1604)">Void</text><rect x="2358.5" y="1469.5" width="161" height="100" stroke="#161616" stroke-width="3.4375" stroke-linejoin="round" stroke-miterlimit="10" fill="none"/><text fill="#262626" font-family="Arial,Arial_MSFontService,sans-serif" font-weight="400" font-size="55" transform="matrix(1 0 0 1 2391.83 1539)">55</text><text fill="#262626" font-family="Arial,Arial_MSFontService,sans-serif" font-weight="400" font-size="37" transform="matrix(1 0 0 1 2452.56 1539)">%</text><path d="M2353 1361 2873.29 1627.16" stroke="#161616" stroke-width="2.29167" stroke-miterlimit="8" fill="none" fill-rule="evenodd"/><path d="M0 0 128.976 328.801" stroke="#161616" stroke-width="2.29167" stroke-miterlimit="8" fill="none" fill-rule="evenodd" transform="matrix(-1 0 0 1 2873.98 1627)"/><path d="M2874.02 1626.86 2496 1589" stroke="#161616" stroke-width="2.29167" stroke-miterlimit="8" fill="none" fill-rule="evenodd"/><path d="M0 0 618.472 239.92" stroke="#161616" stroke-width="2.29167" stroke-miterlimit="8" fill="none" fill-rule="evenodd" transform="matrix(-1 0 0 1 2873.47 1630)"/><path d="M2874 1629 3093.48 1853.42" stroke="#161616" stroke-width="2.29167" stroke-miterlimit="8" fill="none" fill-rule="evenodd"/><path d="M0 0 353.334 344.629" stroke="#161616" stroke-width="2.29167" stroke-miterlimit="8" fill="none" fill-rule="evenodd" transform="matrix(1 0 0 -1 2874 1636.63)"/><path d="M0 0 152.723 615.454" stroke="#161616" stroke-width="2.29167" stroke-miterlimit="8" fill="none" fill-rule="evenodd" transform="matrix(-1 0 0 1 3029.72 1024)"/><path d="M2934.62 2124.02C2682.8 2143.93 2462.53 1955.92 2442.62 1704.11 2422.72 1452.29 2610.72 1232.01 2862.54 1212.11 3047.59 1197.48 3223.13 1296.15 3306.83 1461.84L3306.83 1461.85C3192.94 1236.38 2917.83 1145.92 2692.36 1259.82 2466.89 1373.71 2376.44 1648.82 2490.33 1874.29 2574.03 2039.98 2749.57 2138.65 2934.62 2124.02Z" stroke="#161616" stroke-width="4.58333" stroke-miterlimit="8" fill="none" fill-rule="evenodd"/><path d="M2463.13 2013.66C2315.11 1828.11 2301.69 1568.89 2429.76 1369.05L2429.76 1369.05C2301.69 1568.89 2315.11 1828.11 2463.13 2013.66Z" stroke="#161616" stroke-width="4.58333" stroke-miterlimit="8" fill="none" fill-rule="evenodd"/><path d="M2850.5 1626.5C2850.5 1609.93 2863.93 1596.5 2880.5 1596.5 2897.07 1596.5 2910.5 1609.93 2910.5 1626.5 2910.5 1643.07 2897.07 1656.5 2880.5 1656.5 2863.93 1656.5 2850.5 1643.07 2850.5 1626.5Z" stroke="#161616" stroke-width="4.58333" stroke-miterlimit="8" fill-rule="evenodd"/><path d="M2976.48 1714.92 2992.33 1714.92 2992.33 1718.41 2992.98 1718.41 2992.98 1731.5 2976.48 1731.5ZM1990.13 1703.42 2006.63 1703.42 2006.63 1722.27 1990.13 1722.27ZM1936.8 1672.97 2258.57 1672.97 2258.57 1687.68 2396.57 1687.68 2396.57 1703.42 2486.5 1703.42 2486.5 1687.68 2503 1687.68 2503 1703.42 2649.83 1703.42 2649.83 1695.03 2666.33 1695.03 2666.33 1703.42 2730.59 1703.42 2730.59 1707.64 2813.15 1707.64 2813.15 1691.67 2829.65 1691.67 2829.65 1707.64 2897.61 1707.64 2897.61 1724.22 2563.58 1724.22 2563.58 1731.5 2211.36 1731.5 2211.36 1714.92 2321.04 1714.92 2321.04 1707.64 2337.54 1707.64 2337.54 1714.92 2378.37 1714.92 2378.37 1704.26 2172.09 1704.26 2172.09 1711.61 2155.59 1711.61 2155.59 1704.26 2075.06 1704.26 2075.06 1699.94 1841.18 1699.94 1841.18 1708.25 1824.68 1708.25 1824.68 1699.94 1798.81 1699.94 1798.81 1704.26 1798.54 1704.26 1798.54 1687.68 1936.8 1687.68ZM1657.5 1663.15 1982.07 1663.15 1982.07 1665.88 1660.29 1665.88 1660.29 1687.94 1657.77 1687.94 1657.77 1704.26 1657.5 1704.26ZM2785.86 1596.5 2968.46 1596.5 2968.46 1630.63 2925.8 1630.63 2925.8 1643.76 3019.5 1643.76 3019.5 1660.34 2925.8 1660.34 2733.06 1660.34 2733.06 1667.62 2247.54 1667.62 2247.54 1651.04 2254.4 1651.04 2254.4 1651.19 2265.32 1651.19 2265.32 1634.44 2194.24 1634.44 2194.24 1640.38 1842.02 1640.38 1842.02 1623.8 2194.24 1623.8 2194.24 1627.38 2265.32 1627.38 2265.32 1619.16 2275.76 1619.16 2275.76 1625.1 2281.82 1625.1 2281.82 1627.38 2325.91 1627.38 2325.91 1623.13 2440.13 1623.13 2440.13 1640.38 2356.63 1640.38 2356.63 1634.44 2281.82 1634.44 2281.82 1643.95 2265.97 1643.95 2265.97 1651.19 2723.01 1651.19 2723.01 1647.34 2748.07 1647.34 2748.07 1630.7 2748.46 1630.7 2748.46 1607.8 2785.86 1607.8Z" stroke="#161616" stroke-width="4.58333" stroke-miterlimit="8" fill-rule="evenodd"/><path d="M249.852 119.296 252.854 119.296 252.854 122.815 252.977 122.815 252.977 135.999 249.852 135.999ZM63.0097 107.713 66.1352 107.713 66.1352 126.702 63.0097 126.702ZM52.9063 77.0397 113.859 77.0397 113.859 91.8546 139.999 91.8546 139.999 107.713 157.035 107.713 157.035 91.8546 160.16 91.8546 160.16 107.713 187.974 107.713 187.974 99.2604 191.099 99.2604 191.099 107.713 203.274 107.713 203.274 111.958 218.913 111.958 218.913 95.877 222.038 95.877 222.038 111.958 234.911 111.958 234.911 128.661 171.636 128.661 171.636 136 104.916 136 104.916 119.297 125.693 119.297 125.693 111.958 128.819 111.958 128.819 119.297 136.553 119.297 136.553 108.558 97.4769 108.558 97.4769 115.963 94.3514 115.963 94.3514 108.558 79.0976 108.558 79.0976 104.207 34.7934 104.207 34.7934 112.58 31.668 112.58 31.668 104.207 26.7688 104.207 26.7688 108.558 26.7176 108.558 26.7176 91.8546 52.9063 91.8546ZM0 67.1444 61.4817 67.1444 61.4817 69.8958 0.528849 69.8958 0.528849 92.1176 0.0512032 92.1176 0.0512032 108.558 0 108.558ZM213.743 0 248.333 0 248.333 34.38 240.251 34.38 240.251 47.6071 258 47.6071 258 64.3101 240.251 64.3101 203.74 64.3101 203.74 71.6487 111.77 71.6487 111.77 54.9457 113.07 54.9457 113.07 55.0981 115.138 55.0981 115.138 38.2237 101.673 38.2237 101.673 44.2065 34.9523 44.2065 34.9523 27.5036 101.673 27.5036 101.673 31.1113 115.138 31.1113 115.138 22.8294 117.116 22.8294 117.116 28.8129 118.264 28.8129 118.264 31.1113 126.615 31.1113 126.615 26.8295 148.251 26.8295 148.251 44.2073 132.435 44.2073 132.435 38.2237 118.264 38.2237 118.264 47.8022 115.262 47.8022 115.262 55.0981 201.837 55.0981 201.837 51.2138 206.583 51.2138 206.583 34.4509 206.658 34.4509 206.658 11.3833 213.743 11.3833Z" stroke="#161616" stroke-width="4.58333" stroke-miterlimit="8" fill-rule="evenodd" transform="matrix(-1 0 0 1 3229.5 1492.5)"/><path d="M3299.5 1447C3299.5 1421.87 3319.87 1401.5 3345 1401.5 3370.13 1401.5 3390.5 1421.87 3390.5 1447 3390.5 1472.13 3370.13 1492.5 3345 1492.5 3319.87 1492.5 3299.5 1472.13 3299.5 1447ZM3374.36 1471.04C3387.63 1454.82 3385.25 1430.92 3369.04 1417.64 3355.06 1406.2 3334.94 1406.2 3320.96 1417.64ZM3315.64 1422.96C3302.37 1439.18 3304.75 1463.08 3320.96 1476.36 3334.94 1487.8 3355.06 1487.8 3369.04 1476.36Z" stroke="#161616" stroke-width="4.58333" stroke-miterlimit="8" fill-rule="evenodd"/><path d="M2112.5 1454C2112.5 1428.87 2132.87 1408.5 2158 1408.5 2183.13 1408.5 2203.5 1428.87 2203.5 1454 2203.5 1479.13 2183.13 1499.5 2158 1499.5 2132.87 1499.5 2112.5 1479.13 2112.5 1454ZM2187.36 1478.04C2200.63 1461.82 2198.25 1437.92 2182.04 1424.64 2168.06 1413.2 2147.94 1413.2 2133.96 1424.64ZM2128.64 1429.96C2115.37 1446.18 2117.75 1470.08 2133.96 1483.36 2147.94 1494.8 2168.06 1494.8 2182.04 1483.36Z" stroke="#161616" stroke-width="4.58333" stroke-miterlimit="8" fill-rule="evenodd"/><path d="M2497.5 2057C2497.5 2031.87 2517.87 2011.5 2543 2011.5 2568.13 2011.5 2588.5 2031.87 2588.5 2057 2588.5 2082.13 2568.13 2102.5 2543 2102.5 2517.87 2102.5 2497.5 2082.13 2497.5 2057ZM2572.36 2081.04C2585.63 2064.82 2583.25 2040.92 2567.04 2027.64 2553.06 2016.2 2532.94 2016.2 2518.96 2027.64ZM2513.64 2032.96C2500.37 2049.18 2502.75 2073.08 2518.96 2086.36 2532.94 2097.8 2553.06 2097.8 2567.04 2086.36Z" stroke="#161616" stroke-width="4.58333" stroke-miterlimit="8" fill-rule="evenodd"/></g></svg>