<?xml version="1.0" encoding="utf-8"?><svg width="4166" height="1423" xmlns="http://www.w3.org/2000/svg" xmlns:xlink="http://www.w3.org/1999/xlink" xml:space="preserve" overflow="hidden"><defs><filter id="fx0" x="-10%" y="-10%" width="120%" height="120%" filterUnits="userSpaceOnUse" primitiveUnits="userSpaceOnUse"><feComponentTransfer color-interpolation-filters="sRGB"><feFuncR type="discrete" tableValues="1 1"/><feFuncG type="discrete" tableValues="1 1"/><feFuncB type="discrete" tableValues="1 1"/><feFuncA type="linear" slope="1" intercept="0"/></feComponentTransfer><feGaussianBlur stdDeviation="6.61878 6.62037"/></filter><clipPath id="clip1"><rect x="161" y="335" width="4166" height="1423"/></clipPath><clipPath id="clip2"><rect x="0" y="0" width="1389" height="475"/></clipPath></defs><g clip-path="url(#clip1)" transform="translate(-161 -335)"><g filter="url(#fx0)" transform="matrix(3.00072 0 0 3 160 334)"><g clip-path="url(#clip2)"><path d="M584.288 278.179 553.962 360.028 614.248 360.028ZM344.486 249.312 344.486 316.18 357.274 316.18C372.62 316.18 383.825 312.648 390.888 305.584 396.978 299.494 400.023 291.577 400.023 281.833 400.023 271.114 396.247 262.832 388.696 256.985 381.876 251.87 371.524 249.312 357.639 249.312ZM996.362 205.464 1137.76 205.464 1158.59 205.464 1204.25 205.464 1253.21 281.102 1302.17 205.464 1368.67 205.464 1281.35 335.546 1281.35 449.186 1225.08 449.186 1225.08 335.546 1158.59 236.496 1158.59 252.966 1105.61 252.966 1105.61 449.186 1049.34 449.186 1049.34 252.966 996.362 252.966ZM934.159 205.464 990.426 205.464 990.426 449.186 934.159 449.186ZM684.504 205.464 745.156 205.464 806.905 361.49 868.653 205.464 929.305 205.464 825.904 449.186 787.905 449.186ZM288.218 205.464 373.716 205.464C400.023 205.464 420.727 212.529 435.829 226.657 449.957 240.299 457.021 258.447 457.021 281.102 457.021 301.808 450.688 318.373 438.022 330.796 428.278 340.053 416.952 346.265 404.042 349.432L466.896 433.141 558.712 205.464 610.229 205.464 706.323 449.186 647.863 449.186 629.594 403.145 537.52 403.145 518.886 449.186 478.943 449.186 460.426 449.186 410.253 449.186 344.486 353.086 344.486 449.186 288.218 449.186ZM151.132 199.983C178.17 199.983 200.945 206.073 219.457 218.253 235.29 228.728 248.443 243.222 258.918 261.736L208.13 289.141C202.528 277.935 195.342 269.166 186.573 262.832 175.856 255.037 163.433 251.139 149.305 251.139 128.114 251.139 111.307 257.716 98.8839 270.871 84.9996 285.487 78.0575 304.731 78.0575 328.604 78.0575 352.233 84.8779 370.868 98.5185 384.51 110.941 397.177 127.383 403.511 147.844 403.511 165.869 403.511 179.997 399.126 190.227 390.356 198.509 383.779 204.355 374.157 207.765 361.49L148.94 361.49 148.94 316.18 269.879 316.18 269.879 318.738C269.879 335.546 266.712 353.634 260.379 373 254.046 392.366 244.668 408.505 232.245 421.415 211.054 443.583 182.067 454.667 145.286 454.667 127.992 454.667 112.037 452.353 97.4224 447.724 82.8073 443.096 69.045 434.083 56.1351 420.685 32.264 396.081 20.3285 365.144 20.3285 327.873 20.3285 290.115 32.0204 259.3 55.4044 235.427 78.3011 211.798 110.21 199.983 151.132 199.983ZM1069.48 99.5925C1059.08 99.5925 1050.55 102.922 1043.89 109.582 1037 116.242 1033.55 125.063 1033.55 136.045 1033.55 146.561 1037.12 155.323 1044.24 162.333 1051.02 168.759 1059.37 171.973 1069.3 171.973 1079.94 171.973 1088.58 168.643 1095.24 161.983 1102.02 155.44 1105.4 146.736 1105.4 135.87 1105.4 125.121 1102.02 116.358 1095.24 109.582 1088.35 102.922 1079.76 99.5925 1069.48 99.5925ZM1069.65 74.7064C1088.11 74.7064 1103.18 80.3729 1114.87 91.706 1120.94 97.6062 1125.5 104.237 1128.54 111.597L1129.27 113.688 1129.27 77.3351 1194.11 77.3351 1194.11 100.118 1156.26 100.118 1156.26 122.726 1191.31 122.726 1191.31 145.509 1156.26 145.509 1156.26 194.23 1129.27 194.23 1129.27 157.808 1128.54 159.88C1125.5 167.182 1120.94 173.783 1114.87 179.684 1103.07 191.134 1088 196.859 1069.65 196.859 1051.2 196.859 1036.01 191.134 1024.09 179.684 1018.37 174.309 1013.9 167.854 1010.69 160.318 1007.47 152.782 1005.87 144.75 1005.87 136.221 1005.87 128.042 1007.53 119.951 1010.86 111.948 1014.19 103.945 1018.54 97.2557 1023.92 91.8812 1035.37 80.4312 1050.61 74.7064 1069.65 74.7064ZM615.357 57.0394 615.357 160.07 625.736 160.07C642.273 160.07 655.098 156.272 664.211 148.678 675.18 139.565 680.664 125.979 680.664 107.922 680.664 92.9017 676.024 80.7506 666.742 71.4687 657.123 61.8491 643.455 57.0394 625.736 57.0394ZM576.376 24.1305 629.786 24.1305C658.136 24.1305 680.327 31.8937 696.358 47.4199 712.558 63.1148 720.658 83.2822 720.658 107.922 720.658 132.392 712.98 152.306 697.624 167.664 680.917 184.54 658.727 192.978 631.051 192.978L576.376 192.978ZM413.315 24.1305 523.303 24.1305 525.704 24.1305 562.284 24.1305 562.284 192.978 523.303 192.978 523.303 57.0394 489 57.0394 489 192.978 450.018 192.978 450.018 57.0394 413.315 57.0394ZM293.469 24.1305 388.898 24.1305 388.898 57.0394 332.451 57.0394 332.451 89.6951 386.114 89.6951 386.114 122.604 332.451 122.604 332.451 160.07 388.898 160.07 388.898 192.978 293.469 192.978ZM26.1794 24.1305 135.408 24.1305 138.568 24.1305 174.389 24.1305 174.389 88.4294 241.721 88.4294 241.721 24.1305 280.703 24.1305 280.703 192.978 241.721 192.978 241.721 121.338 174.389 121.338 174.389 192.978 135.408 192.978 135.408 57.0394 101.864 57.0394 101.864 192.978 62.8828 192.978 62.8828 57.0394 26.1794 57.0394ZM882.78 20.3333C901.174 20.3333 917.88 25.9026 932.899 37.041L915.434 65.3931C906.49 57.2926 897.039 53.2422 887.083 53.2422 879.658 53.2422 874.174 55.183 870.63 59.0646 867.761 61.9336 866.327 65.4775 866.327 69.6967 866.327 73.5782 867.592 76.7003 870.124 79.063 870.968 79.7381 871.811 80.371 872.655 80.9617 873.499 81.5523 874.68 82.1852 876.199 82.8602 877.718 83.5353 878.983 84.0838 879.996 84.5057 881.008 84.9275 882.78 85.6027 885.311 86.5308 887.843 87.459 889.868 88.1763 891.386 88.6826L904.043 93.4923C914.674 97.5427 922.352 101.846 927.077 106.403 935.346 114.166 939.481 124.629 939.481 137.793 939.481 155.344 934.502 169.267 924.546 179.562 913.577 191.038 897.63 196.776 876.705 196.776 863.88 196.776 852.742 194.413 843.292 189.688 836.964 186.523 830.731 182.267 824.592 176.92L820.703 173.282 820.703 192.978 725.274 192.978 725.274 24.1305 820.703 24.1305 820.703 57.0394 764.256 57.0394 764.256 89.6951 817.919 89.6951 817.919 122.604 764.256 122.604 764.256 160.07 820.703 160.07 820.703 168.159 838.736 143.362C844.474 149.1 849.705 153.403 854.43 156.272 861.011 160.323 868.099 162.348 875.693 162.348 882.949 162.348 888.855 160.407 893.411 156.526 897.461 153.15 899.486 148.594 899.486 142.856 899.486 138.13 897.546 134.08 893.664 130.705 890.627 128.173 884.046 125.051 873.921 121.338L859.999 116.529C849.03 112.647 841.183 108.175 836.458 103.112 829.708 96.0238 826.333 86.2354 826.333 73.7469 826.333 58.3896 831.227 45.7322 841.014 35.7752 851.139 25.4806 865.061 20.3333 882.78 20.3333Z" fill="#FFFFFF" fill-rule="evenodd" fill-opacity="0.0705882"/></g></g><path d="M1913.28 1168.54 1822.28 1414.08 2003.19 1414.08ZM1193.71 1081.94 1193.71 1282.54 1232.08 1282.54C1278.13 1282.54 1311.75 1271.94 1332.95 1250.75 1351.22 1232.48 1360.36 1208.73 1360.36 1179.5 1360.36 1147.34 1349.03 1122.5 1326.37 1104.96 1305.9 1089.61 1274.84 1081.94 1233.18 1081.94ZM3149.8 950.392 3574.09 950.392 3636.6 950.392 3773.63 950.392 3920.54 1177.31 4067.46 950.392 4267 950.392 4004.96 1340.64 4004.96 1681.56 3836.12 1681.56 3836.12 1340.64 3636.6 1043.49 3636.6 1092.9 3477.62 1092.9 3477.62 1681.56 3308.78 1681.56 3308.78 1092.9 3149.8 1092.9ZM2963.15 950.392 3131.99 950.392 3131.99 1681.56 2963.15 1681.56ZM2214.01 950.392 2396.01 950.392 2581.29 1418.47 2766.58 950.392 2948.58 950.392 2638.31 1681.56 2524.28 1681.56ZM1024.86 950.392 1281.42 950.392C1360.36 950.392 1422.48 971.586 1467.8 1013.97 1510.2 1054.9 1531.39 1109.34 1531.39 1177.31 1531.39 1239.42 1512.39 1289.12 1474.38 1326.39 1445.14 1354.16 1411.16 1372.79 1372.42 1382.29L1561.03 1633.42 1836.54 950.392 1991.13 950.392 2279.48 1681.56 2104.05 1681.56 2049.24 1543.44 1772.95 1543.44 1717.03 1681.56 1597.17 1681.56 1541.61 1681.56 1391.05 1681.56 1193.71 1393.26 1193.71 1681.56 1024.86 1681.56ZM613.505 933.949C694.638 933.949 762.979 952.219 818.529 988.759 866.04 1020.18 905.509 1063.67 936.939 1119.21L784.541 1201.42C767.73 1167.81 746.168 1141.5 719.855 1122.5 687.694 1099.11 650.417 1087.42 608.024 1087.42 544.433 1087.42 494 1107.15 456.723 1146.61 415.06 1190.46 394.229 1248.19 394.229 1319.81 394.229 1390.7 414.695 1446.61 455.626 1487.53 492.903 1525.53 542.24 1544.53 603.638 1544.53 657.726 1544.53 700.12 1531.38 730.819 1505.07 755.67 1485.34 773.212 1456.47 783.445 1418.47L606.927 1418.47 606.927 1282.54 969.83 1282.54 969.83 1290.21C969.83 1340.64 960.328 1394.9 941.325 1453 922.321 1511.1 894.18 1559.51 856.903 1598.25 793.312 1664.75 706.333 1698 595.964 1698 544.068 1698 496.193 1691.06 452.337 1677.17 408.482 1663.29 367.185 1636.25 328.446 1596.05 256.815 1522.24 221 1429.43 221 1317.62 221 1204.35 256.084 1111.9 326.253 1040.28 394.96 969.393 490.711 933.949 613.505 933.949ZM3369.21 632.777C3338.01 632.777 3312.42 642.767 3292.43 662.746 3271.75 682.725 3261.41 709.188 3261.41 742.136 3261.41 773.682 3272.1 799.97 3293.48 821 3313.82 840.278 3338.88 849.917 3368.68 849.917 3400.58 849.917 3426.53 839.928 3446.51 819.949 3466.84 800.321 3477.01 774.208 3477.01 741.61 3477.01 709.363 3466.84 683.075 3446.51 662.746 3425.82 642.767 3400.06 632.777 3369.21 632.777ZM3369.73 558.119C3425.12 558.119 3470.35 575.119 3505.4 609.118 3523.63 626.818 3537.3 646.71 3546.42 668.792L3548.63 675.063 3548.63 566.005 3743.19 566.005 3743.19 634.355 3629.61 634.355 3629.61 702.178 3734.78 702.178 3734.78 770.527 3629.61 770.527 3629.61 916.689 3548.63 916.689 3548.63 807.424 3546.42 813.64C3537.3 835.546 3523.63 855.35 3505.4 873.051 3470 907.401 3424.77 924.576 3369.73 924.576 3314.34 924.576 3268.77 907.401 3233.01 873.051 3215.83 856.928 3202.42 837.562 3192.78 814.954 3183.14 792.346 3178.32 768.249 3178.32 742.662 3178.32 718.126 3183.32 693.853 3193.31 669.844 3203.3 645.834 3216.36 625.767 3232.49 609.644 3266.84 575.294 3312.59 558.119 3369.73 558.119ZM2006.52 505.118 2006.52 814.209 2037.66 814.209C2087.28 814.209 2125.77 802.817 2153.11 780.034 2186.03 752.694 2202.48 711.938 2202.48 657.765 2202.48 612.705 2188.56 576.252 2160.71 548.406 2131.84 519.547 2090.83 505.118 2037.66 505.118ZM1889.54 406.391 2049.81 406.391C2134.88 406.391 2201.47 429.681 2249.58 476.26 2298.19 523.345 2322.49 583.846 2322.49 657.765 2322.49 731.177 2299.45 790.919 2253.37 836.992 2203.24 887.621 2136.65 912.935 2053.61 912.935L1889.54 912.935ZM1400.24 406.391 1730.29 406.391 1737.49 406.391 1847.26 406.391 1847.26 912.935 1730.29 912.935 1730.29 505.118 1627.35 505.118 1627.35 912.935 1510.38 912.935 1510.38 505.118 1400.24 505.118ZM1040.62 406.391 1326.97 406.391 1326.97 505.118 1157.59 505.118 1157.59 603.085 1318.62 603.085 1318.62 701.812 1157.59 701.812 1157.59 814.209 1326.97 814.209 1326.97 912.935 1040.62 912.935ZM238.557 406.391 566.321 406.391 575.803 406.391 683.294 406.391 683.294 599.288 885.338 599.288 885.338 406.391 1002.31 406.391 1002.31 912.935 885.338 912.935 885.338 698.015 683.294 698.015 683.294 912.935 566.321 912.935 566.321 505.118 465.667 505.118 465.667 912.935 348.694 912.935 348.694 505.118 238.557 505.118ZM2808.98 395C2864.17 395 2914.3 411.708 2959.37 445.123L2906.96 530.179C2880.12 505.878 2851.76 493.727 2821.89 493.727 2799.61 493.727 2783.15 499.549 2772.52 511.194 2763.91 519.801 2759.6 530.433 2759.6 543.09 2759.6 554.735 2763.4 564.101 2771 571.189 2773.53 573.214 2776.06 575.113 2778.59 576.885 2781.12 578.657 2784.67 580.556 2789.23 582.581 2793.78 584.606 2797.58 586.251 2800.62 587.517 2803.66 588.783 2808.98 590.808 2816.57 593.592 2824.17 596.377 2830.24 598.529 2834.8 600.048L2872.78 614.477C2904.68 626.628 2927.72 639.538 2941.9 653.208 2966.71 676.498 2979.12 707.887 2979.12 747.378 2979.12 800.032 2964.18 841.802 2934.3 872.685 2901.39 907.113 2853.54 924.327 2790.75 924.327 2752.26 924.327 2718.84 917.239 2690.48 903.063 2671.49 893.57 2652.79 880.801 2634.37 864.759L2622.7 853.846 2622.7 912.935 2336.34 912.935 2336.34 406.391 2622.7 406.391 2622.7 505.118 2453.32 505.118 2453.32 603.085 2614.34 603.085 2614.34 701.812 2453.32 701.812 2453.32 814.209 2622.7 814.209 2622.7 838.476 2676.81 764.086C2694.03 781.3 2709.73 794.21 2723.9 802.817 2743.65 814.968 2764.92 821.043 2787.71 821.043 2809.48 821.043 2827.2 815.221 2840.88 803.577 2853.03 793.451 2859.11 779.781 2859.11 762.567 2859.11 748.391 2853.28 736.24 2841.64 726.114 2832.52 718.52 2812.77 709.153 2782.39 698.015L2740.61 683.586C2707.7 671.941 2684.15 658.524 2669.98 643.335 2649.72 622.071 2639.59 592.706 2639.59 555.241 2639.59 509.169 2654.28 471.197 2683.65 441.326 2714.03 410.442 2755.81 395 2808.98 395Z" fill="#FFFFFF" fill-rule="evenodd" fill-opacity="0.0705882"/></g></svg>