<?xml version="1.0" encoding="utf-8"?><svg width="63" height="4125" xmlns="http://www.w3.org/2000/svg" xmlns:xlink="http://www.w3.org/1999/xlink" xml:space="preserve" overflow="hidden"><defs><clipPath id="clip0"><rect x="81" y="-1712" width="63" height="4125"/></clipPath></defs><g clip-path="url(#clip0)" transform="translate(-81 1712)"><path d="M114.18-1153.77C114.124-1150.05 115.202-1147.04 117.414-1144.74 119.626-1142.43 122.524-1141.28 126.108-1141.28 129.636-1141.28 132.492-1142.45 134.676-1144.78 136.86-1147.11 137.952-1150.1 137.952-1153.77 138.008-1157.48 136.93-1160.49 134.718-1162.79 132.506-1165.1 129.636-1166.25 126.108-1166.25 122.524-1166.25 119.64-1165.08 117.456-1162.75 115.272-1160.42 114.18-1157.43 114.18-1153.77ZM114.18 2184.11C114.124 2187.83 115.202 2190.84 117.414 2193.14 119.626 2195.44 122.524 2196.6 126.108 2196.6 129.636 2196.6 132.492 2195.43 134.676 2193.1 136.86 2190.77 137.952 2187.77 137.952 2184.11 138.008 2180.4 136.93 2177.39 134.718 2175.08 132.506 2172.78 129.636 2171.63 126.108 2171.63 122.524 2171.63 119.64 2172.8 117.456 2175.13 115.272 2177.46 114.18 2180.45 114.18 2184.11ZM110.904-734.604C110.904-732.108 111.478-729.903 112.626-727.989 113.774-726.075 115.37-724.577 117.414-723.495 119.458-722.414 121.824-721.872 124.512-721.872 127.2-721.872 129.566-722.399 131.61-723.454 133.654-724.508 135.236-726.006 136.356-727.948 137.476-729.889 138.036-732.108 138.036-734.604 138.036-737.156 137.476-739.376 136.356-741.262 135.236-743.148 133.654-744.632 131.61-745.714 129.566-746.796 127.2-747.337 124.512-747.337 121.824-747.337 119.458-746.796 117.414-745.714 115.37-744.632 113.774-743.148 112.626-741.262 111.478-739.376 110.904-737.156 110.904-734.604ZM110.904 1764.95C110.904 1767.45 111.478 1769.65 112.626 1771.57 113.774 1773.48 115.37 1774.98 117.414 1776.06 119.458 1777.14 121.824 1777.68 124.512 1777.68 127.2 1777.68 129.566 1777.16 131.61 1776.1 133.654 1775.05 135.236 1773.55 136.356 1771.61 137.476 1769.67 138.036 1767.45 138.036 1764.95 138.036 1762.4 137.476 1760.18 136.356 1758.29 135.236 1756.41 133.654 1754.92 131.61 1753.84 129.566 1752.76 127.2 1752.22 124.512 1752.22 121.824 1752.22 119.458 1752.76 117.414 1753.84 115.37 1754.92 113.774 1756.41 112.626 1758.29 111.478 1760.18 110.904 1762.4 110.904 1764.95ZM107.796-1572.93C107.796-1574.37 108.174-1575.52 108.93-1576.38 109.686-1577.24 110.792-1577.67 112.248-1577.67 113.704-1577.67 114.838-1577.24 115.65-1576.38 116.462-1575.52 116.868-1574.37 116.868-1572.93 116.868-1571.48 116.462-1570.33 115.65-1569.47 114.838-1568.61 113.704-1568.18 112.248-1568.18 110.792-1568.18 109.686-1568.61 108.93-1569.47 108.174-1570.33 107.796-1571.48 107.796-1572.93ZM107.796 513.633C107.796 512.19 108.174 511.039 108.93 510.179 109.686 509.32 110.792 508.89 112.248 508.89 113.704 508.89 114.838 509.32 115.65 510.179 116.462 511.039 116.868 512.19 116.868 513.633 116.868 515.075 116.462 516.226 115.65 517.086 114.838 517.947 113.704 518.376 112.248 518.376 110.792 518.376 109.686 517.947 108.93 517.086 108.174 516.226 107.796 515.075 107.796 513.633ZM102.78-1706.18 102.78-1712 122.77-1712 122.77-1706.18ZM102.78-1618.12 102.78-1623.94 122.77-1623.94 122.77-1618.12ZM102.78-1514.61 102.78-1520.43 122.77-1520.43 122.77-1514.61ZM102.78-1426.55 102.78-1432.37 122.77-1432.37 122.77-1426.55ZM102.78-1312.51 102.78-1318.33 122.77-1318.33 122.77-1312.51ZM102.78-1224.45 102.78-1230.28 122.77-1230.28 122.77-1224.45ZM102.78-1098.09 102.78-1103.91 122.77-1103.91 122.77-1098.09ZM102.78-1010.03 102.78-1015.85 122.77-1015.85 122.77-1010.03ZM102.78-895.99 102.78-901.814 122.77-901.814 122.77-895.99ZM102.78-807.931 102.78-813.755 122.77-813.755 122.77-807.931ZM102.78-681.566 102.78-687.39 122.77-687.39 122.77-681.566ZM102.78-593.507 102.78-599.332 122.77-599.332 122.77-593.507ZM102.78-479.47 102.78-485.295 122.77-485.295 122.77-479.47ZM102.78-391.412 102.78-397.236 122.77-397.236 122.77-391.412ZM102.78-265.047 102.78-270.871 122.77-270.871 122.77-265.047ZM102.78-176.988 102.78-182.812 122.77-182.812 122.77-176.988ZM102.78-52.2527 102.78-58.0771 122.77-58.0771 122.77-52.2527ZM102.78 35.8062 102.78 29.9817 122.77 29.9817 122.77 35.8062ZM102.78 162.171 102.78 156.347 122.77 156.347 122.77 162.171ZM102.78 250.23 102.78 244.406 122.77 244.406 122.77 250.23ZM102.78 364.267 102.78 358.443 122.77 358.443 122.77 364.267ZM102.78 452.326 102.78 446.501 122.77 446.501 122.77 452.326ZM102.78 578.69 102.78 572.866 122.77 572.866 122.77 578.69ZM102.78 666.749 102.78 660.925 122.77 660.925 122.77 666.749ZM102.78 778.962 102.78 773.138 122.77 773.138 122.77 778.962ZM102.78 867.021 102.78 861.197 122.77 861.197 122.77 867.021ZM102.78 993.386 102.78 987.562 122.77 987.562 122.77 993.386ZM102.78 1081.45 102.78 1075.62 122.77 1075.62 122.77 1081.45ZM102.78 1195.48 102.78 1189.66 122.77 1189.66 122.77 1195.48ZM102.78 1283.54 102.78 1277.72 122.77 1277.72 122.77 1283.54ZM102.78 1409.91 102.78 1404.08 122.77 1404.08 122.77 1409.91ZM102.78 1497.96 102.78 1492.14 122.77 1492.14 122.77 1497.96ZM102.78 1621.22 102.78 1615.4 122.77 1615.4 122.77 1621.22ZM102.78 1709.28 102.78 1703.46 122.77 1703.46 122.77 1709.28ZM102.78 1835.65 102.78 1829.82 122.77 1829.82 122.77 1835.65ZM102.78 1923.71 102.78 1917.88 122.77 1917.88 122.77 1923.71ZM102.78 2037.74 102.78 2031.92 122.77 2031.92 122.77 2037.74ZM102.78 2125.8 102.78 2119.98 122.77 2119.98 122.77 2125.8ZM102.78 2252.17 102.78 2246.34 122.77 2246.34 122.77 2252.17ZM102.78 2340.23 102.78 2334.4 122.77 2334.4 122.77 2340.23ZM92.7856-1662.15 92.7856-1667.97 132.764-1667.97 132.764-1662.15ZM92.7856-1470.58 92.7856-1476.4 132.764-1476.4 132.764-1470.58ZM92.7856-1268.48 92.7856-1274.3 132.764-1274.3 132.764-1268.48ZM92.7856-1054.06 92.7856-1059.88 132.764-1059.88 132.764-1054.06ZM92.7856-851.961 92.7856-857.785 132.764-857.785 132.764-851.961ZM92.7856-637.537 92.7856-643.361 132.764-643.361 132.764-637.537ZM92.7856-435.441 92.7856-441.265 132.764-441.265 132.764-435.441ZM92.7856-221.017 92.7856-226.841 132.764-226.841 132.764-221.017ZM92.7856-8.22314 92.7856-14.0476 132.764-14.0476 132.764-8.22314ZM92.7856 206.201 92.7856 200.376 132.764 200.376 132.764 206.201ZM92.7856 408.296 92.7856 402.472 132.764 402.472 132.764 408.296ZM92.7856 622.72 92.7856 616.896 132.764 616.896 132.764 622.72ZM92.7856 822.991 92.7856 817.168 132.764 817.168 132.764 822.991ZM92.7856 1037.42 92.7856 1031.59 132.764 1031.59 132.764 1037.42ZM92.7856 1239.51 92.7856 1233.69 132.764 1233.69 132.764 1239.51ZM92.7856 1453.93 92.7856 1448.11 132.764 1448.11 132.764 1453.93ZM92.7856 1665.25 92.7856 1659.43 132.764 1659.43 132.764 1665.25ZM92.7856 1879.68 92.7856 1873.85 132.764 1873.85 132.764 1879.68ZM92.7856 2081.77 92.7856 2075.95 132.764 2075.95 132.764 2081.77ZM92.7856 2296.2 92.7856 2290.37 132.764 2290.37 132.764 2296.2ZM86.9645-1363.35C86.9645-1360.85 87.5383-1358.65 88.6864-1356.73 89.8345-1354.82 91.4304-1353.33 93.4744-1352.28 95.5184-1351.22 97.9126-1350.7 100.657-1350.7 103.288-1350.7 105.626-1351.22 107.67-1352.28 109.714-1353.33 111.296-1354.82 112.416-1356.73 113.536-1358.65 114.096-1360.85 114.096-1363.35 114.096-1367.12 112.85-1370.17 110.358-1372.5 107.866-1374.83 104.604-1376.02 100.572-1376.08 97.8845-1376.08 95.5184-1375.54 93.4744-1374.46 91.4304-1373.37 89.8345-1371.89 88.6864-1370 87.5383-1368.12 86.9645-1365.9 86.9645-1363.35ZM86.9645 2393.69C86.9645 2396.19 87.5383 2398.4 88.6864 2400.31 89.8345 2402.22 91.4304 2403.71 93.4744 2404.76 95.5184 2405.82 97.9126 2406.34 100.657 2406.34 103.288 2406.34 105.626 2405.82 107.67 2404.76 109.714 2403.71 111.296 2402.22 112.416 2400.31 113.536 2398.4 114.096 2396.19 114.096 2393.69 114.096 2389.92 112.85 2386.87 110.358 2384.54 107.866 2382.21 104.604 2381.02 100.572 2380.96 97.8845 2380.96 95.5184 2381.5 93.4744 2382.58 91.4304 2383.67 89.8345 2385.15 88.6864 2387.04 87.5383 2388.92 86.9645 2391.14 86.9645 2393.69ZM86.8805-1153.77C86.9364-1150.6 87.9443-1148.01 89.9044-1145.99 91.8645-1143.96 94.4125-1142.95 97.5484-1142.95 100.684-1142.95 103.232-1143.96 105.192-1145.99 107.152-1148.01 108.16-1150.6 108.216-1153.77 108.216-1157.04 107.222-1159.66 105.235-1161.63 103.246-1163.6 100.684-1164.58 97.5484-1164.58 94.4125-1164.58 91.8504-1163.6 89.8623-1161.63 87.8744-1159.66 86.8805-1157.04 86.8805-1153.77ZM86.8805 2184.11C86.9364 2187.28 87.9443 2189.87 89.9044 2191.89 91.8645 2193.92 94.4125 2194.93 97.5484 2194.93 100.684 2194.93 103.232 2193.92 105.192 2191.89 107.152 2189.87 108.16 2187.28 108.216 2184.11 108.216 2180.84 107.222 2178.22 105.235 2176.25 103.246 2174.28 100.684 2173.29 97.5484 2173.29 94.4125 2173.29 91.8504 2174.28 89.8623 2176.25 87.8744 2178.22 86.8805 2180.84 86.8805 2184.11ZM86.7123-1572.93C86.7123-1569.43 87.8464-1566.63 90.1144-1564.52 92.3825-1562.41 95.3646-1561.36 99.0603-1561.36L125.94-1561.36C129.636-1561.36 132.618-1562.41 134.886-1564.52 137.154-1566.63 138.288-1569.43 138.288-1572.93 138.288-1576.42 137.154-1579.22 134.886-1581.33 132.618-1583.44 129.636-1584.49 125.94-1584.49L99.0603-1584.49C95.3646-1584.49 92.3825-1583.44 90.1144-1581.33 87.8464-1579.22 86.7123-1576.42 86.7123-1572.93ZM86.7123 513.633C86.7123 517.128 87.8464 519.929 90.1144 522.038 92.3825 524.146 95.3646 525.2 99.0603 525.2L125.94 525.2C129.636 525.2 132.618 524.146 134.886 522.038 137.154 519.929 138.288 517.128 138.288 513.633 138.288 510.137 137.154 507.336 134.886 505.228 132.618 503.12 129.636 502.066 125.94 502.066L99.0603 502.066C95.3646 502.066 92.3825 503.12 90.1144 505.228 87.8464 507.336 86.7123 510.137 86.7123 513.633ZM81.8404-926.211 81.8404-964.407 88.1403-964.407 143.16-942.604 143.16-935.448 87.8885-957.417 87.8885-932.785 98.6403-932.785 98.6403-926.211ZM81.8404-735.187 81.8404-742.51 108.805-727.032 108.972-727.282C108.02-728.059 107.222-729.237 106.578-730.819 105.934-732.399 105.612-734.188 105.612-736.186 105.612-739.736 106.41-742.829 108.006-745.465 109.602-748.1 111.8-750.166 114.6-751.664 117.4-753.162 120.648-753.911 124.344-753.911 128.208-753.911 131.624-753.092 134.592-751.456 137.56-749.819 139.87-747.573 141.522-744.715 143.174-741.858 144-738.516 144-734.688 144-730.86 143.174-727.49 141.522-724.577 139.87-721.664 137.588-719.39 134.676-717.754 131.764-716.117 128.376-715.299 124.512-715.299 121.824-715.299 119.094-715.784 116.322-716.755 113.55-717.726 110.708-719.043 107.796-720.708ZM81.8404-511.796 81.8404-543.667 87.8885-543.667 87.8885-517.954 104.856-518.12 104.856-528.273C104.856-533.82 106.41-538.106 109.519-541.129 112.626-544.153 117.008-545.665 122.664-545.665L126.444-545.665C131.876-545.665 136.16-544.042 139.296-540.797 142.432-537.551 144-533.155 144-527.607 144-522.17 142.432-517.829 139.296-514.583 136.16-511.338 131.876-509.716 126.444-509.716L126.444-516.29C130.028-516.29 132.856-517.329 134.928-519.41 137-521.49 138.036-524.25 138.036-527.69 138.036-531.129 137-533.889 134.928-535.97 132.856-538.051 130.028-539.09 126.444-539.09L122.664-539.09C118.968-539.09 116.084-538.092 114.012-536.095 111.94-534.098 110.904-531.379 110.904-527.94L110.904-511.796ZM81.8404-322.27 81.8404-329.76 120.06-306.376 123.42-306.293 123.42-327.263 107.88-327.263 107.88-333.92 143.16-333.92 143.16-327.263 129.468-327.263 129.552-299.719 118.548-299.719ZM81.8404-94.9678 81.8404-127.838 88.0564-127.838 104.819-112.64 105.77-118.664C106.547-120.841 107.712-122.734 109.266-124.343 112.374-127.561 116.588-129.169 121.908-129.169L126.444-129.169C131.876-129.169 136.16-127.547 139.296-124.301 142.432-121.056 144-116.659 144-111.112 144-105.675 142.432-101.334 139.296-98.0884 136.16-94.8428 131.876-93.22 126.444-93.22L126.444-99.7942C130.028-99.7942 132.856-100.834 134.928-102.915 137-104.995 138.036-107.755 138.036-111.195 138.036-114.634 137-117.395 134.928-119.475 132.856-121.555 130.028-122.595 126.444-122.595L121.908-122.595C118.38-122.595 115.608-121.569 113.592-119.517 111.576-117.464 110.568-114.69 110.568-111.195L110.568-105.037 104.772-105.037 87.8885-120.432 87.8885-94.9678ZM81.8404 310.047 81.8404 301.059 137.112 301.143 137.028 287.329 143.16 287.412 143.16 324.443 137.112 324.36 137.028 307.717 87.6363 307.717 100.068 324.193 92.4243 324.193ZM81.8404 726.126 81.8404 717.139 137.112 717.222 137.028 703.408 143.16 703.491 143.16 740.523 137.112 740.439 137.028 723.796 87.6363 723.796 100.068 740.273 92.4243 740.273ZM81.8404 1156.35 81.8404 1123.48 88.0564 1123.48 104.819 1138.68 105.77 1132.66C106.547 1130.48 107.712 1128.59 109.266 1126.98 112.374 1123.76 116.588 1122.15 121.908 1122.15L126.444 1122.15C131.876 1122.15 136.16 1123.77 139.296 1127.02 142.432 1130.26 144 1134.66 144 1140.21 144 1145.64 142.432 1149.99 139.296 1153.23 136.16 1156.48 131.876 1158.1 126.444 1158.1L126.444 1151.53C130.028 1151.53 132.856 1150.48 134.928 1148.4 137 1146.32 138.036 1143.56 138.036 1140.12 138.036 1136.68 137 1133.92 134.928 1131.84 132.856 1129.76 130.028 1128.72 126.444 1128.72L121.908 1128.72C118.38 1128.72 115.608 1129.75 113.592 1131.8 111.576 1133.86 110.568 1136.63 110.568 1140.12L110.568 1146.28 104.772 1146.28 87.8885 1130.89 87.8885 1156.35ZM81.8404 1345.13 81.8404 1337.64 120.06 1361.02 123.42 1361.11 123.42 1340.14 107.88 1340.14 107.88 1333.48 143.16 1333.48 143.16 1340.14 129.468 1340.14 129.552 1367.68 118.548 1367.68ZM81.8404 1571.68 81.8404 1539.81 87.8885 1539.81 87.8885 1565.52 104.856 1565.36 104.856 1555.2C104.856 1549.66 106.41 1545.37 109.519 1542.35 112.626 1539.32 117.008 1537.81 122.664 1537.81L126.444 1537.81C131.876 1537.81 136.16 1539.44 139.296 1542.68 142.432 1545.93 144 1550.32 144 1555.87 144 1561.31 142.432 1565.65 139.296 1568.89 136.16 1572.14 131.876 1573.76 126.444 1573.76L126.444 1567.19C130.028 1567.19 132.856 1566.15 134.928 1564.07 137 1561.99 138.036 1559.23 138.036 1555.79 138.036 1552.35 137 1549.59 134.928 1547.51 132.856 1545.43 130.028 1544.39 126.444 1544.39L122.664 1544.39C118.968 1544.39 116.084 1545.39 114.012 1547.38 111.94 1549.38 110.904 1552.1 110.904 1555.54L110.904 1571.68ZM81.8404 1764.37 81.8404 1757.05 108.805 1772.52 108.972 1772.28C108.02 1771.5 107.222 1770.32 106.578 1768.74 105.934 1767.16 105.612 1765.37 105.612 1763.37 105.612 1759.82 106.41 1756.73 108.006 1754.09 109.602 1751.46 111.8 1749.39 114.6 1747.89 117.4 1746.4 120.648 1745.65 124.344 1745.65 128.208 1745.65 131.624 1746.46 134.592 1748.1 137.56 1749.74 139.87 1751.98 141.522 1754.84 143.174 1757.7 144 1761.04 144 1764.87 144 1768.7 143.174 1772.07 141.522 1774.98 139.87 1777.89 137.588 1780.17 134.676 1781.8 131.764 1783.44 128.376 1784.26 124.512 1784.26 121.824 1784.26 119.094 1783.77 116.322 1782.8 113.55 1781.83 110.708 1780.51 107.796 1778.85ZM81.8404 1992.51 81.8404 1954.31 88.1403 1954.31 143.16 1976.11 143.16 1983.27 87.8885 1961.3 87.8885 1985.93 98.6403 1985.93 98.6403 1992.51ZM81.0003-1572.93C81.0003-1576.64 81.7424-1579.83 83.2266-1582.5 84.7104-1585.16 86.7963-1587.23 89.4844-1588.7 92.1725-1590.17 95.3646-1590.9 99.0603-1590.9L125.94-1590.9C129.58-1590.9 132.758-1590.17 135.474-1588.7 138.19-1587.23 140.29-1585.15 141.774-1582.46 143.258-1579.76 144-1576.59 144-1572.93 144-1569.27 143.258-1566.09 141.774-1563.4 140.29-1560.71 138.19-1558.63 135.474-1557.16 132.758-1555.69 129.58-1554.95 125.94-1554.95L99.0603-1554.95C95.3646-1554.95 92.1725-1555.69 89.4844-1557.16 86.7963-1558.63 84.7104-1560.71 83.2266-1563.4 81.7424-1566.09 81.0003-1569.27 81.0003-1572.93ZM81.0003-1363.26C81.0003-1367.15 81.8263-1370.53 83.4784-1373.42 85.1305-1376.3 87.4123-1378.56 90.3244-1380.2 93.2363-1381.83 96.6244-1382.65 100.488-1382.65 103.176-1382.65 105.906-1382.18 108.678-1381.24 111.45-1380.29 114.292-1378.99 117.204-1377.33L143.16-1362.68 143.16-1355.03 116.196-1370.67 116.028-1370.42C116.588-1370.03 117.134-1369.38 117.666-1368.46 118.198-1367.55 118.618-1366.49 118.926-1365.3 119.234-1364.11 119.388-1362.82 119.388-1361.43 119.388-1357.99 118.604-1354.98 117.036-1352.4 115.468-1349.82 113.284-1347.79 110.484-1346.29 107.685-1344.79 104.436-1344.04 100.74-1344.04 96.8204-1344.04 93.3764-1344.86 90.4084-1346.5 87.4404-1348.13 85.1305-1350.41 83.4784-1353.32 81.8263-1356.23 81.0003-1359.55 81.0003-1363.26ZM81.0003-1153.77C81.0003-1157.26 81.6865-1160.31 83.0584-1162.92 84.4305-1165.53 86.3344-1167.57 88.7704-1169.04 91.2063-1170.51 94.0205-1171.24 97.2123-1171.24 100.516-1171.24 103.414-1170.3 105.906-1168.41 108.399-1166.53 109.98-1164.03 110.652-1160.92L110.988-1160.92C111.436-1163.31 112.374-1165.4 113.802-1167.21 115.23-1169.01 117.008-1170.41 119.136-1171.41 121.264-1172.41 123.616-1172.91 126.192-1172.91 129.72-1172.91 132.814-1172.1 135.474-1170.49 138.134-1168.88 140.22-1166.65 141.732-1163.79 143.244-1160.94 144-1157.59 144-1153.77 144-1149.99 143.244-1146.67 141.732-1143.78 140.22-1140.9 138.12-1138.65 135.432-1137.04 132.744-1135.43 129.664-1134.63 126.192-1134.63 123.616-1134.63 121.264-1135.13 119.136-1136.12 117.008-1137.12 115.23-1138.52 113.802-1140.33 112.374-1142.13 111.436-1144.22 110.988-1146.61L110.652-1146.61C109.98-1143.5 108.399-1141.01 105.906-1139.12 103.414-1137.23 100.516-1136.29 97.2123-1136.29 94.0205-1136.29 91.2063-1137.03 88.7704-1138.5 86.3344-1139.97 84.4305-1142.02 83.0584-1144.65 81.6865-1147.29 81.0003-1150.33 81.0003-1153.77ZM81.0003 97.7202C81.0003 94.0588 81.7284 90.8687 83.1844 88.1506 84.6405 85.4319 86.6846 83.3237 89.3165 81.8259 91.9484 80.3281 95.0566 79.5791 98.6403 79.5791 101.608 79.5791 104.758 80.3835 108.091 81.9922 111.422 83.6013 115.02 86.2087 118.884 89.8147L137.112 107.124 137.112 78.8301 143.16 78.8301 143.16 115.112 137.028 115.112 114.768 94.4749C111.744 91.5898 108.916 89.5095 106.284 88.2336 103.652 86.9575 101.076 86.3198 98.5564 86.3198 95.0285 86.3198 92.2002 87.3596 90.0723 89.4402 87.9443 91.5205 86.8805 94.2803 86.8805 97.7202 86.8805 101.271 87.9724 104.114 90.1562 106.25 92.3404 108.385 95.2245 109.453 98.8085 109.453L98.8085 116.028C95.2245 115.917 92.0882 115.098 89.4004 113.573 86.7123 112.047 84.6405 109.925 83.1844 107.207 81.7284 104.488 81.0003 101.326 81.0003 97.7202ZM81.0003 513.633C81.0003 509.916 81.7424 506.726 83.2266 504.063 84.7104 501.4 86.7963 499.334 89.4844 497.863 92.1725 496.393 95.3646 495.658 99.0603 495.658L125.94 495.658C129.58 495.658 132.758 496.393 135.474 497.863 138.19 499.334 140.29 501.414 141.774 504.105 143.258 506.795 144 509.972 144 513.633 144 517.294 143.258 520.47 141.774 523.161 140.29 525.852 138.19 527.932 135.474 529.402 132.758 530.872 129.58 531.608 125.94 531.608L99.0603 531.608C95.3646 531.608 92.1725 530.872 89.4844 529.402 86.7963 527.932 84.7104 525.852 83.2266 523.161 81.7424 520.47 81.0003 517.294 81.0003 513.633ZM81.0003 932.96C81.0003 929.299 81.7284 926.109 83.1844 923.391 84.6405 920.672 86.6846 918.564 89.3165 917.066 91.9484 915.568 95.0566 914.819 98.6403 914.819 101.608 914.819 104.758 915.624 108.091 917.233 111.422 918.842 115.02 921.449 118.884 925.055L137.112 942.364 137.112 914.071 143.16 914.071 143.16 950.353 137.028 950.353 114.768 929.715C111.744 926.83 108.916 924.75 106.284 923.474 103.652 922.198 101.076 921.56 98.5564 921.56 95.0285 921.56 92.2002 922.6 90.0723 924.68 87.9443 926.761 86.8805 929.521 86.8805 932.96 86.8805 936.511 87.9724 939.354 90.1562 941.49 92.3404 943.626 95.2245 944.694 98.8085 944.694L98.8085 951.268C95.2245 951.157 92.0882 950.339 89.4004 948.813 86.7123 947.287 84.6405 945.165 83.1844 942.447 81.7284 939.729 81.0003 936.567 81.0003 932.96ZM81.0003 2184.11C81.0003 2180.62 81.6865 2177.57 83.0584 2174.96 84.4305 2172.35 86.3344 2170.31 88.7704 2168.84 91.2063 2167.37 94.0205 2166.64 97.2123 2166.64 100.516 2166.64 103.414 2167.58 105.906 2169.47 108.399 2171.35 109.98 2173.85 110.652 2176.96L110.988 2176.96C111.436 2174.57 112.374 2172.48 113.802 2170.67 115.23 2168.87 117.008 2167.47 119.136 2166.47 121.264 2165.47 123.616 2164.97 126.192 2164.97 129.72 2164.97 132.814 2165.78 135.474 2167.39 138.134 2169 140.22 2171.23 141.732 2174.09 143.244 2176.94 144 2180.29 144 2184.11 144 2187.89 143.244 2191.21 141.732 2194.1 140.22 2196.98 138.12 2199.23 135.432 2200.84 132.744 2202.45 129.664 2203.25 126.192 2203.25 123.616 2203.25 121.264 2202.75 119.136 2201.76 117.008 2200.76 115.23 2199.36 113.802 2197.55 112.374 2195.75 111.436 2193.66 110.988 2191.27L110.652 2191.27C109.98 2194.38 108.399 2196.87 105.906 2198.76 103.414 2200.65 100.516 2201.59 97.2123 2201.59 94.0205 2201.59 91.2063 2200.85 88.7704 2199.38 86.3344 2197.91 84.4305 2195.86 83.0584 2193.23 81.6865 2190.59 81.0003 2187.55 81.0003 2184.11ZM81.0003 2393.78C81.0003 2389.89 81.8263 2386.51 83.4784 2383.62 85.1305 2380.74 87.4123 2378.48 90.3244 2376.84 93.2363 2375.21 96.6244 2374.39 100.488 2374.39 103.176 2374.39 105.906 2374.86 108.678 2375.8 111.45 2376.75 114.292 2378.05 117.204 2379.71L143.16 2394.36 143.16 2402.02 116.196 2386.37 116.028 2386.62C116.588 2387.01 117.134 2387.66 117.666 2388.58 118.198 2389.49 118.618 2390.55 118.926 2391.74 119.234 2392.93 119.388 2394.22 119.388 2395.61 119.388 2399.05 118.604 2402.06 117.036 2404.64 115.468 2407.22 113.284 2409.26 110.484 2410.75 107.685 2412.25 104.436 2413 100.74 2413 96.8204 2413 93.3764 2412.18 90.4084 2410.54 87.4404 2408.91 85.1305 2406.63 83.4784 2403.72 81.8263 2400.81 81.0003 2397.49 81.0003 2393.78Z" fill="rgba(255,255,255,0.2)" fill-rule="evenodd"/></g></svg>