<?xml version="1.0" encoding="utf-8"?><svg width="4172" height="2410" xmlns="http://www.w3.org/2000/svg" xmlns:xlink="http://www.w3.org/1999/xlink" xml:space="preserve" overflow="hidden"><defs><linearGradient x1="2200.5" y1="0.499836" x2="2200.5" y2="2409.14" gradientUnits="userSpaceOnUse" spreadMethod="reflect" id="stroke0"><stop offset="0" stop-color="#595959" stop-opacity="0"/><stop offset="0.34" stop-color="#595959"/><stop offset="0.79" stop-color="#595959"/><stop offset="1" stop-color="#595959" stop-opacity="0"/></linearGradient></defs><g transform="translate(-114 0)"><path d="M2200.5 0.499836 2200.5 2406.85" stroke="url(#stroke0)" stroke-width="4.58333" stroke-miterlimit="8" fill="none" fill-rule="evenodd"/><path d="M160.411 1679C137.54 1679 119 1660.46 119 1637.59L119 837.411C119 814.54 137.54 796 160.411 796M4239.59 796C4262.46 796 4281 814.54 4281 837.411L4281 1637.59C4281 1660.46 4262.46 1679 4239.59 1679" stroke="#262626" stroke-width="10.3125" stroke-miterlimit="8" fill="none" fill-rule="evenodd"/><path d="M125.5 241.5 148.036 241.501" stroke="#262626" stroke-width="6.875" stroke-miterlimit="8" fill="none" fill-rule="evenodd"/><path d="M125.5 344.5 148.036 344.5" stroke="#262626" stroke-width="6.875" stroke-miterlimit="8" fill="none" fill-rule="evenodd"/><path d="M125.5 447.5 148.036 447.5" stroke="#262626" stroke-width="6.875" stroke-miterlimit="8" fill="none" fill-rule="evenodd"/><path d="M125.5 481.5 148.036 481.5" stroke="#262626" stroke-width="6.875" stroke-miterlimit="8" fill="none" fill-rule="evenodd"/><path d="M125.5 516.5 148.036 516.501" stroke="#262626" stroke-width="6.875" stroke-miterlimit="8" fill="none" fill-rule="evenodd"/><path d="M125.5 550.5 148.036 550.5" stroke="#262626" stroke-width="6.875" stroke-miterlimit="8" fill="none" fill-rule="evenodd"/><path d="M125.5 584.5 148.036 584.5" stroke="#262626" stroke-width="6.875" stroke-miterlimit="8" fill="none" fill-rule="evenodd"/><path d="M125.5 619.5 148.036 619.5" stroke="#262626" stroke-width="6.875" stroke-miterlimit="8" fill="none" fill-rule="evenodd"/><path d="M125.5 653.5 148.036 653.5" stroke="#262626" stroke-width="6.875" stroke-miterlimit="8" fill="none" fill-rule="evenodd"/><path d="M125.5 687.5 148.036 687.5" stroke="#262626" stroke-width="6.875" stroke-miterlimit="8" fill="none" fill-rule="evenodd"/><path d="M125.5 722.5 148.036 722.5" stroke="#262626" stroke-width="6.875" stroke-miterlimit="8" fill="none" fill-rule="evenodd"/><path d="M125.5 413.5 148.036 413.5" stroke="#262626" stroke-width="6.875" stroke-miterlimit="8" fill="none" fill-rule="evenodd"/><path d="M125.5 378.5 148.036 378.5" stroke="#262626" stroke-width="6.875" stroke-miterlimit="8" fill="none" fill-rule="evenodd"/><path d="M125.5 310.5 148.036 310.5" stroke="#262626" stroke-width="6.875" stroke-miterlimit="8" fill="none" fill-rule="evenodd"/><path d="M125.5 275.5 148.036 275.5" stroke="#262626" stroke-width="6.875" stroke-miterlimit="8" fill="none" fill-rule="evenodd"/><path d="M125.5 1766.5 148.036 1766.5" stroke="#262626" stroke-width="6.875" stroke-miterlimit="8" fill="none" fill-rule="evenodd"/><path d="M125.5 1869.5 148.036 1869.5" stroke="#262626" stroke-width="6.875" stroke-miterlimit="8" fill="none" fill-rule="evenodd"/><path d="M125.5 1972.5 148.036 1972.5" stroke="#262626" stroke-width="6.875" stroke-miterlimit="8" fill="none" fill-rule="evenodd"/><path d="M125.5 2007.5 148.036 2007.5" stroke="#262626" stroke-width="6.875" stroke-miterlimit="8" fill="none" fill-rule="evenodd"/><path d="M125.5 2041.5 148.036 2041.5" stroke="#262626" stroke-width="6.875" stroke-miterlimit="8" fill="none" fill-rule="evenodd"/><path d="M125.5 2075.5 148.036 2075.5" stroke="#262626" stroke-width="6.875" stroke-miterlimit="8" fill="none" fill-rule="evenodd"/><path d="M125.5 2110.5 148.036 2110.5" stroke="#262626" stroke-width="6.875" stroke-miterlimit="8" fill="none" fill-rule="evenodd"/><path d="M125.5 2144.5 148.036 2144.5" stroke="#262626" stroke-width="6.875" stroke-miterlimit="8" fill="none" fill-rule="evenodd"/><path d="M125.5 2178.5 148.036 2178.5" stroke="#262626" stroke-width="6.875" stroke-miterlimit="8" fill="none" fill-rule="evenodd"/><path d="M125.5 2213.5 148.036 2213.5" stroke="#262626" stroke-width="6.875" stroke-miterlimit="8" fill="none" fill-rule="evenodd"/><path d="M125.5 2247.5 148.036 2247.5" stroke="#262626" stroke-width="6.875" stroke-miterlimit="8" fill="none" fill-rule="evenodd"/><path d="M125.5 1938.5 148.036 1938.5" stroke="#262626" stroke-width="6.875" stroke-miterlimit="8" fill="none" fill-rule="evenodd"/><path d="M125.5 1904.5 148.036 1904.5" stroke="#262626" stroke-width="6.875" stroke-miterlimit="8" fill="none" fill-rule="evenodd"/><path d="M125.5 1835.5 148.036 1835.5" stroke="#262626" stroke-width="6.875" stroke-miterlimit="8" fill="none" fill-rule="evenodd"/><path d="M125.5 1800.5 148.036 1800.5" stroke="#262626" stroke-width="6.875" stroke-miterlimit="8" fill="none" fill-rule="evenodd"/><path d="M4249.5 241.5 4272.04 241.501" stroke="#262626" stroke-width="6.875" stroke-miterlimit="8" fill="none" fill-rule="evenodd"/><path d="M4249.5 344.5 4272.04 344.5" stroke="#262626" stroke-width="6.875" stroke-miterlimit="8" fill="none" fill-rule="evenodd"/><path d="M4249.5 447.5 4272.04 447.5" stroke="#262626" stroke-width="6.875" stroke-miterlimit="8" fill="none" fill-rule="evenodd"/><path d="M4249.5 481.5 4272.04 481.5" stroke="#262626" stroke-width="6.875" stroke-miterlimit="8" fill="none" fill-rule="evenodd"/><path d="M4249.5 516.5 4272.04 516.501" stroke="#262626" stroke-width="6.875" stroke-miterlimit="8" fill="none" fill-rule="evenodd"/><path d="M4249.5 550.5 4272.04 550.5" stroke="#262626" stroke-width="6.875" stroke-miterlimit="8" fill="none" fill-rule="evenodd"/><path d="M4249.5 584.5 4272.04 584.5" stroke="#262626" stroke-width="6.875" stroke-miterlimit="8" fill="none" fill-rule="evenodd"/><path d="M4249.5 619.5 4272.04 619.5" stroke="#262626" stroke-width="6.875" stroke-miterlimit="8" fill="none" fill-rule="evenodd"/><path d="M4249.5 653.5 4272.04 653.5" stroke="#262626" stroke-width="6.875" stroke-miterlimit="8" fill="none" fill-rule="evenodd"/><path d="M4249.5 687.5 4272.04 687.5" stroke="#262626" stroke-width="6.875" stroke-miterlimit="8" fill="none" fill-rule="evenodd"/><path d="M4249.5 722.5 4272.04 722.5" stroke="#262626" stroke-width="6.875" stroke-miterlimit="8" fill="none" fill-rule="evenodd"/><path d="M4249.5 413.5 4272.04 413.5" stroke="#262626" stroke-width="6.875" stroke-miterlimit="8" fill="none" fill-rule="evenodd"/><path d="M4249.5 378.5 4272.04 378.5" stroke="#262626" stroke-width="6.875" stroke-miterlimit="8" fill="none" fill-rule="evenodd"/><path d="M4249.5 310.5 4272.04 310.5" stroke="#262626" stroke-width="6.875" stroke-miterlimit="8" fill="none" fill-rule="evenodd"/><path d="M4249.5 275.5 4272.04 275.5" stroke="#262626" stroke-width="6.875" stroke-miterlimit="8" fill="none" fill-rule="evenodd"/><path d="M4249.5 1766.5 4272.04 1766.5" stroke="#262626" stroke-width="6.875" stroke-miterlimit="8" fill="none" fill-rule="evenodd"/><path d="M4249.5 1869.5 4272.04 1869.5" stroke="#262626" stroke-width="6.875" stroke-miterlimit="8" fill="none" fill-rule="evenodd"/><path d="M4249.5 1972.5 4272.04 1972.5" stroke="#262626" stroke-width="6.875" stroke-miterlimit="8" fill="none" fill-rule="evenodd"/><path d="M4249.5 2007.5 4272.04 2007.5" stroke="#262626" stroke-width="6.875" stroke-miterlimit="8" fill="none" fill-rule="evenodd"/><path d="M4249.5 2041.5 4272.04 2041.5" stroke="#262626" stroke-width="6.875" stroke-miterlimit="8" fill="none" fill-rule="evenodd"/><path d="M4249.5 2075.5 4272.04 2075.5" stroke="#262626" stroke-width="6.875" stroke-miterlimit="8" fill="none" fill-rule="evenodd"/><path d="M4249.5 2110.5 4272.04 2110.5" stroke="#262626" stroke-width="6.875" stroke-miterlimit="8" fill="none" fill-rule="evenodd"/><path d="M4249.5 2144.5 4272.04 2144.5" stroke="#262626" stroke-width="6.875" stroke-miterlimit="8" fill="none" fill-rule="evenodd"/><path d="M4249.5 2178.5 4272.04 2178.5" stroke="#262626" stroke-width="6.875" stroke-miterlimit="8" fill="none" fill-rule="evenodd"/><path d="M4249.5 2213.5 4272.04 2213.5" stroke="#262626" stroke-width="6.875" stroke-miterlimit="8" fill="none" fill-rule="evenodd"/><path d="M4249.5 2247.5 4272.04 2247.5" stroke="#262626" stroke-width="6.875" stroke-miterlimit="8" fill="none" fill-rule="evenodd"/><path d="M4249.5 1938.5 4272.04 1938.5" stroke="#262626" stroke-width="6.875" stroke-miterlimit="8" fill="none" fill-rule="evenodd"/><path d="M4249.5 1904.5 4272.04 1904.5" stroke="#262626" stroke-width="6.875" stroke-miterlimit="8" fill="none" fill-rule="evenodd"/><path d="M4249.5 1835.5 4272.04 1835.5" stroke="#262626" stroke-width="6.875" stroke-miterlimit="8" fill="none" fill-rule="evenodd"/><path d="M4249.5 1800.5 4272.04 1800.5" stroke="#262626" stroke-width="6.875" stroke-miterlimit="8" fill="none" fill-rule="evenodd"/></g></svg>