<?xml version="1.0" encoding="utf-8"?><svg width="6055" height="6055" xmlns="http://www.w3.org/2000/svg" xmlns:xlink="http://www.w3.org/1999/xlink" xml:space="preserve" overflow="hidden"><g transform="translate(2479 2795)"><path d="M-285.5 232C-285.5-227.225 86.7751-599.5 546-599.5 1005.22-599.5 1377.5-227.225 1377.5 232 1377.5 691.225 1005.22 1063.5 546 1063.5 86.7751 1063.5-285.5 691.225-285.5 232ZM130.25 232C130.25 461.612 316.387 647.75 546 647.75 775.612 647.75 961.75 461.612 961.75 232 961.75 2.38763 775.612-183.75 546-183.75 316.387-183.75 130.25 2.38763 130.25 232Z" stroke="#0D0D0D" stroke-width="4.58333" stroke-miterlimit="8" fill="none" fill-rule="evenodd"/><path d="M-2476.5 232.5C-2476.5-1438.16-1122.16-2792.5 548.5-2792.5 2219.16-2792.5 3573.5-1438.16 3573.5 232.5 3573.5 1903.16 2219.16 3257.5 548.5 3257.5-1122.16 3257.5-2476.5 1903.16-2476.5 232.5ZM-964 232.5C-964 1067.83-286.83 1745 548.5 1745 1383.83 1745 2061 1067.83 2061 232.5 2061-602.831 1383.83-1280 548.5-1280-286.83-1280-964-602.831-964 232.5Z" stroke="#2C2C2C" stroke-width="4.58333" stroke-miterlimit="8" fill="none" fill-rule="evenodd"/></g></svg>