<?xml version="1.0" encoding="utf-8"?><svg width="1390" height="449" xmlns="http://www.w3.org/2000/svg" xmlns:xlink="http://www.w3.org/1999/xlink" xml:space="preserve" overflow="hidden"><defs><filter id="fx0" x="-10%" y="-10%" width="120%" height="120%" filterUnits="userSpaceOnUse" primitiveUnits="userSpaceOnUse"><feComponentTransfer color-interpolation-filters="sRGB"><feFuncR type="discrete" tableValues="1 1"/><feFuncG type="discrete" tableValues="1 1"/><feFuncB type="discrete" tableValues="1 1"/><feFuncA type="linear" slope="0.4" intercept="0"/></feComponentTransfer><feGaussianBlur stdDeviation="7.63889 7.65583"/></filter><clipPath id="clip1"><rect x="1505" y="969" width="1390" height="449"/></clipPath><clipPath id="clip2"><rect x="0" y="0" width="348" height="113"/></clipPath></defs><g clip-path="url(#clip1)" transform="translate(-1505 -969)"><g filter="url(#fx0)" transform="matrix(4 0 0 3.99115 1504 968)"><g clip-path="url(#clip2)" transform="matrix(1 0 0 1 0 2.84217e-14)"><path d="M45.2427 74.3248 45.2427 79.3714 45.9693 79.2425 45.9693 84.2986C45.9193 84.5146 45.4569 84.8387 44.5821 85.2708 43.7072 85.7029 42.6074 86.0917 41.2827 86.4374 39.9579 86.7831 38.5707 86.9559 37.121 86.9559 36.4461 86.9559 35.7712 86.9559 35.0963 86.9559L35.0963 81.6782 34.3698 81.8072 34.3698 75.771ZM147.244 72.3593C150.361 77.7832 154.981 82.1885 160.546 85.0431L160.297 85.5286C154.638 82.6258 149.94 78.1464 146.771 72.6312ZM119.802 72.05 120.027 72.5251C120.388 73.2394 120.698 74.0478 120.959 74.9501L121.024 75.3012 123.35 75.2269 123.448 75.7542C123.504 76.2993 123.521 76.8915 123.501 77.5306 123.461 79.0721 122.88 80.3221 121.759 81.2808 120.637 82.2395 119.195 82.7188 117.432 82.7188 116.671 82.7188 115.89 82.5027 115.089 82.0703 114.288 81.638 113.727 80.8578 113.407 79.73 113.627 78.6961 113.802 77.6951 113.932 76.727L113.985 76.1455 111.83 76.2144 111.976 74.6117 111.978 73.9078ZM60.0338 70.6211C61.4366 70.6305 62.7785 70.6717 64.0596 70.7446L66.5229 70.9559 57.4294 72.1654 55.1925 71.3361C55.3425 71.12 55.4924 70.904 55.6424 70.6879 57.1671 70.6339 58.6309 70.6116 60.0338 70.6211ZM152.451 70.2109C156.509 76.8472 163.248 81.394 170.92 82.6722 178.591 83.9503 186.44 81.8339 192.43 76.8717L193.237 77.8465C186.964 83.0428 178.745 85.2592 170.712 83.9207 162.678 82.5822 155.621 77.8208 151.371 70.8714ZM152.308 66.7628 150.274 69.2696C147.129 72.5968 143.314 75.4541 138.827 77.8414 134.341 80.2288 128.993 82.118 122.784 83.509 122.644 83.2835 122.504 83.0579 122.363 82.8323 127.09 80.6518 131.216 78.1704 134.741 75.3883L138.711 71.8157ZM153.953 65.2072 153.963 65.2404 154.021 65.3534 154.023 65.3515ZM109.381 65.0675C109.381 65.0675 109.581 65.0675 109.982 65.0675L110.793 65.0675 109.381 65.2554ZM113.954 64.6471 113.587 64.9266C113.347 65.0205 112.946 65.0675 112.385 65.0675 112.185 65.0675 111.834 65.0675 111.334 65.0675L110.793 65.0675ZM140.597 61.495 142.48 62.3411 142.88 62.3773 120.925 66.2737 120.737 67.4925C120.777 68.3196 120.947 69.0715 121.248 69.7483L122.014 71.3597 114.19 73.2175 114.195 71.433C114.16 70.6764 114.088 69.9926 113.977 69.3817L113.53 67.9276 111.173 68.3458 110.954 68.1014C110.514 67.8006 110.003 67.5656 109.422 67.3964 108.841 67.2272 108.21 67.1238 107.529 67.0863L107.529 66.2591 108.942 66.0712 109.482 66.0712C109.983 66.0712 110.333 66.0712 110.534 66.0712 111.094 66.0712 111.495 66.0242 111.735 65.9302L112.103 65.6508 119.648 64.6471 119.306 65.761 119.232 66.2405 119.722 66.1536 119.85 65.323 120.192 64.2091ZM164.387 58.5094 163.579 58.6528 163.901 60.2466 164.695 60.0343ZM165.8 58.2587 165.114 58.3805 165.409 59.8434 166.083 59.6631ZM185.782 55.2616 185.09 55.3538 185.264 56.2136C185.264 61.704 180.814 66.1548 175.325 66.1548 171.895 66.1548 168.87 64.4162 167.084 61.7718L166.378 60.4693 165.722 60.7439 166.495 62.1694C168.409 65.0028 171.65 66.8658 175.325 66.8658 181.207 66.8658 185.975 62.0967 185.975 56.2136ZM281.275 54.6479C281.147 57.1444 281.02 59.6411 280.892 62.1377 283.178 62.2544 285.463 62.3712 287.749 62.488 287.876 59.9914 288.004 57.4948 288.131 54.9982 285.846 54.8814 283.56 54.7647 281.275 54.6479ZM191.666 54.4779 188.465 54.9043 188.342 55.7733C188.228 56.5072 188.116 57.1749 188.006 57.7767 187.991 57.8573 187.975 57.9379 187.96 58.0185 187.879 58.0626 187.798 58.1068 187.717 58.1509L187.218 58.5251 187.451 56.2136 187.221 55.07 186.515 55.164 186.727 56.2136C186.727 62.5124 181.622 67.6185 175.325 67.6185 171.39 67.6185 167.92 65.6239 165.871 62.5902L165.027 61.0345 164.281 61.3467 165.869 63.9648C168.103 66.673 171.485 68.3992 175.269 68.3992 180.315 68.3992 184.645 65.3304 186.494 60.9568L186.833 59.8642 190.998 61.964 190.758 62.738C188.214 68.7539 182.259 72.975 175.318 72.975 169.245 72.975 163.926 69.7432 160.987 64.9051L160.091 63.0999 154.142 65.5891 155.498 68.2388C159.564 74.9327 166.923 79.4041 175.325 79.4041 186.529 79.4041 195.877 71.4548 198.038 60.8873L198.169 60.0311 199.707 60.0311 199.528 61.204C198.662 65.4354 196.718 69.2736 193.994 72.4185L191.807 74.5545 194.823 74.7391C196.306 74.8331 197.668 74.9082 198.909 74.9646 200.151 75.021 201.012 75.0492 201.493 75.0492 202.054 75.0492 202.494 75.0116 202.815 74.9365 203.135 74.8612 203.436 74.7297 203.716 74.5417 204.317 74.1281 204.868 73.1882 205.369 71.722 205.869 70.2557 206.32 68.3666 206.721 66.0544 207.021 64.3203 207.276 62.4223 207.487 60.3604 207.503 60.1812 207.52 60.002 207.536 59.8229L198.424 59.8229 198.558 58.9436 197.65 58.9436 197.59 59.3426 196.033 59.3426C195.118 60.456 194.202 61.5694 193.286 62.6829L190.678 61.3677 191.426 58.9573C191.652 57.8487 191.771 56.7008 191.771 55.5251ZM175.325 54.409C176.322 54.409 177.13 55.217 177.13 56.2136 177.13 57.2103 176.322 58.0182 175.325 58.0182 174.329 58.0182 173.521 57.2103 173.521 56.2136 173.521 55.217 174.329 54.409 175.325 54.409ZM184.764 51.3789 184.121 51.6776 184.483 52.3441 185.052 55.1647 185.741 55.0553 185.138 52.0674ZM186.106 50.7556 185.445 51.0627 185.831 51.7744 186.47 54.9396 187.172 54.8281 186.494 51.4705ZM190.368 48.7761 189.2 49.3186 188.999 51.1061 188.505 54.6164 191.63 54.1202 191.426 52.093C191.199 50.9844 190.864 49.915 190.433 48.8962ZM309.843 47.5834C309.714 50.1026 309.586 52.6216 309.457 55.1407 309.377 56.7152 309.257 58.2904 309.097 59.8664 309.058 60.1773 309.019 60.4882 308.979 60.7991 310.539 60.8788 312.099 60.9585 313.659 61.0382 313.885 56.6298 314.11 52.2214 314.335 47.8129 312.837 47.7365 311.34 47.6599 309.843 47.5834ZM175.325 46.6518C170.046 46.6518 165.766 50.9328 165.766 56.2136L166.136 58.0446 169.612 57.5822 166.166 58.1937 166.443 59.5669 172.236 58.0182 166.728 60.3229 167.399 61.5597C169.117 64.1032 172.026 65.7754 175.325 65.7754 180.605 65.7754 184.885 61.4945 184.885 56.2136L184.721 55.403 177.461 56.37 184.685 55.223 184.133 52.4918 183.778 51.8369 178.24 54.409 183.566 51.4465 183.252 50.8676C181.534 48.3241 178.625 46.6518 175.325 46.6518ZM154.281 46.1416 153.493 48.7802 152.332 51.9167 152.397 51.4955C152.708 49.9715 153.168 48.5015 153.76 47.1011ZM175.325 45.5615C169.444 45.5615 164.676 50.3306 164.676 56.2136L165.074 58.1858 165.767 58.0937 165.387 56.2136C165.387 50.7233 169.837 46.2725 175.325 46.2725 178.756 46.2725 181.78 48.0111 183.566 50.6554L183.896 51.2629 184.515 50.9189 184.156 50.2579C182.242 47.4245 179.001 45.5615 175.325 45.5615ZM281.747 45.4037C281.622 47.8553 281.497 50.3069 281.371 52.7586 283.657 52.8753 285.942 52.9921 288.228 53.1089 288.353 50.6572 288.478 48.2056 288.603 45.754 286.318 45.6372 284.032 45.5204 281.747 45.4037ZM162.427 45.1575 160.368 51.4824C159.447 53.928 158.435 56.2642 157.334 58.491L157.225 58.6759 157.104 57.477C157.104 52.7743 159.009 48.5167 162.09 45.4349ZM271.708 44.6005 271.23 46.0259C270.675 47.6791 270.103 49.3854 269.515 51.1448 268.927 52.9042 268.382 54.5906 267.879 56.2038 267.376 57.8171 266.935 59.2394 266.556 60.4709 266.177 61.7024 265.892 62.6368 265.701 63.2741 265.439 64.2532 265.187 65.2655 264.945 66.3108 264.703 67.3562 264.583 68.2686 264.583 69.0479 264.604 70.3048 264.866 71.4905 265.372 72.605 265.877 73.7195 266.35 74.951 266.79 76.2995 267.23 77.648 267.336 79.3325 267.108 81.3529 266.948 83.0745 266.187 84.4116 264.824 85.364 263.461 86.3165 261.832 86.7324 259.936 86.6119 259.088 86.558 258.23 86.2546 257.364 85.7016 256.497 85.1486 255.956 84.2158 255.739 82.9031 256.385 80.6063 256.837 78.4269 257.093 76.365 257.349 74.3031 257.399 72.5419 257.241 71.0815 257.083 69.6211 256.741 68.7009 256.214 68.321 255.737 67.9444 255.192 67.65 254.58 67.4378 253.967 67.2257 253.263 67.0727 252.467 66.9789 252.492 66.5908 252.517 66.2027 252.541 65.8146 252.541 65.8146 252.978 65.8423 253.851 65.8978 254.724 65.9533 255.36 65.9938 255.759 66.0191 256.308 66.054 256.723 66.0263 257.004 65.9359 257.286 65.8456 257.646 65.4897 258.087 64.8682 258.416 64.4129 258.718 63.9883 258.994 63.5946 259.269 63.2008 259.646 62.5969 260.123 61.783 260.601 60.9691 261.278 59.7782 262.154 58.2103 263.03 56.6424 264.218 54.499 265.718 51.7802 266.468 50.4207 267.327 48.868 268.296 47.122L269.616 44.7449ZM175.269 44.0281C168.541 44.0281 163.087 49.4837 163.087 56.2136L163.527 58.3916 164.342 58.2832 163.924 56.2136C163.924 49.9149 169.028 44.8088 175.325 44.8088 179.261 44.8088 182.731 46.8034 184.78 49.8371L185.169 50.5547 185.805 50.201 185.371 49.4006C183.182 46.1592 179.474 44.0281 175.269 44.0281ZM109.561 42.6791C112.606 42.7167 115.019 43.0644 116.801 43.7224 118.584 44.3803 119.856 45.1792 120.617 46.1191 121.378 47.059 121.729 47.9989 121.668 48.9388 121.608 49.8787 121.238 50.6964 120.557 51.392 119.876 52.0875 119.005 52.5104 117.943 52.6608 116.882 52.8112 115.73 52.5292 114.488 51.8149 114.208 50.7622 113.777 49.6908 113.196 48.6005 112.616 47.5102 111.975 46.4763 111.274 45.4988 110.573 44.5213 109.862 43.6754 109.141 42.961 109.281 42.8671 109.421 42.7731 109.561 42.6791ZM165.258 42.1823 163.269 43.8236 163.705 42.4838C164.129 42.4241 164.508 42.3595 164.841 42.2899ZM271.028 41.5126 270.624 43.0482 270.373 43.9935 269.586 44.0983 269.556 44.1627 269.366 44.5624 264.188 45.2521 264.022 45.0583 263.286 45.1564 264.063 46.0621C264.713 47.2071 264.913 48.2873 264.663 49.3027 264.413 50.3181 263.85 51.1499 262.976 51.798 262.101 52.4462 261.038 52.7594 259.789 52.7378 258.539 52.7162 257.264 52.2517 255.964 51.3443 255.939 50.4153 255.818 49.4809 255.599 48.5412L254.774 46.0713 255.82 45.9321 255.768 45.7759 255.029 44.3004 261.866 43.2149 262.126 43.3883 269.253 42.2566 269.491 41.7567ZM269.987 40.715C270.387 40.7798 270.787 40.8446 271.186 40.9094L271.028 41.5126 269.491 41.7567ZM252.515 40.5206C255.864 41.0823 258.464 41.8601 260.314 42.8539L260.75 43.1446 253.914 44.2302 253.331 43.0645C252.862 42.2544 252.365 41.5144 251.84 40.8447 252.065 40.7367 252.29 40.6286 252.515 40.5206ZM291.658 40.5206 292.297 41.0731 290.883 41.2614ZM131.312 37.4345C131.593 37.5285 131.873 37.6225 132.154 37.7165 131.513 39.1827 130.792 40.8369 129.99 42.6791 129.189 44.5213 128.368 46.4105 127.527 48.3467 126.686 50.2829 125.905 52.1345 125.183 53.9015 124.462 55.6685 123.832 57.2382 123.291 58.6104 122.75 59.9827 122.359 60.9884 122.119 61.6275L121.5 63.6435 113.954 64.6471 114.023 64.5952C114.193 64.4214 114.388 64.184 114.608 63.8833 114.929 63.4697 115.219 63.0844 115.48 62.7272 115.74 62.37 116.07 61.9001 116.471 61.3173 116.872 60.7346 117.412 59.8981 118.093 58.8078 118.774 57.7175 119.676 56.2701 120.797 54.4655 121.919 52.6609 123.331 50.3769 125.033 47.6136 126.736 44.8503 128.829 41.4573 131.312 37.4345ZM288.133 37.0207 288.133 38.7965 280.369 40.0294 280.369 42.5933 279.956 42.6483 280.5 42.8662 280.5 40.5367 288.421 39.279 288.421 38.1068 295.261 37.0207ZM312.016 35.0954 312.016 38.5193 307.742 39.0887 307.742 35.7741ZM322.118 34.1036 322.118 37.7692 312.669 39.0277 312.669 35.6038ZM228.421 30.1843 230.684 30.3898 231.131 30.1864 237.665 30.7799C237.625 31.1559 237.455 31.4943 237.154 31.795 236.854 32.0958 236.283 32.3026 235.442 32.4154L235.442 47.1633 235.442 47.1633 235.442 48.6465 235.442 79.8991C235.442 80.1622 235.071 80.5288 234.33 80.9988 233.589 81.4687 232.668 81.8823 231.566 82.2394 230.465 82.5966 229.333 82.7752 228.171 82.7752 227.611 82.7752 227.05 82.7752 226.489 82.7752L226.489 49.8392 199.261 53.4662 199.69 56.9135 199.607 58.2438 207.021 58.2438C208.483 56.9656 209.945 55.6873 211.407 54.409 213.831 56.3264 216.254 58.2438 218.678 60.1612 218.437 60.4244 218.117 60.65 217.716 60.8379 217.316 61.0259 216.775 61.1575 216.094 61.2327 215.774 64.8419 215.333 67.9906 214.772 70.6787 214.211 73.3668 213.51 75.5756 212.669 77.305 211.828 79.0344 210.786 80.2939 209.545 81.0834 208.423 81.7977 207.141 82.3334 205.699 82.6906 204.257 83.0478 202.354 83.2264 199.991 83.2264 200.031 82.1361 199.941 81.1398 199.72 80.2375 199.5 79.3352 199.05 78.6021 198.369 78.0381 197.688 77.399 196.656 76.8256 195.274 76.3181L191.123 75.2231 191.022 75.3211C186.743 78.8536 181.257 80.9755 175.276 80.9755 166.731 80.9755 159.198 76.645 154.749 70.0582L152.726 66.3294 140.089 71.0255 141.046 70.1641 144.58 66.0012 153.325 63.9244 153.652 64.9774 153.785 64.8139 153.307 63.0791 159.449 61.4368 158.902 59.5916 158.891 59.4849 152.353 60.6452 152.397 60.9318 153.325 63.9244 144.58 66.0011 145.252 65.2085C145.893 64.3391 146.508 63.4468 147.096 62.5315L147.925 61.1485 147.551 61.2148 146.774 61.6508C146.408 61.7927 146.011 61.8883 145.583 61.9376L144.188 61.8117 143.788 61.7755 141.905 60.9294 152.188 59.5617 152.238 59.8931 158.843 59.0145 158.68 57.3936 158.787 57.2117C159.871 55.02 160.867 52.7206 161.774 50.3136L163.8 44.0885 165.757 42.4731 166.199 42.3589C166.679 42.2023 167.065 41.9479 167.357 41.5957L167.323 41.569 168.795 40.7694C170.8 39.9213 173.004 39.4522 175.318 39.4522 181.102 39.4522 186.201 42.3836 189.213 46.8422L189.433 47.2482 189.321 48.2455 189.904 47.921 189.088 46.416 189.187 45.5341C189.335 44.0031 189.43 42.7008 189.473 41.6271L194.432 43.4105 195.263 44.9405 196.083 44.4842 195.012 44.099 194.55 43.2477C190.384 37.079 183.328 33.0232 175.325 33.0232 170.524 33.0232 166.063 34.4833 162.363 36.9838L162.03 37.2591 160.747 36.2488 161.435 35.6808C165.386 33.0108 170.149 31.4518 175.276 31.4518 178.48 31.4518 181.543 32.0608 184.353 33.1694L186.204 34.0333 186.171 33.938C192.881 33.938 199.59 33.938 206.3 33.938 207.522 32.7162 208.743 31.4943 209.965 30.2724L215.187 33.9484 206.901 38.467 206.901 35.517 188.8 35.517 189.606 36.0203C192.033 37.7463 194.135 39.8991 195.803 42.3691L196.75 44.1133 206.901 38.467 206.901 41.0976 197.486 45.4702 196.7 45.1819 196.979 45.7058 196.82 45.7795 196.855 45.7923 196.855 45.7922 198.392 46.3447C201.228 46.3447 204.064 46.3447 206.901 46.3447L206.901 41.2185 207.502 40.9448 207.502 38.6751 215.789 34.1565 218.017 35.7251C217.857 35.9131 217.607 36.1105 217.266 36.3173 216.926 36.524 216.475 36.6838 215.914 36.7966L215.914 37.5965 215.313 37.8702 215.313 49.0516C215.313 49.202 214.912 49.4182 214.111 49.7001 213.31 49.9821 212.379 50.2359 211.317 50.4615 210.256 50.687 209.264 50.7998 208.343 50.7998 207.862 50.7998 207.381 50.7998 206.901 50.7998 206.901 49.8411 206.901 48.8824 206.901 47.9237L197.146 47.9237 196.891 47.1011 196.314 46.0387 196.314 46.0387 196.304 46.0194 195.94 46.1884 196.108 46.4984 197.172 49.9269 197.2 49.7514C197.243 49.4507 197.284 49.1628 197.323 48.8879 197.335 48.7998 197.347 48.7116 197.359 48.6235L197.731 48.6235 199.102 52.1954 199.192 52.9193 226.489 48.5849 226.489 48.5849 226.489 48.5849 226.489 32.2999 228.421 31.42ZM115.269 29.9904C118.434 30.1408 120.927 30.5826 122.75 31.3157 124.573 32.0488 125.864 32.9229 126.626 33.938 127.387 34.9531 127.717 35.9588 127.617 36.9551 127.517 37.9514 127.106 38.7973 126.385 39.4928 125.664 40.1884 124.733 40.5925 123.591 40.7053 122.45 40.8181 121.238 40.4797 119.956 39.6902 119.676 38.5623 119.255 37.4251 118.694 36.2784 118.133 35.1317 117.522 34.0414 116.862 33.0075 116.201 31.9736 115.53 31.0619 114.849 30.2724 114.989 30.1784 115.129 30.0844 115.269 29.9904ZM137.381 29.2573C141.427 30.0656 145.473 30.8739 149.518 31.6822 149.478 32.0206 149.318 32.312 149.038 32.5563 148.757 32.8007 148.216 32.9793 147.415 33.0921 146.754 34.8121 145.97 36.5956 145.061 38.4425 144.811 38.9335 144.561 39.4247 144.311 39.9157 147.97 39.9157 151.628 39.9157 155.287 39.9157 156.689 38.5059 158.091 37.0961 159.493 35.6862L161.589 37.3378 158.776 39.6595C157.717 40.7187 156.759 41.8788 155.918 43.1243L154.281 46.1415 155.05 43.5673C155.22 42.8764 155.39 42.1856 155.559 41.4948 151.527 41.4948 147.494 41.4948 143.462 41.4948 143.334 41.7286 143.206 41.9624 143.078 42.1962 142.004 44.0783 140.806 45.9499 139.484 47.8109 139.046 48.399 138.607 48.9872 138.169 49.5753 138.193 49.5787 138.217 49.5821 138.241 49.5856 140.532 49.9486 142.428 50.4755 143.93 51.1664 145.933 52.0875 147.365 53.1307 148.227 54.2962 149.088 55.4617 149.498 56.599 149.458 57.708 149.448 57.9853 149.418 58.2526 149.366 58.5099 149.349 58.5703 149.331 58.6307 149.314 58.6912 149.646 58.0492 149.978 57.4072 150.311 56.7652 150.794 55.7584 151.251 54.7286 151.681 53.6759L152.332 51.9166 152.042 53.82C151.962 54.607 151.921 55.4055 151.921 56.2136 151.921 57.0217 151.962 57.8202 152.042 58.6073L152.188 59.5617 141.905 60.9294 141.827 60.8943C141.547 59.5409 141.066 58.178 140.385 56.8057 139.704 55.4335 138.933 54.127 138.072 52.8864 137.656 52.3328 137.239 51.7791 136.823 51.2255 136.766 51.2951 136.709 51.3647 136.652 51.4342 135.646 52.6091 134.577 53.7511 133.445 54.8601 131.182 57.0783 128.668 59.0333 125.904 60.7251 125.724 60.5935 125.544 60.462 125.364 60.3304 127.046 58.1498 128.548 55.7343 129.87 53.0837 131.192 50.4332 132.354 47.7075 133.355 44.9066 134.357 42.1057 135.188 39.3612 135.849 36.6731 136.51 33.985 137.02 31.5131 137.381 29.2573ZM175.657 28.1255C180.476 28.18 185.325 29.4745 189.708 32.0889L189.06 33.176C177.899 26.5185 163.573 28.8235 155.062 38.6459L154.106 37.8169C159.676 31.3882 167.625 28.0346 175.657 28.1255ZM279.06 25.8729C282.784 26.1538 286.509 26.4346 290.233 26.7155 290.183 27.0612 290.008 27.3636 289.708 27.6229 289.408 27.8821 288.883 28.0765 288.133 28.2062 288.133 30.5394 288.133 32.8727 288.133 35.2059 288.183 35.2059 288.233 35.2059 288.283 35.2059 289.583 33.4344 290.883 31.6628 292.182 29.8913 292.182 29.8913 292.582 30.237 293.382 30.9283 294.182 31.6196 295.132 32.4298 296.232 33.3588 296.782 33.8233 297.294 34.2742 297.769 34.7117 297.981 34.9177 298.194 35.1236 298.406 35.3296 298.406 33.7112 298.406 32.0929 298.406 30.4746 298.406 30.2586 298.406 30.0425 298.406 29.8265 298.406 29.0055 298.406 28.1846 298.406 27.3636 301.756 28.4006 305.105 29.4376 308.454 30.4746 309.154 30.4746 309.854 30.4746 310.554 30.4746 311.979 29.0703 313.403 27.6661 314.828 26.2618 317.753 28.2494 320.677 30.237 323.601 32.2246 323.351 32.4838 322.989 32.7323 322.514 32.9699 322.039 33.2075 321.452 33.3912 320.752 33.5208L320.752 33.617 311.304 35.1173 311.304 32.2894C309.879 32.2894 308.454 32.2894 307.03 32.2894L307.03 35.796 298.694 37.1196 298.694 37.1196 307.03 35.796 307.03 39.1105 298.406 40.2592 298.406 39.6079 292.585 40.3834 291.945 39.8309 291.171 40.5717 289.574 40.7844 289.574 41.6344 290.238 41.581 290.118 43.9371 293.148 41.3473 294.644 41.2272 300.407 46.6954C300.13 46.9519 299.724 47.1679 299.189 47.3435 298.653 47.5191 298.094 47.6371 297.511 47.6975 297.233 53.1405 296.955 58.5836 296.677 64.0267 296.616 64.2039 295.823 64.5017 294.301 64.92 292.778 65.3383 291.098 65.5005 289.259 65.4066 289.154 65.4012 289.049 65.3958 288.944 65.3904 288.828 67.6552 288.712 69.92 288.597 72.1848 290.005 70.392 291.413 68.5991 292.822 66.8064 292.822 66.8064 293.236 67.1996 294.065 67.9861 294.894 68.7727 295.86 69.7128 296.963 70.8065 297.333 71.1829 297.703 71.5593 298.073 71.9357 298.237 71.3089 298.401 70.6821 298.565 70.0553 298.784 69.0827 298.972 68.0959 299.128 67.0948 299.754 63.0901 300.176 58.9512 300.394 54.6777L301.108 40.708 310.231 39.9752 309.939 45.6941C311.437 45.7706 312.934 45.8471 314.431 45.9236L314.754 39.6119 324.75 38.809 322.617 80.5738C322.518 82.5081 322.185 84.1372 321.617 85.4613 321.049 86.7853 319.917 87.7986 318.222 88.5013 316.527 89.2039 313.965 89.603 310.537 89.6984 310.555 88.3012 310.486 87.0799 310.329 86.0346 310.171 84.9892 309.897 84.1634 309.507 83.5571 309.119 82.9058 308.555 82.3359 307.817 81.8471 307.078 81.3583 305.953 80.94 304.444 80.5923 304.459 80.2999 304.473 80.0075 304.488 79.7151 304.488 79.7151 304.777 79.7411 305.354 79.7932 305.93 79.8452 306.612 79.9138 307.397 79.999 308.183 80.0843 308.943 80.157 309.678 80.217 310.412 80.2771 310.937 80.3152 311.252 80.3313 311.83 80.3608 312.216 80.2791 312.41 80.0861 312.604 79.893 312.712 79.5941 312.732 79.1893 313.009 73.7687 313.286 68.3481 313.563 62.9276 311.956 62.8454 310.349 62.7633 308.742 62.6812 308.661 63.3198 308.581 63.9584 308.5 64.5969 308.023 67.7521 307.117 70.7953 305.782 73.7263 304.447 76.6574 302.45 79.3967 299.792 81.9444 297.133 84.4921 293.569 86.7342 289.098 88.6706 288.844 88.4772 288.591 88.2839 288.337 88.0905 291.646 85.1927 294.115 81.9701 295.745 78.4227 296.152 77.5358 296.528 76.6347 296.873 75.7193 296.983 75.3937 297.092 75.0681 297.202 74.7425 294.298 74.5941 291.393 74.4456 288.489 74.2972 288.281 78.3683 288.073 82.4393 287.865 86.5103 287.803 86.6876 287.091 86.9782 285.727 87.3821 284.363 87.786 282.446 87.9248 279.977 87.7987 279.399 87.7691 278.821 87.7396 278.243 87.7101 278.48 83.0767 278.717 78.4433 278.953 73.81 275.223 73.6194 271.493 73.4288 267.763 73.2382 267.585 72.5977 267.407 71.9572 267.229 71.3167 271.169 71.518 275.109 71.7193 279.05 71.9207 279.179 69.3794 279.309 66.8381 279.439 64.2967 279.093 64.4254 278.748 64.5541 278.402 64.6827 277.927 64.8276 277.404 64.9587 276.831 65.076 275.687 65.3107 274.484 65.3958 273.223 65.3314 272.803 65.3099 272.383 65.2884 271.962 65.2669L273.067 43.6346 271.936 43.7852 270.373 43.9935 270.624 43.0482 271.028 41.5126 271.936 41.3684 271.936 41.3684 271.936 41.3684 271.936 40.9094 272.846 41.2239 272.846 41.2239 276.963 42.6473 278.595 42.5162 274.155 40.981 279.06 40.2022 279.06 37.0207C276.435 37.0207 273.811 37.0207 271.186 37.0207 270.986 36.4158 270.787 35.8108 270.587 35.2059 273.411 35.2059 276.235 35.2059 279.06 35.2059 279.06 32.0949 279.06 28.9839 279.06 25.8729ZM256.564 25.7433C260.164 26.2186 262.963 26.9531 264.963 27.947 266.962 28.9407 268.362 30.0209 269.162 31.1876 269.962 32.3542 270.262 33.4668 270.062 34.5254 269.862 35.584 269.324 36.4698 268.449 37.1828 267.575 37.8957 266.487 38.2738 265.188 38.317 263.888 38.3602 262.538 37.9281 261.138 37.0207 260.938 35.7245 260.551 34.4174 259.976 33.0995 259.401 31.7817 258.764 30.5179 258.064 29.308 257.364 28.0982 256.664 27.018 255.964 26.0674 256.164 25.9594 256.364 25.8514 256.564 25.7433ZM67.9922 24.9284C72.4988 25.9577 77.0054 26.9871 81.5119 28.0164 81.3422 28.4412 80.9878 28.8033 80.4486 29.1029 80.0441 29.3276 79.4689 29.4409 78.7228 29.4431 78.5893 29.4373 78.4557 29.4315 78.3221 29.4257 78.2172 29.7375 78.1122 30.0493 78.0073 30.3611 77.7032 31.2608 77.3632 32.259 76.9875 33.3554 76.6117 34.4519 76.2182 35.5962 75.8067 36.7884 75.7424 36.9747 75.678 37.161 75.6136 37.3472 77.8072 37.4483 80.0008 37.5493 82.1945 37.6503 83.9309 35.8054 85.6672 33.9606 87.4035 32.1157 87.4035 32.1157 87.7057 32.3459 88.3101 32.8063 88.9144 33.2667 89.6631 33.8526 90.5562 34.5642 91.4492 35.2757 92.4027 36.0333 93.4166 36.837 94.4306 37.6406 95.3221 38.3846 96.0913 39.0688 95.9097 39.7525 95.1947 40.0656 93.9463 40.0081 87.6292 39.7172 81.312 39.4263 74.995 39.1355 74.8363 39.5931 74.6776 40.0508 74.519 40.5085 73.6247 43.0842 72.7041 45.6911 71.757 48.3292 71.6179 48.7121 71.4787 49.095 71.3397 49.4779 75.8928 49.6875 80.446 49.8972 84.9992 50.1069 86.8423 48.1156 88.6855 46.1242 90.5286 44.1329 90.5286 44.1329 90.8428 44.3745 91.4711 44.8575 92.0994 45.3406 92.9086 45.9727 93.8986 46.7536 94.8885 47.5345 95.9019 48.3489 96.9388 49.1968 97.9757 50.0448 98.9277 50.8348 99.7949 51.5668 99.5633 52.2482 98.8233 52.5601 97.5749 52.5026 88.6134 52.09 79.652 51.6773 70.6906 51.2647 70.5804 51.5678 70.4703 51.8709 70.3602 52.174 69.9026 53.4181 69.453 54.6248 69.0113 55.7939 68.5697 56.9631 68.1536 58.0523 67.7631 59.0616 67.6327 59.3962 67.5023 59.7308 67.3719 60.0655 71.2851 60.2456 75.1982 60.4258 79.1113 60.606 81.2372 58.9954 83.3631 57.3848 85.489 55.7741 88.7316 58.7133 91.9743 61.6525 95.217 64.5917 94.8535 64.8778 94.4441 65.0752 93.9887 65.184 93.5332 65.2928 92.8791 65.3708 92.0262 65.418 91.2224 66.0298 90.3393 66.665 89.3769 67.3236L87.2052 68.7454 78.3649 69.5095 78.1491 70.0927 87.7367 68.8174 86.8132 69.4846 80.889 73.3038 82.2166 73.0682 80.8671 73.8589C81.1399 73.9819 81.4127 74.1047 81.6855 74.2277 82.0155 74.3867 82.332 74.5499 82.6351 74.7173 85.0596 76.0568 86.7593 77.4826 87.7341 78.9949 88.7089 80.5072 89.0839 81.9007 88.8589 83.1753 88.6339 84.45 87.9216 85.4114 86.7218 86.0595 85.5221 86.7077 83.9474 86.8373 81.9977 86.4484 80.648 84.9793 79.0108 83.5103 77.0862 82.0412 75.1616 80.5721 73.062 79.157 70.7874 77.7959L67.5647 76.0737 64.7998 76.5644 61.6181 74.8641C60.4308 74.3024 59.2654 73.7893 58.1219 73.3248L56.9938 72.9065 66.0873 71.697 67.2842 71.7996C68.4433 71.936 69.5416 72.1041 70.5789 72.304 72.1348 72.6037 73.5695 72.9415 74.8829 73.3172 74.9299 73.3315 74.9769 73.3459 75.0239 73.3602L75.4381 72.5141 72.5833 71.7042C71.5477 71.4638 70.4513 71.2615 69.2941 71.0974L68.0992 70.9739 75.9124 69.7215 75.8527 69.7266 77.9036 65.6436C78.3473 64.7016 78.7447 63.8143 79.0958 62.9816 79.1704 62.7985 79.2449 62.6154 79.3195 62.4323 75.2772 62.2461 71.235 62.06 67.1927 61.8739 65.8587 63.1317 64.5247 64.3895 63.1907 65.6473 59.9704 63.8554 56.75 62.0635 53.5296 60.2715 54.1507 59.8243 54.9475 59.3636 55.9202 58.8894 56.0047 58.8531 56.0892 58.8169 56.1736 58.7807 56.3807 58.3275 56.5877 57.8743 56.7947 57.4211 57.2549 56.3934 57.738 55.2748 58.244 54.0654 58.689 52.9612 59.1341 51.8571 59.5791 50.753 55.3156 50.5567 51.052 50.3604 46.7885 50.164 46.6165 49.5505 46.4446 48.9371 46.2727 48.3236 50.9356 48.5383 55.5985 48.753 60.2615 48.9677 60.5965 48.0748 60.9316 47.1819 61.2667 46.289 62.1523 43.7346 63.038 41.1801 63.9237 38.6256 59.8489 38.438 55.7741 38.2504 51.6992 38.0627 51.5273 37.4492 51.3553 36.8358 51.1833 36.2223 55.629 36.427 60.0746 36.6317 64.5202 36.8364 64.6062 36.5734 64.6922 36.3104 64.7782 36.0474 65.4127 34.0856 65.9851 32.2486 66.4956 30.5366 67.1761 28.2538 67.675 26.3844 67.9922 24.9284ZM39.9966 24.8114C45.5312 26.3872 51.0658 27.963 56.6005 29.5388 56.354 29.9612 55.9606 30.2772 55.4199 30.4868 54.8793 30.6964 54.1095 30.7732 53.1105 30.7171 50.6923 35.1185 48.0211 39.0693 45.0967 42.5698 44.6847 43.0372 44.2727 43.5047 43.8607 43.9721 45.1674 44.4274 46.4741 44.8826 47.7808 45.338 47.6527 45.6361 47.3884 45.883 46.9876 46.0786 46.5869 46.2743 45.9667 46.414 45.1269 46.4977L43.5926 73.8509 31.4399 74.629 32.6015 53.9202C31.7348 54.4841 30.8681 55.0479 30.0014 55.6118 28.0985 56.7811 26.1171 57.8642 24.0569 58.8609 23.788 58.6932 23.519 58.5254 23.25 58.3576 23.8003 57.6517 24.3506 56.9456 24.9007 56.2397 26.5431 54.0374 28.1605 51.5822 29.753 48.8741 31.8763 45.2633 33.847 41.393 35.6654 37.2634 37.4838 33.1338 38.9274 28.9831 39.9966 24.8114ZM173.863 23.3016 173.887 23.8466C163.274 24.3185 153.566 29.9668 147.909 38.962L147.448 38.6715C153.2 29.5248 163.071 23.7814 173.863 23.3016Z" fill="#FFFFFF" fill-rule="evenodd"/></g></g><path d="M1684.97 1264.64 1684.97 1284.78 1687.88 1284.27 1687.88 1304.45C1687.68 1305.31 1685.83 1306.6 1682.33 1308.33 1678.83 1310.05 1674.43 1311.61 1669.13 1312.98 1663.83 1314.36 1658.28 1315.05 1652.48 1315.05 1649.78 1315.05 1647.08 1315.05 1644.39 1315.05L1644.39 1293.99 1641.48 1294.5 1641.48 1270.41ZM2092.98 1256.8C2105.44 1278.44 2123.92 1296.03 2146.18 1307.42L2145.19 1309.36C2122.55 1297.77 2103.76 1279.89 2091.08 1257.88ZM1983.21 1255.56 1984.11 1257.46C1985.55 1260.31 1986.79 1263.54 1987.83 1267.14L1988.1 1268.54 1997.4 1268.24 1997.79 1270.35C1998.01 1272.52 1998.08 1274.89 1998 1277.44 1997.84 1283.59 1995.52 1288.58 1991.03 1292.4 1986.55 1296.23 1980.78 1298.14 1973.73 1298.14 1970.69 1298.14 1967.56 1297.28 1964.36 1295.55 1961.15 1293.83 1958.91 1290.72 1957.63 1286.21 1958.51 1282.09 1959.21 1278.09 1959.73 1274.23L1959.94 1271.91 1951.32 1272.18 1951.9 1265.79 1951.91 1262.98ZM1744.14 1249.86C1749.75 1249.9 1755.11 1250.06 1760.24 1250.35L1770.09 1251.2 1733.72 1256.02 1724.77 1252.71C1725.37 1251.85 1725.97 1250.99 1726.57 1250.13 1732.67 1249.91 1738.52 1249.82 1744.14 1249.86ZM2113.8 1248.22C2130.04 1274.71 2156.99 1292.86 2187.68 1297.96 2218.37 1303.06 2249.76 1294.61 2273.72 1274.81L2276.95 1278.7C2251.86 1299.44 2218.98 1308.28 2186.85 1302.94 2154.71 1297.6 2126.49 1278.59 2109.49 1250.86ZM2113.23 1234.46 2105.09 1244.47C2092.52 1257.74 2077.25 1269.15 2059.31 1278.68 2041.36 1288.21 2019.97 1295.75 1995.14 1301.3 1994.58 1300.4 1994.01 1299.5 1993.45 1298.6 2012.36 1289.89 2028.86 1279.99 2042.97 1268.89L2058.84 1254.63ZM2119.81 1228.25 2119.85 1228.38 2120.09 1228.84 2120.09 1228.83ZM1941.52 1227.69C1941.52 1227.69 1942.32 1227.69 1943.93 1227.69L1947.17 1227.69 1941.52 1228.44ZM1959.82 1226.02 1958.35 1227.13C1957.39 1227.51 1955.78 1227.69 1953.54 1227.69 1952.74 1227.69 1951.34 1227.69 1949.33 1227.69L1947.17 1227.69ZM2066.39 1213.44 2073.92 1216.81 2075.52 1216.96 1987.7 1232.51 1986.95 1237.37C1987.11 1240.67 1987.79 1243.67 1988.99 1246.38L1992.05 1252.81 1960.76 1260.22 1960.78 1253.1C1960.64 1250.08 1960.35 1247.35 1959.91 1244.91L1958.12 1239.11 1948.69 1240.78 1947.82 1239.8C1946.05 1238.6 1944.01 1237.66 1941.69 1236.99 1939.36 1236.31 1936.84 1235.9 1934.12 1235.75L1934.12 1232.45 1939.77 1231.7 1941.93 1231.7C1943.93 1231.7 1945.33 1231.7 1946.13 1231.7 1948.38 1231.7 1949.98 1231.51 1950.94 1231.14L1952.41 1230.02 1982.59 1226.02 1981.22 1230.46 1980.93 1232.38 1982.89 1232.03 1983.4 1228.71 1984.77 1224.27ZM2161.55 1201.52 2158.32 1202.09 2159.6 1208.45 2162.78 1207.61ZM2167.2 1200.52 2164.45 1201.01 2165.64 1206.84 2168.33 1206.12ZM2247.13 1188.56 2244.36 1188.93 2245.06 1192.36C2245.06 1214.27 2227.26 1232.03 2205.3 1232.03 2191.58 1232.03 2179.48 1225.09 2172.34 1214.54L2169.51 1209.34 2166.89 1210.44 2169.98 1216.13C2177.64 1227.44 2190.6 1234.87 2205.3 1234.87 2228.83 1234.87 2247.9 1215.84 2247.9 1192.36ZM2629.1 1186.11C2628.59 1196.07 2628.08 1206.04 2627.57 1216 2636.71 1216.47 2645.85 1216.93 2654.99 1217.4 2655.5 1207.43 2656.01 1197.47 2656.52 1187.51 2647.38 1187.04 2638.24 1186.57 2629.1 1186.11ZM2270.66 1185.43 2257.86 1187.13 2257.37 1190.6C2256.91 1193.53 2256.46 1196.19 2256.02 1198.6 2255.96 1198.92 2255.9 1199.24 2255.84 1199.56 2255.52 1199.74 2255.19 1199.91 2254.87 1200.09L2252.87 1201.58 2253.81 1192.36 2252.88 1187.79 2250.06 1188.17 2250.91 1192.36C2250.91 1217.5 2230.49 1237.88 2205.3 1237.88 2189.56 1237.88 2175.68 1229.91 2167.48 1217.81L2164.11 1211.6 2161.12 1212.84 2167.48 1223.29C2176.41 1234.1 2189.94 1240.99 2205.08 1240.99 2225.26 1240.99 2242.58 1228.74 2249.98 1211.29L2251.33 1206.93 2267.99 1215.31 2267.03 1218.4C2256.86 1242.41 2233.03 1259.25 2205.27 1259.25 2180.98 1259.25 2159.7 1246.36 2147.95 1227.05L2144.36 1219.84 2120.57 1229.78 2125.99 1240.35C2142.26 1267.07 2171.69 1284.91 2205.3 1284.91 2250.12 1284.91 2287.51 1253.19 2296.15 1211.01L2296.68 1207.59 2302.83 1207.59 2302.11 1212.27C2298.65 1229.16 2290.87 1244.48 2279.98 1257.03L2271.23 1265.56 2283.29 1266.29C2289.22 1266.67 2294.67 1266.97 2299.64 1267.2 2304.6 1267.42 2308.05 1267.53 2309.97 1267.53 2312.22 1267.53 2313.98 1267.38 2315.26 1267.08 2316.54 1266.78 2317.74 1266.26 2318.86 1265.51 2321.27 1263.86 2323.47 1260.11 2325.47 1254.25 2327.48 1248.4 2329.28 1240.86 2330.88 1231.63 2332.08 1224.71 2333.11 1217.14 2333.95 1208.91 2334.01 1208.19 2334.08 1207.48 2334.15 1206.76L2297.69 1206.76 2298.23 1203.25 2294.6 1203.25 2294.36 1204.85 2288.13 1204.85C2284.47 1209.29 2280.81 1213.73 2277.14 1218.18L2266.71 1212.93 2269.7 1203.31C2270.61 1198.88 2271.09 1194.3 2271.09 1189.61ZM2205.3 1185.15C2209.29 1185.15 2212.52 1188.38 2212.52 1192.36 2212.52 1196.33 2209.29 1199.56 2205.3 1199.56 2201.32 1199.56 2198.09 1196.33 2198.09 1192.36 2198.09 1188.38 2201.32 1185.15 2205.3 1185.15ZM2243.06 1173.06 2240.48 1174.25 2241.93 1176.91 2244.21 1188.17 2246.96 1187.73 2244.55 1175.81ZM2248.42 1170.57 2245.78 1171.8 2247.32 1174.64 2249.88 1187.27 2252.69 1186.83 2249.98 1173.43ZM2265.47 1162.67 2260.8 1164.84 2260 1171.97 2258.02 1185.98 2270.52 1184 2269.7 1175.91C2268.79 1171.49 2267.46 1167.22 2265.73 1163.15ZM2743.37 1157.91C2742.86 1167.97 2742.34 1178.02 2741.83 1188.07 2741.51 1194.36 2741.03 1200.65 2740.39 1206.94 2740.23 1208.18 2740.07 1209.42 2739.92 1210.66 2746.16 1210.98 2752.4 1211.29 2758.64 1211.61 2759.54 1194.02 2760.44 1176.42 2761.34 1158.83 2755.35 1158.52 2749.36 1158.22 2743.37 1157.91ZM2205.3 1154.19C2184.18 1154.19 2167.07 1171.28 2167.07 1192.36L2168.54 1199.66 2182.45 1197.82 2168.66 1200.26 2169.77 1205.74 2192.94 1199.56 2170.91 1208.76 2173.6 1213.69C2180.47 1223.85 2192.1 1230.52 2205.3 1230.52 2226.42 1230.52 2243.54 1213.43 2243.54 1192.36L2242.88 1189.12 2213.85 1192.98 2242.74 1188.4 2240.53 1177.5 2239.11 1174.89 2216.96 1185.15 2238.26 1173.33 2237.01 1171.02C2230.14 1160.87 2218.5 1154.19 2205.3 1154.19ZM2121.12 1152.16 2117.97 1162.69 2113.33 1175.21 2113.59 1173.53C2114.83 1167.44 2116.67 1161.58 2119.04 1155.99ZM2205.3 1149.84C2181.78 1149.84 2162.71 1168.88 2162.71 1192.36L2164.3 1200.23 2167.07 1199.86 2165.55 1192.36C2165.55 1170.44 2183.35 1152.68 2205.3 1152.68 2219.02 1152.68 2231.12 1159.62 2238.27 1170.17L2239.58 1172.6 2242.06 1171.23 2240.62 1168.59C2232.97 1157.28 2220.01 1149.84 2205.3 1149.84ZM2630.99 1149.21C2630.49 1159 2629.99 1168.78 2629.49 1178.57 2638.63 1179.03 2647.77 1179.5 2656.91 1179.97 2657.41 1170.18 2657.91 1160.4 2658.41 1150.61 2649.27 1150.15 2640.13 1149.68 2630.99 1149.21ZM2153.71 1148.23 2145.47 1173.47C2141.79 1183.23 2137.74 1192.56 2133.33 1201.45L2132.9 1202.18 2132.42 1197.4C2132.42 1178.63 2140.04 1161.64 2152.36 1149.34ZM2590.83 1146.01 2588.92 1151.7C2586.7 1158.29 2584.41 1165.1 2582.06 1172.13 2579.71 1179.15 2577.53 1185.88 2575.52 1192.32 2573.5 1198.76 2571.74 1204.43 2570.22 1209.35 2568.71 1214.26 2567.57 1217.99 2566.81 1220.54 2565.76 1224.44 2564.75 1228.48 2563.78 1232.66 2562.81 1236.83 2562.33 1240.47 2562.33 1243.58 2562.41 1248.6 2563.47 1253.33 2565.49 1257.78 2567.51 1262.23 2569.4 1267.14 2571.16 1272.52 2572.92 1277.9 2573.34 1284.63 2572.43 1292.69 2571.79 1299.56 2568.75 1304.9 2563.3 1308.7 2557.84 1312.5 2551.33 1314.16 2543.74 1313.68 2540.35 1313.47 2536.92 1312.26 2533.46 1310.05 2529.99 1307.84 2527.82 1304.12 2526.95 1298.88 2529.54 1289.71 2531.35 1281.01 2532.37 1272.78 2533.4 1264.55 2533.59 1257.53 2532.96 1251.7 2532.33 1245.87 2530.96 1242.2 2528.86 1240.68 2526.95 1239.18 2524.77 1238 2522.32 1237.15 2519.87 1236.31 2517.05 1235.7 2513.87 1235.32 2513.97 1233.77 2514.07 1232.22 2514.17 1230.68 2514.17 1230.68 2515.91 1230.79 2519.4 1231.01 2522.9 1231.23 2525.44 1231.39 2527.04 1231.49 2529.23 1231.63 2530.89 1231.52 2532.02 1231.16 2533.14 1230.8 2534.58 1229.38 2536.35 1226.9 2537.66 1225.08 2538.87 1223.39 2539.98 1221.82 2541.08 1220.24 2542.58 1217.83 2544.49 1214.59 2546.4 1211.34 2549.11 1206.58 2552.61 1200.33 2556.12 1194.07 2560.87 1185.51 2566.87 1174.66 2569.87 1169.24 2573.31 1163.04 2577.18 1156.07L2582.47 1146.58ZM2205.08 1143.72C2178.17 1143.72 2156.35 1165.5 2156.35 1192.36L2158.11 1201.05 2161.37 1200.62 2159.7 1192.36C2159.7 1167.22 2180.11 1146.84 2205.3 1146.84 2221.04 1146.84 2234.92 1154.8 2243.12 1166.91L2244.68 1169.77 2247.22 1168.36 2245.48 1165.17C2236.73 1152.23 2221.9 1143.72 2205.08 1143.72ZM1942.24 1138.34C1954.42 1138.49 1964.08 1139.88 1971.21 1142.5 1978.34 1145.13 1983.42 1148.32 1986.47 1152.07 1989.51 1155.82 1990.91 1159.57 1990.67 1163.32 1990.43 1167.07 1988.95 1170.34 1986.23 1173.11 1983.5 1175.89 1980.02 1177.58 1975.77 1178.18 1971.53 1178.78 1966.92 1177.65 1961.95 1174.8 1960.83 1170.6 1959.11 1166.32 1956.79 1161.97 1954.46 1157.62 1951.9 1153.49 1949.09 1149.59 1946.29 1145.69 1943.45 1142.32 1940.56 1139.46 1941.12 1139.09 1941.68 1138.71 1942.24 1138.34ZM2165.03 1136.36 2157.08 1142.91 2158.82 1137.56C2160.52 1137.32 2162.03 1137.06 2163.37 1136.79ZM2588.11 1133.68 2586.5 1139.81 2585.49 1143.58 2582.35 1144 2582.22 1144.26 2581.46 1145.86 2560.75 1148.61 2560.09 1147.83 2557.14 1148.23 2560.25 1151.84C2562.85 1156.41 2563.65 1160.72 2562.65 1164.77 2561.65 1168.83 2559.4 1172.15 2555.9 1174.73 2552.4 1177.32 2548.15 1178.57 2543.15 1178.48 2538.16 1178.4 2533.06 1176.54 2527.86 1172.92 2527.76 1169.22 2527.27 1165.49 2526.4 1161.74L2523.1 1151.88 2527.28 1151.32 2527.07 1150.7 2524.12 1144.81 2551.46 1140.48 2552.5 1141.17 2581.01 1136.65 2581.96 1134.66ZM2583.95 1130.5C2585.55 1130.76 2587.15 1131.02 2588.75 1131.28L2588.11 1133.68 2581.96 1134.66ZM2514.06 1129.72C2527.46 1131.97 2537.86 1135.07 2545.25 1139.04L2547 1140.2 2519.66 1144.53 2517.32 1139.88C2515.45 1136.64 2513.46 1133.69 2511.36 1131.02 2512.26 1130.59 2513.16 1130.15 2514.06 1129.72ZM2670.63 1129.72 2673.19 1131.93 2667.53 1132.68ZM2029.25 1117.41C2030.37 1117.78 2031.49 1118.16 2032.61 1118.53 2030.05 1124.38 2027.17 1130.99 2023.96 1138.34 2020.76 1145.69 2017.47 1153.23 2014.11 1160.96 2010.74 1168.69 2007.62 1176.08 2004.73 1183.13 2001.85 1190.18 1999.33 1196.45 1997.16 1201.92 1995 1207.4 1993.44 1211.41 1992.48 1213.96L1990 1222.01 1959.82 1226.02 1960.09 1225.81C1960.77 1225.12 1961.55 1224.17 1962.43 1222.97 1963.72 1221.32 1964.88 1219.78 1965.92 1218.35 1966.96 1216.93 1968.28 1215.05 1969.88 1212.73 1971.49 1210.4 1973.65 1207.06 1976.37 1202.71 1979.1 1198.36 1982.7 1192.58 1987.19 1185.38 1991.68 1178.18 1997.32 1169.06 2004.13 1158.03 2010.94 1147 2019.31 1133.46 2029.25 1117.41ZM2656.53 1115.76 2656.53 1122.84 2625.48 1127.76 2625.48 1138 2623.83 1138.22 2626 1139.09 2626 1129.79 2657.68 1124.77 2657.68 1120.09 2685.04 1115.76ZM2752.06 1108.07 2752.06 1121.74 2734.97 1124.01 2734.97 1110.78ZM2792.47 1104.11 2792.47 1118.74 2754.68 1123.77 2754.68 1110.1ZM2417.69 1088.47 2426.74 1089.29 2428.52 1088.48 2454.66 1090.85C2454.5 1092.35 2453.82 1093.7 2452.62 1094.9 2451.42 1096.1 2449.13 1096.92 2445.77 1097.37L2445.77 1156.24 2445.77 1156.24 2445.77 1162.16 2445.77 1286.89C2445.77 1287.94 2444.29 1289.4 2441.32 1291.28 2438.36 1293.15 2434.67 1294.8 2430.26 1296.23 2425.86 1297.66 2421.33 1298.37 2416.69 1298.37 2414.44 1298.37 2412.2 1298.37 2409.96 1298.37L2409.96 1166.92 2301.04 1181.39 2302.76 1195.15 2302.43 1200.46 2332.08 1200.46C2337.93 1195.36 2343.78 1190.26 2349.63 1185.15 2359.32 1192.81 2369.02 1200.46 2378.71 1208.11 2377.75 1209.16 2376.47 1210.06 2374.87 1210.81 2373.26 1211.56 2371.1 1212.09 2368.38 1212.39 2367.09 1226.79 2365.33 1239.36 2363.09 1250.09 2360.85 1260.82 2358.04 1269.63 2354.68 1276.54 2351.31 1283.44 2347.15 1288.46 2342.18 1291.62 2337.69 1294.47 2332.56 1296.61 2326.8 1298.03 2321.03 1299.46 2313.42 1300.17 2303.96 1300.17 2304.12 1295.82 2303.76 1291.84 2302.88 1288.24 2302 1284.64 2300.2 1281.71 2297.47 1279.46 2294.75 1276.91 2290.62 1274.62 2285.1 1272.6L2268.49 1268.23 2268.09 1268.62C2250.97 1282.72 2229.03 1291.19 2205.1 1291.19 2170.92 1291.19 2140.79 1273.9 2123 1247.61L2114.9 1232.73 2064.36 1251.47 2068.18 1248.04 2082.32 1231.42 2117.3 1223.13 2118.61 1227.33 2119.14 1226.68 2117.23 1219.76 2141.8 1213.2 2139.61 1205.84 2139.56 1205.41 2113.41 1210.04 2113.59 1211.19 2117.3 1223.13 2082.32 1231.42 2085.01 1228.26C2087.57 1224.79 2090.03 1221.23 2092.38 1217.57L2095.7 1212.05 2094.2 1212.32 2091.1 1214.06C2089.63 1214.62 2088.04 1215.01 2086.33 1215.2L2080.75 1214.7 2079.15 1214.56 2071.62 1211.18 2112.75 1205.72 2112.95 1207.04 2139.37 1203.54 2138.72 1197.07 2139.15 1196.34C2143.49 1187.59 2147.47 1178.42 2151.1 1168.81L2159.2 1143.96 2167.03 1137.52 2168.8 1137.06C2170.72 1136.44 2172.26 1135.42 2173.43 1134.01L2173.29 1133.91 2179.18 1130.72C2187.2 1127.33 2196.02 1125.46 2205.27 1125.46 2228.41 1125.46 2248.81 1137.16 2260.85 1154.95L2261.73 1156.57 2261.28 1160.55 2263.62 1159.26 2260.35 1153.25 2260.75 1149.73C2261.34 1143.62 2261.72 1138.43 2261.89 1134.14L2281.73 1141.26 2285.05 1147.36 2288.33 1145.54 2284.05 1144.01 2282.2 1140.61C2265.53 1115.99 2237.31 1099.8 2205.3 1099.8 2186.1 1099.8 2168.25 1105.63 2153.45 1115.61L2152.12 1116.71 2146.99 1112.67 2149.74 1110.41C2165.55 1099.75 2184.6 1093.53 2205.1 1093.53 2217.92 1093.53 2230.17 1095.96 2241.41 1100.38L2248.81 1103.83 2248.68 1103.45C2275.52 1103.45 2302.36 1103.45 2329.2 1103.45 2334.09 1098.58 2338.97 1093.7 2343.86 1088.82L2364.75 1103.49 2331.6 1121.53 2331.6 1109.75 2259.2 1109.75 2262.43 1111.76C2272.13 1118.65 2280.54 1127.24 2287.21 1137.1L2291 1144.06 2331.6 1121.53 2331.6 1132.03 2293.94 1149.48 2290.8 1148.33 2291.92 1150.42 2291.28 1150.71 2291.42 1150.76 2291.42 1150.76 2297.57 1152.97C2308.91 1152.97 2320.26 1152.97 2331.6 1152.97L2331.6 1132.51 2334.01 1131.42 2334.01 1122.36 2367.15 1104.32 2376.07 1110.58C2375.43 1111.33 2374.43 1112.12 2373.06 1112.95 2371.7 1113.77 2369.9 1114.41 2367.66 1114.86L2367.66 1118.05 2365.25 1119.15 2365.25 1163.77C2365.25 1164.37 2363.65 1165.24 2360.44 1166.36 2357.24 1167.49 2353.51 1168.5 2349.27 1169.4 2345.02 1170.3 2341.06 1170.75 2337.37 1170.75 2335.45 1170.75 2333.53 1170.75 2331.6 1170.75 2331.6 1166.92 2331.6 1163.1 2331.6 1159.27L2292.58 1159.27 2291.56 1155.99 2289.26 1151.75 2289.26 1151.75 2289.21 1151.67 2287.76 1152.34 2288.43 1153.58 2292.69 1167.27 2292.8 1166.57C2292.97 1165.37 2293.14 1164.22 2293.29 1163.12 2293.34 1162.77 2293.39 1162.42 2293.44 1162.06L2294.92 1162.06 2300.41 1176.32 2300.77 1179.21 2409.96 1161.91 2409.96 1161.91 2409.96 1161.91 2409.96 1096.91 2417.69 1093.4ZM1965.08 1087.7C1977.73 1088.3 1987.71 1090.06 1995 1092.99 2002.29 1095.91 2007.46 1099.4 2010.5 1103.45 2013.55 1107.5 2014.87 1111.52 2014.47 1115.49 2014.07 1119.47 2012.42 1122.85 2009.54 1125.62 2006.66 1128.4 2002.93 1130.01 1998.36 1130.46 1993.8 1130.91 1988.95 1129.56 1983.82 1126.41 1982.7 1121.91 1981.02 1117.37 1978.78 1112.79 1976.53 1108.22 1974.09 1103.86 1971.45 1099.74 1968.8 1095.61 1966.12 1091.97 1963.39 1088.82 1963.96 1088.45 1964.52 1088.07 1965.08 1087.7ZM2053.52 1084.77C2069.71 1088 2085.89 1091.22 2102.07 1094.45 2101.91 1095.8 2101.27 1096.96 2100.15 1097.94 2099.03 1098.91 2096.87 1099.63 2093.66 1100.08 2091.02 1106.94 2087.88 1114.06 2084.24 1121.43 2083.24 1123.39 2082.24 1125.35 2081.25 1127.31 2095.88 1127.31 2110.51 1127.31 2125.15 1127.31 2130.75 1121.68 2136.36 1116.06 2141.97 1110.43L2150.36 1117.02 2139.1 1126.29C2134.87 1130.51 2131.04 1135.14 2127.67 1140.12L2121.12 1152.16 2124.2 1141.88C2124.88 1139.13 2125.56 1136.37 2126.24 1133.61 2110.11 1133.61 2093.98 1133.61 2077.85 1133.61 2077.34 1134.55 2076.82 1135.48 2076.31 1136.41 2072.02 1143.92 2067.22 1151.39 2061.94 1158.82 2060.18 1161.17 2058.43 1163.52 2056.68 1165.86 2056.77 1165.88 2056.87 1165.89 2056.96 1165.9 2066.13 1167.35 2073.71 1169.46 2079.72 1172.21 2087.73 1175.89 2093.46 1180.05 2096.91 1184.7 2100.35 1189.36 2101.99 1193.9 2101.83 1198.32 2101.79 1199.43 2101.67 1200.49 2101.47 1201.52 2101.39 1201.76 2101.32 1202 2101.25 1202.25 2102.58 1199.68 2103.91 1197.12 2105.24 1194.56 2107.18 1190.54 2109 1186.43 2110.73 1182.23L2113.33 1175.21 2112.17 1182.8C2111.85 1185.94 2111.68 1189.13 2111.68 1192.36 2111.68 1195.58 2111.85 1198.77 2112.17 1201.91L2112.75 1205.72 2071.62 1211.18 2071.31 1211.04C2070.19 1205.64 2068.26 1200.2 2065.54 1194.72 2062.82 1189.24 2059.73 1184.03 2056.29 1179.08 2054.62 1176.87 2052.96 1174.66 2051.29 1172.45 2051.07 1172.73 2050.84 1173 2050.61 1173.28 2046.58 1177.97 2042.31 1182.53 2037.78 1186.96 2028.73 1195.81 2018.67 1203.61 2007.62 1210.36 2006.9 1209.84 2006.18 1209.31 2005.45 1208.79 2012.18 1200.08 2018.19 1190.44 2023.48 1179.87 2028.77 1169.29 2033.41 1158.41 2037.42 1147.23 2041.43 1136.05 2044.75 1125.1 2047.4 1114.37 2050.04 1103.64 2052.08 1093.77 2053.52 1084.77ZM2206.63 1080.25C2225.91 1080.47 2245.3 1085.64 2262.83 1096.07L2260.24 1100.41C2215.6 1073.84 2158.29 1083.04 2124.25 1122.24L2120.42 1118.93C2142.7 1093.28 2174.5 1079.89 2206.63 1080.25ZM2620.24 1071.26C2635.14 1072.38 2650.03 1073.5 2664.93 1074.63 2664.73 1076.01 2664.03 1077.21 2662.83 1078.25 2661.63 1079.28 2659.53 1080.06 2656.53 1080.58 2656.53 1089.89 2656.53 1099.2 2656.53 1108.51 2656.73 1108.51 2656.93 1108.51 2657.13 1108.51 2662.33 1101.44 2667.53 1094.37 2672.73 1087.3 2672.73 1087.3 2674.33 1088.68 2677.53 1091.44 2680.73 1094.2 2684.53 1097.43 2688.93 1101.14 2691.13 1102.99 2693.18 1104.79 2695.08 1106.54 2695.93 1107.36 2696.78 1108.18 2697.62 1109.01 2697.62 1102.55 2697.62 1096.09 2697.62 1089.63 2697.62 1088.77 2697.62 1087.9 2697.62 1087.04 2697.62 1083.77 2697.62 1080.49 2697.62 1077.21 2711.02 1081.35 2724.42 1085.49 2737.82 1089.63 2740.62 1089.63 2743.42 1089.63 2746.22 1089.63 2751.91 1084.02 2757.61 1078.42 2763.31 1072.81 2775.01 1080.75 2786.71 1088.68 2798.41 1096.61 2797.41 1097.65 2795.96 1098.64 2794.06 1099.59 2792.16 1100.54 2789.81 1101.27 2787.01 1101.79L2787.01 1102.17 2749.21 1108.16 2749.21 1096.87C2743.52 1096.87 2737.82 1096.87 2732.12 1096.87L2732.12 1110.87 2698.78 1116.15 2698.78 1116.15 2732.12 1110.87 2732.12 1124.1 2697.62 1128.68 2697.62 1126.08 2674.34 1129.18 2671.78 1126.97 2668.68 1129.93 2662.29 1130.78 2662.29 1134.17 2664.95 1133.96 2664.47 1143.36 2676.59 1133.02 2682.57 1132.54 2705.63 1154.37C2704.52 1155.39 2702.9 1156.25 2700.75 1156.96 2698.61 1157.66 2696.38 1158.13 2694.04 1158.37 2692.93 1180.09 2691.82 1201.82 2690.71 1223.54 2690.46 1224.25 2687.29 1225.44 2681.2 1227.11 2675.11 1228.78 2668.39 1229.42 2661.04 1229.05 2660.61 1229.03 2660.19 1229 2659.77 1228.98 2659.31 1238.02 2658.85 1247.06 2658.39 1256.1 2664.02 1248.94 2669.65 1241.79 2675.29 1234.63 2675.29 1234.63 2676.95 1236.2 2680.26 1239.34 2683.58 1242.48 2687.44 1246.23 2691.85 1250.6 2693.33 1252.1 2694.81 1253.6 2696.29 1255.11 2696.95 1252.6 2697.6 1250.1 2698.26 1247.6 2699.14 1243.72 2699.89 1239.78 2700.51 1235.79 2703.02 1219.8 2704.7 1203.28 2705.58 1186.23L2708.43 1130.47 2744.93 1127.55 2743.76 1150.37C2749.75 1150.68 2755.74 1150.98 2761.73 1151.29L2763.01 1126.1 2803 1122.89 2794.47 1289.58C2794.07 1297.3 2792.74 1303.8 2790.47 1309.09 2788.2 1314.37 2783.67 1318.42 2776.89 1321.22 2770.11 1324.03 2759.86 1325.62 2746.15 1326 2746.22 1320.42 2745.94 1315.55 2745.31 1311.38 2744.69 1307.2 2743.59 1303.91 2742.03 1301.49 2740.48 1298.89 2738.22 1296.61 2735.27 1294.66 2732.31 1292.71 2727.81 1291.04 2721.77 1289.66 2721.83 1288.49 2721.89 1287.32 2721.95 1286.16 2721.95 1286.16 2723.11 1286.26 2725.41 1286.47 2727.72 1286.67 2730.45 1286.95 2733.59 1287.29 2736.73 1287.63 2739.77 1287.92 2742.71 1288.16 2745.65 1288.4 2747.75 1288.55 2749.01 1288.61 2751.32 1288.73 2752.86 1288.41 2753.64 1287.64 2754.42 1286.86 2754.85 1285.67 2754.93 1284.06 2756.04 1262.42 2757.14 1240.79 2758.25 1219.15 2751.82 1218.83 2745.4 1218.5 2738.97 1218.17 2738.64 1220.72 2738.32 1223.27 2738 1225.82 2736.09 1238.41 2732.47 1250.55 2727.13 1262.25 2721.79 1273.95 2713.8 1284.88 2703.17 1295.05 2692.53 1305.22 2678.27 1314.17 2660.39 1321.9 2659.38 1321.13 2658.36 1320.35 2657.35 1319.58 2670.58 1308.02 2680.46 1295.16 2686.98 1281 2688.61 1277.46 2690.11 1273.86 2691.49 1270.21 2691.93 1268.91 2692.37 1267.61 2692.81 1266.31 2681.19 1265.72 2669.57 1265.12 2657.96 1264.53 2657.12 1280.78 2656.29 1297.03 2655.46 1313.28 2655.21 1313.98 2652.36 1315.14 2646.91 1316.76 2641.45 1318.37 2633.79 1318.92 2623.91 1318.42 2621.6 1318.3 2619.29 1318.18 2616.97 1318.06 2617.92 1299.57 2618.87 1281.08 2619.81 1262.59 2604.89 1261.83 2589.97 1261.07 2575.05 1260.3 2574.34 1257.75 2573.63 1255.19 2572.92 1252.64 2588.68 1253.44 2604.44 1254.24 2620.2 1255.05 2620.72 1244.9 2621.24 1234.76 2621.76 1224.62 2620.37 1225.13 2618.99 1225.65 2617.61 1226.16 2615.71 1226.74 2613.61 1227.26 2611.33 1227.73 2606.75 1228.66 2601.94 1229 2596.89 1228.75 2595.21 1228.66 2593.53 1228.58 2591.85 1228.49L2596.27 1142.15 2591.75 1142.75 2585.49 1143.58 2586.5 1139.81 2588.11 1133.68 2591.75 1133.11 2591.75 1133.11 2591.75 1133.11 2591.75 1131.28 2595.38 1132.53 2595.38 1132.53 2611.85 1138.21 2618.38 1137.69 2600.62 1131.56 2620.24 1128.45 2620.24 1115.76C2609.74 1115.76 2599.24 1115.76 2588.75 1115.76 2587.95 1113.34 2587.15 1110.93 2586.35 1108.51 2597.64 1108.51 2608.94 1108.51 2620.24 1108.51 2620.24 1096.1 2620.24 1083.68 2620.24 1071.26ZM2530.26 1070.75C2544.65 1072.64 2555.85 1075.57 2563.85 1079.54 2571.85 1083.51 2577.45 1087.82 2580.65 1092.47 2583.85 1097.13 2585.05 1101.57 2584.25 1105.8 2583.45 1110.02 2581.3 1113.56 2577.8 1116.4 2574.3 1119.25 2569.95 1120.76 2564.75 1120.93 2559.55 1121.1 2554.15 1119.38 2548.55 1115.76 2547.75 1110.58 2546.2 1105.37 2543.9 1100.11 2541.6 1094.85 2539.06 1089.8 2536.26 1084.97 2533.46 1080.14 2530.66 1075.83 2527.86 1072.04 2528.66 1071.61 2529.46 1071.18 2530.26 1070.75ZM1775.97 1067.49C1794 1071.6 1812.02 1075.71 1830.05 1079.82 1829.37 1081.51 1827.95 1082.96 1825.79 1084.15 1824.18 1085.05 1821.88 1085.5 1818.89 1085.51 1818.36 1085.49 1817.82 1085.47 1817.29 1085.44 1816.87 1086.69 1816.45 1087.93 1816.03 1089.18 1814.81 1092.77 1813.45 1096.75 1811.95 1101.13 1810.45 1105.5 1808.87 1110.07 1807.23 1114.83 1806.97 1115.57 1806.71 1116.31 1806.45 1117.06 1815.23 1117.46 1824 1117.86 1832.78 1118.27 1839.72 1110.9 1846.67 1103.54 1853.61 1096.18 1853.61 1096.18 1854.82 1097.1 1857.24 1098.93 1859.66 1100.77 1862.65 1103.11 1866.22 1105.95 1869.8 1108.79 1873.61 1111.81 1877.67 1115.02 1881.72 1118.23 1885.29 1121.2 1888.37 1123.93 1887.64 1126.66 1884.78 1127.91 1879.79 1127.68 1854.52 1126.52 1829.25 1125.36 1803.98 1124.2 1803.35 1126.02 1802.71 1127.85 1802.08 1129.68 1798.5 1139.96 1794.82 1150.36 1791.03 1160.89 1790.47 1162.42 1789.92 1163.95 1789.36 1165.47 1807.57 1166.31 1825.78 1167.15 1844 1167.98 1851.37 1160.04 1858.74 1152.09 1866.11 1144.14 1866.11 1144.14 1867.37 1145.11 1869.88 1147.03 1872.4 1148.96 1875.63 1151.48 1879.59 1154.6 1883.55 1157.72 1887.61 1160.97 1891.76 1164.35 1895.9 1167.74 1899.71 1170.89 1903.18 1173.81 1902.25 1176.53 1899.29 1177.78 1894.3 1177.55 1858.45 1175.9 1822.61 1174.25 1786.76 1172.61 1786.32 1173.81 1785.88 1175.02 1785.44 1176.23 1783.61 1181.2 1781.81 1186.02 1780.05 1190.68 1778.28 1195.35 1776.61 1199.7 1775.05 1203.72 1774.53 1205.06 1774.01 1206.39 1773.49 1207.73 1789.14 1208.45 1804.79 1209.17 1820.45 1209.89 1828.95 1203.46 1837.45 1197.03 1845.96 1190.6 1858.93 1202.33 1871.9 1214.06 1884.87 1225.8 1883.41 1226.94 1881.78 1227.72 1879.95 1228.16 1878.13 1228.59 1875.52 1228.9 1872.1 1229.09 1868.89 1231.54 1865.36 1234.07 1861.51 1236.7L1852.82 1242.37 1817.46 1245.42 1816.6 1247.75 1854.95 1242.66 1851.25 1245.32 1827.56 1260.57 1832.87 1259.63 1827.47 1262.78C1828.56 1263.27 1829.65 1263.76 1830.74 1264.25 1832.06 1264.89 1833.33 1265.54 1834.54 1266.21 1844.24 1271.55 1851.04 1277.24 1854.94 1283.28 1858.84 1289.32 1860.34 1294.88 1859.44 1299.97 1858.54 1305.05 1855.69 1308.89 1850.89 1311.48 1846.09 1314.06 1839.79 1314.58 1831.99 1313.03 1826.59 1307.17 1820.04 1301.3 1812.34 1295.44 1804.65 1289.58 1796.25 1283.93 1787.15 1278.5L1774.26 1271.62 1763.2 1273.58 1750.47 1266.79C1745.72 1264.55 1741.06 1262.5 1736.49 1260.65L1731.98 1258.98 1768.35 1254.15 1773.14 1254.56C1777.77 1255.11 1782.17 1255.78 1786.32 1256.58 1792.54 1257.77 1798.28 1259.12 1803.53 1260.62 1803.72 1260.68 1803.91 1260.73 1804.1 1260.79L1805.75 1257.41 1794.33 1254.18C1790.19 1253.22 1785.81 1252.42 1781.18 1251.76L1776.4 1251.27 1807.65 1246.27 1807.41 1246.29 1815.61 1229.99C1817.39 1226.23 1818.98 1222.69 1820.38 1219.37 1820.68 1218.64 1820.98 1217.91 1821.28 1217.18 1805.11 1216.43 1788.94 1215.69 1772.77 1214.95 1767.43 1219.97 1762.1 1224.99 1756.76 1230.01 1743.88 1222.86 1731 1215.7 1718.12 1208.55 1720.6 1206.77 1723.79 1204.93 1727.68 1203.04 1728.02 1202.89 1728.36 1202.75 1728.69 1202.6 1729.52 1200.79 1730.35 1198.99 1731.18 1197.18 1733.02 1193.07 1734.95 1188.61 1736.98 1183.78 1738.76 1179.38 1740.54 1174.97 1742.32 1170.56 1725.26 1169.78 1708.21 1169 1691.15 1168.21 1690.47 1165.76 1689.78 1163.32 1689.09 1160.87 1707.74 1161.72 1726.39 1162.58 1745.05 1163.44 1746.39 1159.87 1747.73 1156.31 1749.07 1152.75 1752.61 1142.55 1756.15 1132.36 1759.69 1122.16 1743.4 1121.41 1727.1 1120.66 1710.8 1119.91 1710.11 1117.47 1709.42 1115.02 1708.73 1112.57 1726.52 1113.39 1744.3 1114.2 1762.08 1115.02 1762.42 1113.97 1762.77 1112.92 1763.11 1111.87 1765.65 1104.04 1767.94 1096.71 1769.98 1089.88 1772.7 1080.77 1774.7 1073.3 1775.97 1067.49ZM1663.99 1067.03C1686.12 1073.32 1708.26 1079.6 1730.4 1085.89 1729.42 1087.58 1727.84 1088.84 1725.68 1089.68 1723.52 1090.51 1720.44 1090.82 1716.44 1090.6 1706.77 1108.16 1696.08 1123.93 1684.39 1137.9 1682.74 1139.77 1681.09 1141.63 1679.44 1143.5 1684.67 1145.32 1689.9 1147.13 1695.12 1148.95 1694.61 1150.14 1693.55 1151.13 1691.95 1151.91 1690.35 1152.69 1687.87 1153.25 1684.51 1153.58L1678.37 1262.75 1629.76 1265.86 1634.41 1183.2C1630.94 1185.45 1627.47 1187.7 1624.01 1189.96 1616.39 1194.62 1608.47 1198.94 1600.23 1202.92 1599.15 1202.25 1598.08 1201.58 1597 1200.91 1599.2 1198.1 1601.4 1195.28 1603.6 1192.46 1610.17 1183.67 1616.64 1173.87 1623.01 1163.06 1631.51 1148.65 1639.39 1133.21 1646.66 1116.72 1653.94 1100.24 1659.71 1083.68 1663.99 1067.03ZM2199.45 1061 2199.55 1063.18C2157.09 1065.06 2118.26 1087.6 2095.64 1123.5L2093.79 1122.34C2116.8 1085.84 2156.28 1062.92 2199.45 1061Z" fill="#FFFFFF" fill-rule="evenodd"/></g></svg>