<?xml version="1.0" encoding="utf-8"?><svg width="2480" height="892" xmlns="http://www.w3.org/2000/svg" xmlns:xlink="http://www.w3.org/1999/xlink" xml:space="preserve" overflow="hidden"><g transform="translate(-960 -790)"><path d="M1694.91 1331.29 1694.91 1392 1418.74 1392 1374.13 1333.81ZM1694.91 1211.61 1694.91 1272.33 1214.72 1272.33 1137.17 1214.14ZM1696 1080 1696 1152.66 1062.34 1152.66 960 1083.03Z" fill="#404040" fill-rule="evenodd"/><path d="M734.912 251.286 734.912 312 458.737 312 414.133 253.814ZM734.913 131.614 734.913 192.327 254.725 192.327 177.172 134.142ZM736 0 736 72.6565 102.34 72.6565 0 3.02514Z" fill="#404040" fill-rule="evenodd" transform="matrix(-1 0 0 1 3440 1083)"/><path d="M1820 1236C1820 1026.13 1990.13 856 2200 856 2409.87 856 2580 1026.13 2580 1236 2580 1445.87 2409.87 1616 2200 1616 1990.13 1616 1820 1445.87 1820 1236Z" fill-rule="evenodd"/><path d="M2240.24 1280.03C2239.78 1276.98 2234.71 1278.81 2237.17 1282.68 2239.5 1286.57 2241.16 1283.52 2240.24 1280.03Z" stroke="#000000" stroke-width="0.859285" stroke-miterlimit="8" fill="#262626" fill-rule="evenodd"/><path d="M2188.96 1167.5C2187.1 1168.49 2187 1179.65 2188.75 1179.5 2189.75 1175.75 2189.68 1171.64 2188.96 1167.5Z" stroke="#000000" stroke-width="0.859285" stroke-miterlimit="8" fill="#262626" fill-rule="evenodd"/><path d="M2192.29 1159.53C2191.32 1159.53 2184.76 1162.11 2185.57 1163.11 2187.12 1165.08 2188.46 1165.53 2189.4 1165.5 2190.88 1164.94 2193.21 1159.5 2192.29 1159.5Z" stroke="#000000" stroke-width="0.859285" stroke-miterlimit="8" fill="#262626" fill-rule="evenodd"/><path d="M2325.38 1182.37C2328.24 1181.73 2325.03 1178.4 2322.54 1178.5 2320.06 1178.6 2318.95 1181.53 2319.76 1181.48 2320.54 1181.41 2324.16 1182.96 2325.4 1182.37Z" stroke="#000000" stroke-width="0.859285" stroke-miterlimit="8" fill="#262626" fill-rule="evenodd"/><path d="M2245.55 1108.8C2242.06 1110.1 2240.33 1115.42 2240.38 1115.4 2239.98 1116.72 2240.65 1118.16 2241.93 1118.81 2243.66 1120.41 2244.08 1123.1 2240.17 1124.81 2237.83 1125.84 2237.88 1127.6 2240.76 1127.5 2243.34 1126.95 2244.64 1125.82 2245.97 1124.7 2247.3 1123.59 2248.42 1122.02 2247.68 1120.57 2246.93 1119.12 2242.73 1118.47 2243.92 1116.87 2245.12 1115.24 2248.32 1115.76 2249.81 1114.65 2251.3 1113.54 2251.75 1112.24 2251.38 1111.26 2250.98 1110.28 2249.01 1107.56 2245.55 1108.83Z" stroke="#000000" stroke-width="0.859285" stroke-miterlimit="8" fill="#262626" fill-rule="evenodd"/><path d="M2134.47 1327.08C2133.85 1323.73 2132.31 1320.66 2130.02 1317.83 2128.09 1315.49 2124.36 1314.3 2123.66 1314.53 2122.93 1314.76 2124.83 1315.98 2127.49 1318.11 2129.42 1320.5 2129.81 1323.36 2130.82 1325.99 2131.19 1326.45 2134.45 1328.3 2134.5 1327.1Z" stroke="#000000" stroke-width="0.859285" stroke-miterlimit="8" fill="#262626" fill-rule="evenodd"/><path d="M2278.74 1009.5C2281.49 1009.55 2284.27 1005.14 2281.07 1003.13 2277.85 1001.12 2268.58 1004.47 2269.57 1005.61 2272.1 1007.06 2274.33 1009.17 2278.74 1009.5Z" stroke="#000000" stroke-width="0.859285" stroke-miterlimit="8" fill="#262626" fill-rule="evenodd"/><path d="M2142.15 1335.46C2141.51 1334.57 2138.79 1331.02 2136.55 1330.62 2134.33 1330.25 2135.36 1331.59 2134.57 1331.84 2133.8 1332.09 2132.4 1330.28 2131.63 1330.52 2130.84 1330.77 2133.69 1333.25 2136.6 1334.54 2139.51 1335.83 2143.76 1337.69 2142.15 1335.46Z" stroke="#000000" stroke-width="0.859285" stroke-miterlimit="8" fill="#262626" fill-rule="evenodd"/><path d="M2186.7 1303.23C2187.63 1304.09 2192.63 1304.82 2193.17 1304.35 2194.34 1303.42 2192.15 1300.42 2190.19 1299.61 2188.23 1298.83 2185.79 1302.4 2186.7 1303.23Z" stroke="#000000" stroke-width="0.859285" stroke-miterlimit="8" fill="#262626" fill-rule="evenodd"/><path d="M2306.19 1107.87C2304.35 1105.75 2294.75 1098.62 2292.87 1099.59 2290.9 1100.48 2297.42 1104.46 2299.15 1106.51 2300.86 1108.52 2298.45 1107.71 2299.82 1108.65 2300.11 1109.7 2307.84 1116.09 2309.55 1117.67 2311.18 1119.18 2314.7 1125.1 2316.59 1124.45 2318.45 1123.79 2317.15 1120.47 2315.47 1118.9 2312.94 1115.12 2309.32 1110.91 2306.16 1107.87Z" stroke="#000000" stroke-width="0.859285" stroke-miterlimit="8" fill="#262626" fill-rule="evenodd"/><path d="M2165.54 998.125C2166.64 1000.51 2170.3 1007.87 2171.61 1006.28 2172.9 1004.76 2173.28 1002.32 2172.51 1002.5 2169.4 998.518 2177.61 989.085 2176.37 984.158 2173.03 982.219 2167.65 984.577 2162.21 991.076 2154.96 1000.61 2164.43 995.845 2165.54 998.125Z" stroke="#000000" stroke-width="0.859285" stroke-miterlimit="8" fill="#262626" fill-rule="evenodd"/><path d="M2219.12 1270.22C2217.62 1269.87 2217.19 1271.37 2217.71 1271.8 2218.23 1272.24 2218.78 1273.65 2220.74 1273.49 2222.7 1273.32 2224.61 1271.23 2224.5 1269.3 2224.44 1268.32 2223.4 1267.42 2222.42 1267.51 2220.97 1268.1 2220.6 1270.58 2219.1 1270.22Z" stroke="#000000" stroke-width="0.859285" stroke-miterlimit="8" fill="#262626" fill-rule="evenodd"/><path d="M2200.42 977.614C2204.36 976.717 2221.56 971.996 2218.03 967.907 2213.57 963.871 2186.45 968.54 2181.34 981.624 2176.19 994.285 2196.22 978.379 2200.42 977.614Z" stroke="#000000" stroke-width="0.859285" stroke-miterlimit="8" fill="#262626" fill-rule="evenodd"/><path d="M2181.41 1250.3C2182.61 1248.83 2181.61 1248.02 2181.99 1247.51 2182.4 1247.02 2182.99 1248.31 2184.19 1246.81 2185.37 1245.31 2183.07 1241.01 2179.49 1245.46 2176.71 1248.9 2180.59 1251.26 2181.38 1250.28Z" stroke="#000000" stroke-width="0.859285" stroke-miterlimit="8" fill="#262626" fill-rule="evenodd"/><path d="M2190.21 1247.32C2187.72 1249.45 2189.62 1250.13 2188.03 1252.16 2186.09 1255.56 2185.61 1251.04 2183.8 1251.24 2182.9 1251.35 2184.19 1254.83 2185.27 1256.55 2186.27 1257.36 2188.26 1258.97 2189.6 1258.37 2192.53 1255.48 2195.41 1252.54 2198.27 1249.58 2199.87 1247.55 2192.74 1245.21 2190.24 1247.34Z" stroke="#000000" stroke-width="0.859285" stroke-miterlimit="8" fill="#262626" fill-rule="evenodd"/><path d="M2376.42 991.044C2337.24 970.668 2324.88 947.524 2300.51 927.097 2277.86 907.061 2243.22 889.742 2199 890.526 2155.43 890.683 2102.24 908.942 2057.44 945.069 2012.22 979.498 1975.39 1031.79 1955.04 1060.58 1934.69 1099.76 1911.55 1112.2 1891.1 1136.62 1871.06 1159.35 1853.74 1194.06 1854.53 1238.34 1854.68 1281.97 1872.92 1335.15 1909.04 1379.9 1943.45 1425.06 1995.74 1461.76 2024.58 1481.96 2063.76 1502.33 2076.12 1525.48 2100.49 1545.9 2123.14 1565.94 2157.78 1583.26 2202 1582.47 2245.57 1582.32 2298.76 1564.06 2343.56 1527.93 2388.77 1493.5 2425.61 1441.21 2445.96 1412.42 2466.33 1373.24 2489.48 1360.88 2509.9 1336.51 2529.94 1313.86 2547.26 1279.22 2546.47 1235 2546.32 1191.43 2528.06 1138.24 2491.93 1093.44 2457.5 1048.23 2405.21 1011.39 2376.42 991.044ZM2515.89 1213.16C2480.02 1196.05 2448.65 1183.35 2421.06 1174.42 2412.34 1142.92 2391.41 1110.19 2363.31 1085.08 2363.75 1084.87 2364.22 1084.69 2364.66 1084.48 2369.55 1081.58 2338.28 1063.17 2334.08 1062.28 2329.09 1060.84 2324.36 1058.26 2318.69 1055.93 2309.6 1052.2 2301.42 1048.17 2296.3 1043.63 2315.11 1030.83 2336.69 1018 2359.96 1005.18 2422.45 1039.55 2512.38 1128.52 2515.89 1213.16ZM2380.76 1292.62C2378.22 1288.39 2376 1283.48 2373.39 1279.54 2371.4 1275.67 2366.28 1274.94 2366.99 1276.79 2368.32 1280.45 2369.63 1284.21 2370.25 1287.95 2370.36 1288.26 2370.46 1288.57 2370.57 1288.91 2364.04 1281.57 2357.48 1274.94 2350.95 1269.01 2358.13 1232.93 2355.23 1199.86 2338.91 1166.22 2357.3 1167.47 2378.43 1171.52 2402.93 1179.04 2415.13 1229.2 2405.99 1266.14 2388.98 1310.7 2388.04 1309.47 2387.1 1308.24 2386.16 1307.04 2385.72 1303.07 2383.6 1297.82 2380.76 1292.6ZM2361.84 1331.23C2362.63 1325.56 2364.04 1315.9 2364.48 1310.8 2364.95 1305.58 2356.54 1298.42 2352.62 1296.86 2348.68 1295.18 2347.87 1292.36 2346.3 1287.74 2347.32 1285.68 2348.05 1282.78 2348.73 1279.93 2360.9 1291.55 2373.02 1305.92 2385.17 1322.87 2379.4 1335.2 2372.97 1347.25 2364.53 1359.5 2363.72 1356.96 2366.94 1348.53 2367.59 1345.08 2368.24 1341.52 2361.63 1336.77 2361.84 1331.21ZM2173.06 1183.64C2172.93 1186.52 2172.01 1188.45 2172.43 1190.83 2169.38 1192.42 2166.32 1194.93 2164.18 1197.38 2155.74 1188.4 2148.35 1178.47 2142.6 1166.95 2158.35 1153.99 2177.26 1146.52 2197.01 1146.05 2196.83 1146.68 2196.65 1147.28 2196.46 1147.91 2195.97 1148.06 2195.47 1148.19 2195 1148.35 2191.4 1149.68 2189.25 1159.11 2190.77 1158.62 2192.18 1158.15 2192.65 1153.94 2194.11 1153.47 2194.3 1153.31 2194.48 1153.16 2194.66 1153 2193.51 1158.41 2192.7 1163.82 2192.21 1169.2 2190.46 1172.49 2189.67 1176.69 2190.95 1178 2190.95 1178 2190.95 1178 2191.37 1178.44 2191.27 1180.3 2191.19 1182.13 2191.14 1183.98 2190.22 1184.06 2189.33 1184.11 2188.44 1184.16 2184.4 1184.92 2180.82 1186.07 2177.26 1188.19 2177.76 1185.81 2176.92 1183.96 2175.75 1181.63 2173.32 1178.86 2173.19 1180.77 2173.06 1183.64ZM2270.76 1117.68C2274.6 1117.24 2273.26 1118.7 2276.21 1118.52 2277.13 1118.28 2279.22 1118.36 2280.37 1118.68 2287.6 1123.25 2293.27 1128.39 2299.54 1134.25 2297.95 1135 2297.35 1135.66 2296.72 1136.31 2295.49 1137.61 2297.61 1139.55 2296.8 1141.35 2295.75 1144.35 2295.86 1145.92 2288.49 1146.26 2283.69 1146.16 2284.91 1142.45 2284.16 1139.76 2283.4 1137.07 2285.46 1137.2 2284.52 1135.71 2283.58 1134.11 2271.67 1130.8 2268.82 1134.09 2266 1137.28 2268.12 1138.95 2266.37 1141.87 2265.5 1143.36 2264.02 1143.88 2261.06 1143.81 2258.14 1143.73 2256.73 1143.13 2256.78 1141.9 2256.81 1140.65 2247.9 1138.95 2244.5 1138.16 2240.01 1137.2 2234.79 1137.98 2230.74 1140.28 2224.44 1138.09 2217.05 1136.73 2210.28 1135.89 2215.3 1123.59 2222.61 1111.34 2232.62 1099.08 2245.84 1102.22 2257.98 1106.53 2269.68 1112.93 2269.68 1112.93 2269.89 1113.43 2268.98 1113.69 2268.27 1114.42 2262.11 1111.73 2263.39 1114.73 2264.7 1117.74 2266.92 1118.15 2270.73 1117.71ZM2309.39 1147.78C2309.08 1147.23 2309.96 1147.18 2309.65 1146.63 2313.73 1150.23 2315.71 1153.52 2317.78 1156.84 2304.92 1157.42 2293.48 1159.37 2283.16 1162.4 2283.16 1162.4 2283.03 1162.24 2282.77 1161.91 2282.85 1158.72 2291.65 1157.18 2287.5 1155.25 2281.02 1152.74 2285.96 1150.81 2290.71 1148.14 2293.32 1146.44 2298.65 1147.33 2297.97 1146.29 2297.3 1145.24 2297.74 1142.92 2299.2 1142.16 2300.67 1141.38 2302.78 1140.02 2303.12 1138.87 2303.72 1139.91 2305.26 1140.88 2305.89 1141.93 2305.29 1144.22 2305.37 1145.9 2306.67 1148.04 2307.69 1149.63 2308.97 1151.77 2309.39 1147.78ZM2224.99 1149C2224.94 1149.71 2224.89 1150.44 2224.83 1151.15 2224.94 1152.43 2220.42 1152.74 2220.21 1153.6 2219.97 1154.46 2228.54 1155.51 2222.66 1157.52 2216.84 1159.61 2219.74 1157.49 2218.62 1156.16 2217.47 1154.83 2212.66 1157 2214.25 1154.39 2215.87 1151.77 2212.42 1152.16 2214.46 1150 2216.53 1147.85 2214.57 1146.44 2211.2 1148.17 2207.8 1149.92 2212.69 1154.86 2210.26 1155.27 2208.17 1156.16 2206.47 1157.52 2204.8 1158.88 2205.63 1154.67 2206.7 1150.49 2207.98 1146.31 2209.53 1145.9 2210.13 1145.48 2211.35 1144.62 2215.17 1147.41 2220.37 1147.96 2224.99 1149.03ZM2295.05 1258.51C2293.79 1256.42 2304.82 1257.46 2307.17 1257.33 2310.44 1256.44 2314.25 1255.5 2318.04 1255.74 2320.83 1256.39 2323.91 1258.87 2323.52 1254.62 2323.1 1246.88 2321.15 1239.1 2317.51 1231.39 2312.13 1221.08 2308.16 1218.78 2307.09 1219.12 2305.99 1219.51 2305.6 1222.8 2303.51 1223.69 2302.47 1224.13 2304.27 1226.59 2305.6 1228.47 2306.93 1230.35 2306.2 1233.17 2304.82 1232.15 2303.43 1231.13 2302.86 1232.26 2304.24 1233.27 2305.6 1234.29 2300.67 1235.86 2297.87 1235.78 2293.64 1235.63 2299.88 1231.92 2300.74 1227.45 2301.5 1223.77 2301.84 1219.59 2302.28 1215.54 2301.66 1211.91 2298.89 1208.43 2299.93 1205.11 2300.95 1201.77 2306.26 1200.94 2304.22 1197.36 2302.18 1193.78 2303.25 1194.17 2305.6 1194.27 2307.54 1193.88 2326.13 1190.36 2322.97 1185.42 2321.38 1183.02 2314.75 1180.43 2309.96 1180.53 2307.06 1180.95 2303.04 1176.69 2299.93 1174.87 2296.85 1173.04 2293.74 1171.26 2289.98 1169.8 2299.86 1167.13 2310.75 1165.54 2323 1165.3 2339.27 1194.56 2344.34 1225.52 2339.33 1258.8 2339.01 1258.56 2338.7 1258.3 2338.39 1258.06 2337.89 1256.99 2337.37 1255.95 2336.87 1254.9 2334.42 1248.37 2325.74 1239.62 2325.46 1241.4 2325.17 1243.12 2326.29 1242.76 2326.66 1250.28 2326.79 1252.79 2327.13 1257.02 2325.04 1257.7 2322.97 1258.38 2322.19 1256.84 2319.55 1258.77 2317.41 1260.49 2314.46 1261.83 2311.66 1262.32 2306.18 1262.37 2300.46 1262.14 2293.98 1261.2 2294.03 1260.21 2296.2 1260.55 2295 1258.59ZM2335.67 1156.92C2331.62 1149.34 2325.82 1141.9 2319.29 1134.87 2320.28 1132.6 2320.34 1130.35 2319.13 1127.61 2318.19 1125.39 2313.47 1124.53 2311.11 1126.41 2307.12 1122.26 2302.47 1118.83 2297.95 1115.57 2296.09 1113.61 2294.08 1111.13 2292.36 1109.17 2292.18 1108.65 2289.96 1108.44 2287.58 1107.78 2284.86 1106.06 2283.37 1104.68 2280.92 1103.53 2283.58 1101.85 2283.92 1098.95 2280.03 1100.36 2274.2 1102.25 2277.63 1099.24 2275.38 1098.61 2273.16 1098.04 2273.42 1099.08 2272.56 1099.87 2263.15 1095.51 2254.53 1091.93 2244.92 1089.05 2244.92 1089.05 2244.9 1088.87 2244.87 1088.51 2243.07 1089.16 2243.01 1088.61 2243.93 1088.27 2247.9 1084.12 2252.18 1079.96 2256.78 1075.81 2260.59 1076.96 2264.51 1077.51 2270.6 1076.49 2275.72 1075.73 2277.81 1076.44 2278.96 1079.05 2280.11 1081.66 2285.46 1081.58 2290.97 1081.14 2296.49 1080.69 2300.12 1083.59 2304.71 1082.94 2309.1 1082.16 2325.66 1091.01 2332.64 1094.49 2336.64 1096.08 2342.15 1099.01 2345.67 1096.63 2349.23 1094.23 2349.33 1094.83 2351.89 1094.25 2374.49 1115.12 2393.24 1142.66 2402.04 1168.7 2376.65 1161.6 2354.76 1157.91 2335.67 1156.95ZM2352.52 998.175C2330.78 1010.64 2310.51 1023.1 2292.54 1035.58 2290.56 1035.37 2288.62 1035.19 2290.24 1033.54 2293.25 1030.93 2287.66 1032.21 2288.99 1026.67 2289.28 1021.35 2285.46 1017.45 2279.87 1016.09 2275.93 1015.02 2274.62 1012.54 2270.55 1012.18 2266.42 1011.86 2259.65 1009.28 2254.06 1012.39 2250.77 1014.08 2246.62 1016.09 2243.9 1016.93 2215.74 1008.65 2186.69 1003.79 2151.3 1011.45 2160.7 984.983 2173.71 954.865 2191.06 920.409 2272.24 923.91 2295.26 965.914 2352.54 998.201ZM2143.04 1034.07C2173.14 1025.73 2198.53 1027.88 2224.65 1032.24 2223.21 1037.18 2223.5 1042.01 2225.56 1044.65 2225.88 1047.94 2227.47 1050 2228.99 1052.67 2230.95 1053.87 2227.97 1058.88 2228.07 1061.99 2227.76 1063.38 2229.22 1064.06 2229.82 1065.05 2229.43 1067.06 2229.2 1068.39 2228.91 1070.35 2228.8 1071 2232.3 1069.59 2235.2 1067.27 2238.1 1064.94 2240.45 1061.65 2244.06 1061 2247.61 1060.37 2251.37 1063.98 2253.88 1066.14 2247.22 1072.05 2241.11 1077.95 2235.59 1083.86 2233.79 1082.21 2232.17 1079.89 2233.06 1079.55 2233.92 1079.21 2235.67 1079.1 2236.56 1078.76 2240.11 1077.4 2233.98 1077.98 2234.03 1077.38 2231.49 1076.59 2231.73 1074.09 2228.46 1073.59 2225.2 1073.07 2220 1076.54 2218.67 1074.66 2215.93 1071.53 2212.58 1069.18 2207.72 1068.1 2206.83 1068.55 2212.63 1072.99 2210.13 1075.39 2207.46 1077.9 2199.76 1075.84 2198.84 1077.59 2197.82 1079.39 2207.44 1077.93 2210.41 1079.05 2211.85 1079.62 2214.72 1082.03 2217.88 1083.62 2187.63 1080.04 2158.93 1084.2 2130.19 1098.12 2131.45 1079.73 2135.5 1058.6 2143.02 1034.09ZM2129.8 1112.72C2159.19 1096.47 2190.17 1091.56 2223.47 1096.68 2213.39 1109.46 2206.02 1122.2 2200.93 1134.9 2177.63 1134.98 2155.84 1142.47 2137.51 1156.71 2132.8 1144.12 2130.01 1129.67 2129.8 1112.72ZM2168.04 1208.64C2169.4 1209.03 2169.92 1210.42 2169.98 1211.36 2170.11 1213.24 2164.31 1213.13 2166.76 1216.27 2168.83 1219.9 2169.85 1215.59 2170.32 1216.03 2173.48 1216.27 2176.09 1215.09 2178.62 1212.98 2180.27 1210.94 2182.75 1207.91 2184.68 1209.58 2185.65 1210.42 2187.74 1207.86 2189.12 1208.2 2190.59 1209.42 2194.3 1209.95 2194.64 1208.54 2194.98 1207.13 2197.22 1206.42 2198.63 1206.71 2200.04 1207.02 2200.1 1207.94 2200.67 1209.24 2200.9 1211.96 2202.92 1208.54 2206.34 1210.44 2209.76 1212.35 2205.24 1213.76 2206.86 1215.88 2207.54 1218.1 2207.75 1219.9 2208.48 1222.12 2208.58 1223.03 2210.41 1222.83 2210.31 1221.91 2210.2 1221 2209.5 1218.78 2210.73 1217.29 2211.95 1215.77 2218.8 1218.72 2220.55 1217.65 2222.3 1216.58 2223.92 1218.72 2224.86 1218.65 2225.77 1218.57 2222.77 1221.1 2224.21 1221.41 2225.64 1221.73 2228.65 1219.25 2230.16 1220.5 2231.26 1222.22 2231.96 1224.44 2230.29 1226.4 2229.06 1227.84 2223.45 1227.42 2224.47 1228.26 2225.49 1229.07 2229.35 1230.58 2230.58 1229.12 2231.81 1227.66 2233.19 1223.01 2233.98 1226.17 2234.76 1229.3 2238.18 1231.42 2237.37 1232.39 2236.54 1233.35 2236.14 1233.82 2238.47 1234.16 2240.38 1235 2241.47 1236.8 2242.13 1239.1 2242.28 1240.93 2239.25 1242.44 2238.78 1242 2238.29 1241.55 2240.74 1238.66 2239.25 1237.35 2237.76 1236.04 2236.01 1237.04 2234.6 1240.82 2233.87 1242.73 2232.49 1242.36 2231.68 1243.36 2230.87 1244.35 2231.91 1250.33 2232.38 1250.78 2232.88 1251.22 2233.84 1252.08 2234.81 1252.97 2236.74 1254.72 2237.76 1256.58 2238.36 1258.9 2237.19 1261.33 2235.93 1262.79 2234.29 1264.78 2227.63 1272.72 2217.57 1277.76 2207.59 1279.56 2208.01 1278.15 2208.87 1276.22 2210.18 1274.7 2211.95 1273.61 2211.43 1272.27 2211.8 1270.84 2212.16 1269.4 2215.72 1268.12 2216 1265.77 2216.34 1263.39 2212.79 1254.46 2210.83 1253.78 2208.92 1253.07 2209.63 1246.96 2208.72 1247.07 2207.8 1247.17 2208.43 1248.5 2207.91 1248.09 2207.41 1247.69 2208.19 1246.65 2205.37 1246.07 2202.52 1245.5 2202.34 1247.82 2201.53 1248.87 2199.31 1249.6 2196.78 1251.77 2196.88 1252.66 2196.99 1253.57 2194.24 1253.88 2194.32 1254.8 2193.9 1255.3 2193.59 1256.71 2194.61 1257.52 2195.21 1258.82 2197.04 1258.61 2198.06 1259.42 2199.65 1261.54 2198.63 1265.77 2200.1 1267 2201.58 1268.23 2199.31 1268.9 2199.36 1269.82 2199.42 1270.73 2200.83 1271.05 2199.96 1272.04 2199.1 1273.03 2200.2 1276.58 2201.19 1279.22 2197.98 1279.07 2194.24 1278.49 2190.98 1278.31 2191.4 1276.92 2191.81 1275.54 2192.73 1275.46 2195.16 1274.81 2189.88 1260.34 2185.91 1258.93 2182.04 1257.49 2182.8 1260.6 2182.02 1262.45 2181.23 1264.33 2179.72 1263.11 2179.64 1262.22 2179.59 1261.33 2185.02 1254.93 2180.06 1256.76 2177.81 1257.44 2174.39 1261.28 2173.29 1259.55 2172.2 1257.83 2175.41 1257.15 2175.83 1256.65 2178.94 1255.03 2175.1 1249.47 2176.32 1247.98 2178.36 1245.53 2172.46 1242.36 2171.94 1246.05 2171.41 1249.73 2170.05 1250.28 2170.76 1252.5 2171.47 1254.72 2171.36 1258.77 2169.32 1257.1 2168.33 1256.26 2169.9 1248.5 2169.19 1246.26 2169.01 1244.45 2168.3 1242.21 2167.21 1240.43 2166.11 1238.68 2170.79 1230.98 2171 1228.6 2170.81 1226.74 2170.13 1224.47 2168.67 1223.17 2167.21 1221.86 2166.06 1224.29 2164.67 1223.9 2163.29 1223.5 2166.71 1221.44 2165.25 1220.11 2163.81 1218.78 2163.21 1222.56 2161.43 1222.64 2161.12 1222.35 2160.94 1221.89 2160.89 1221.26 2163.13 1215.54 2165.12 1212.12 2168.02 1208.61ZM2241.66 1353.72C2242.15 1357.82 2247.19 1357.33 2248.03 1361.46 2248.73 1363.28 2253.04 1364.33 2256.6 1365.35 2261.38 1363.91 2266.05 1361.82 2270.02 1358.43 2270.23 1359.16 2270.44 1359.91 2270.65 1360.67 2241.21 1376.95 2210.13 1381.91 2176.74 1376.71 2186.88 1363.96 2194.32 1351.24 2199.44 1338.57 2215.9 1338.62 2232.15 1335.2 2247.25 1327.13 2243.38 1333.64 2242.15 1339.09 2243.48 1341.89 2244.82 1344.71 2241.16 1349.7 2241.68 1353.78ZM2147.38 1363.02C2148.37 1363.05 2149.37 1363.1 2150.33 1363.13 2146.83 1361.53 2144.59 1358.29 2143.2 1355.34 2141.84 1352.39 2138.63 1350.04 2134.76 1348.37 2132.86 1346.67 2130.9 1344.97 2129.75 1343.01 2127.74 1339.62 2123.19 1341.94 2122.59 1340.92 2122.02 1339.96 2126.87 1339.83 2126.25 1338.83 2125.65 1337.87 2118.15 1335.28 2113.16 1335.1 2108.17 1334.94 2108.98 1333.06 2108.01 1331.55 2107.05 1330 2106.06 1328.49 2103.65 1327.73 2101.46 1325.8 2099.97 1322.04 2104.12 1321.38 2105.79 1321.12 2108.98 1321.67 2110.63 1320.16 2112.27 1318.64 2108.46 1315.95 2106.55 1313.36 2113.79 1311.9 2120.53 1309.92 2126.8 1307.51 2128.47 1309.45 2131.18 1311.54 2132.8 1313.42 2131.84 1314.44 2131.92 1315.64 2133.01 1315.85 2134.11 1316.06 2135.18 1316.24 2135.5 1315.48 2150.44 1327.65 2168.83 1335.36 2188.1 1337.37 2183.01 1349.57 2175.65 1361.72 2165.56 1373.84 2162.71 1373.26 2159.71 1372.17 2156.58 1371.04 2156.45 1370.52 2156.31 1370 2156.16 1369.47 2155.14 1365.84 2150.15 1365.43 2147.33 1362.97ZM2059.35 1364.54C2052.17 1365.64 2044.51 1365.97 2036.39 1365.43 2035.94 1365.4 2035.47 1365.37 2035.03 1365.32 2018.31 1346.88 2006.5 1326.06 1999.32 1305.71 2025.08 1312.4 2047.15 1315.64 2066.27 1316.13 2069.72 1322.53 2073.66 1328.25 2078.76 1334.29 2077.74 1334.29 2076.93 1332.64 2074.11 1333.22 2071.55 1333.79 2064.31 1344.37 2059.64 1348.84 2056.27 1352.81 2066.06 1361.69 2059.32 1364.54ZM2061.13 1306.7C2042.63 1305.35 2021.42 1301.19 1996.76 1293.56 1984.74 1243.23 1994.17 1206.63 2011.05 1161.07 2023.85 1178.03 2036.65 1192.39 2049.45 1204.02 2042.19 1239.99 2044.88 1273.01 2061.13 1306.7ZM2149.81 1220.94C2149.57 1221.89 2149.34 1222.83 2149.1 1223.77 2148.03 1227.97 2147.41 1231.68 2147.67 1235.36 2135.31 1235.05 2123.01 1233.38 2110.73 1229.62 2112.46 1209.14 2120.89 1189.21 2134.95 1175.05 2141.06 1186.88 2148.79 1197.04 2157.46 1206.19 2154.98 1210.05 2152.53 1213.87 2151.04 1218.59 2149.99 1215.75 2149.86 1211.91 2149.86 1211.91 2149.86 1211.91 2148.74 1217.16 2149.86 1220.94ZM2109.74 1265.74C2110.68 1266.87 2107.18 1270.79 2105.01 1273.71 2102.82 1276.61 2103.94 1279.88 2097.57 1281.57 2094.33 1282.36 2094.72 1284.87 2094.64 1286.82 2094.3 1289.46 2094.59 1291.94 2094.8 1294.37 2097.28 1297.67 2099.05 1301.03 2099.19 1304.61 2091.85 1305.87 2083.98 1306.57 2075.47 1306.63 2059.27 1277.11 2054.46 1246.07 2059.74 1212.79 2072.51 1223.01 2085.26 1230.51 2097.96 1235.7 2099.13 1247.17 2100.83 1257.59 2103.76 1267.62 2103.18 1267.83 2103.65 1268.41 2103.08 1268.62 2102.76 1270.99 2097.57 1271.99 2099.5 1273.48 2101.67 1275.17 2109.01 1264.83 2109.74 1265.77ZM2116.09 1293.25C2117.86 1295.29 2118.96 1297.51 2120.68 1299.49 2116.11 1301.19 2111.31 1302.65 2106.24 1303.83 2104.28 1302.45 2103.78 1300.7 2103.94 1298.79 2103.7 1296.36 2106.29 1294.48 2110 1293.98 2111.33 1293.59 2113.71 1293.46 2116.06 1293.28ZM2109.56 1240.28C2120.71 1243.67 2131.84 1245.42 2142.91 1246.07 2142.47 1246.49 2142.05 1246.91 2141.16 1247.75 2139.41 1249.42 2137.95 1247.93 2136.59 1249.13 2134.4 1252 2134.89 1253.36 2133.95 1253.26 2130.19 1252.81 2126.43 1253.13 2122.12 1253.55 2117.84 1254.85 2114.36 1256.97 2112.66 1260.31 2112.14 1260.6 2112.61 1261.15 2112.09 1261.41 2111.52 1254.54 2110.76 1247.38 2109.53 1240.25ZM2099.47 1226.04C2087.35 1220.87 2075.28 1213.45 2063.27 1203.42 2071.05 1170.19 2092.45 1138.24 2120.81 1119.22 2121.57 1136.57 2124.86 1151.33 2129.96 1164.21 2112.95 1179.88 2102.14 1201.93 2099.45 1226.06ZM2052.56 1193.96C2040.36 1182.41 2028.21 1168.1 2016.04 1151.22 2035.55 1104.83 2081.14 1053.97 2131.92 1037.57 2125.05 1062.72 2121.57 1084.4 2120.81 1103.32 2087.87 1122.67 2061.96 1158.09 2052.56 1193.99ZM2098.09 1336.35C2091.77 1330.37 2086.73 1323.42 2081.4 1316.24 2088.63 1316 2095.45 1315.3 2101.85 1314.25 2101.41 1316.11 2098.35 1318.28 2098.53 1319.95 2098.82 1321.62 2096.89 1327.58 2101.69 1329.17 2112.87 1333.06 2104.41 1336.74 2098.09 1336.35ZM2120.19 1416.76C2118.2 1418.25 2116.16 1419.71 2114.1 1421.2 2112.19 1420.41 2109.24 1419.21 2107.2 1418.4 2111.93 1416.23 2116.22 1415.89 2120.16 1416.76ZM2147.77 1310.39C2148.61 1310.62 2149.44 1310.83 2150.28 1311.07 2152.37 1311.27 2154.43 1311.46 2155.24 1310.28 2156.05 1309.13 2159.45 1307.7 2160.05 1307.3 2162.24 1306.6 2164.23 1306.68 2166.24 1306.73 2168.67 1307.23 2170.08 1304.74 2172.59 1304.33 2175.1 1303.91 2177.6 1303.46 2176.25 1306.05 2174.86 1308.61 2180.97 1306.91 2181.52 1306.44 2182.07 1306 2181.78 1304.72 2180.5 1303.44 2180.09 1303.02 2179.43 1300.43 2181.42 1299.52 2183.46 1298.63 2192.83 1299.13 2192.57 1296.02 2192.31 1292.94 2189.07 1291.79 2188.65 1290.48 2188.21 1290.06 2188.24 1289.18 2188.71 1288.71 2192.44 1289.36 2195.21 1290.06 2198.89 1289.8 2198.53 1302.13 2196.83 1314.44 2193.02 1326.69 2176.87 1325.88 2160.73 1320.31 2147.8 1310.36ZM2181.5 1276.35C2180.56 1276.4 2179.62 1276.48 2179.15 1276.95 2178.7 1277.42 2178.23 1277.89 2177.76 1278.36 2177.45 1278.67 2177.13 1278.99 2176.82 1279.3 2176.66 1279.75 2176.53 1280.19 2176.38 1280.63 2174.18 1282.78 2171.94 1284.87 2169.61 1286.9 2168.62 1287.76 2168.12 1288.21 2167.65 1287.79 2165.25 1286.54 2169.74 1285.21 2165.8 1278.39 2165.8 1277.53 2164.8 1276.69 2164.78 1275.8 2164.6 1275.38 2164.44 1274.94 2164.26 1274.52 2164.26 1274.23 2164.26 1273.95 2164.23 1273.66 2164.23 1273.37 2164.23 1273.08 2164.2 1272.8 2164.15 1271.07 2165.04 1270.16 2165.95 1269.27 2166.27 1268.96 2166.55 1268.67 2166.84 1268.36 2167.47 1268.36 2168.1 1268.3 2168.72 1268.28 2170.16 1268.67 2171.62 1269.04 2173.06 1269.4 2174 1269.35 2174.44 1268.88 2174.94 1269.3 2176.32 1268.77 2177.26 1268.7 2178.2 1268.64 2178.52 1268.64 2178.83 1268.59 2179.15 1268.57 2179.3 1268.7 2179.48 1268.83 2179.64 1268.98 2180.27 1268.93 2180.73 1268.75 2181.03 1268.43 2181.18 1268.28 2181.31 1268.12 2181.47 1267.96 2181.77 1267.63 2182.05 1267.31 2182.33 1267 2182.49 1266.84 2182.62 1266.68 2182.78 1266.5 2183.14 1265.12 2183.64 1265.53 2184.06 1265.04 2184.21 1265.17 2184.4 1265.3 2184.55 1265.46 2184.88 1265.74 2185.07 1266.17 2185.13 1266.76 2185.62 1267.18 2185.21 1267.65 2185.7 1268.07 2185.75 1268.96 2185.83 1269.85 2185.39 1270.34 2184.5 1271.31 2183.14 1271.88 2182.7 1272.35 2182.25 1272.82 2181.81 1273.32 2182.31 1273.71 2183.12 1274.39 2183.95 1275.07 2184.76 1275.75 2184.47 1276.06 2184.16 1276.38 2183.85 1276.72 2183.85 1276.72 2184.11 1276.95 2184.06 1276.9 2184.45 1277.24 2184.81 1277.55 2184.81 1277.55 2183.85 1276.74 2182.91 1276.79 2181.47 1276.45ZM2177.16 921.115C2160.34 956.38 2147.8 987.282 2138.86 1014.53 2081.92 1029 2028.66 1086.42 2006.03 1135.94 1993.91 1117.71 1981.77 1096.99 1969.62 1074.77 2003.87 1013.8 2092.45 924.876 2177.16 921.115ZM1961.55 1085.32C1974.37 1107.6 1987.2 1128.34 2000.05 1146.65 1980.04 1194.54 1964.73 1229.98 1974.22 1285.94 1947.52 1276.22 1917.22 1262.79 1882.58 1245.03 1888.14 1164.89 1929.65 1141.3 1961.55 1085.32ZM1885.09 1259.81C1920.35 1276.64 1951.26 1289.18 1978.5 1298.11 1985.11 1320.29 1996.66 1342.52 2012.43 1362.5 2007.97 1361.3 2003.42 1360.04 1998.72 1357.98 1992.5 1355.68 1988.06 1356.88 1986.49 1356.62 1980.25 1355.55 1971.94 1351.79 1972.13 1353.93 1972.34 1356.1 1978.66 1355.92 1978.79 1357.3 1979.02 1358.79 1962.65 1355.66 1960.63 1352.23 1958.73 1348.94 1955.12 1345.16 1953.71 1348.5 1952.3 1351.84 1945.33 1349.52 1941.85 1349.41 1940.13 1349.75 1938.46 1350.88 1938.51 1352.42 1938.61 1353.98 1929.6 1351.03 1929.65 1353.38 1929.73 1355.76 1935.22 1357.8 1937.07 1360.52 1938.95 1363.26 1944.33 1365.87 1940.78 1365.9 1937.23 1365.92 1938.98 1364.75 1935.4 1364.77 1932.03 1365.09 1951.78 1391.76 1954.99 1391.1 1958.49 1390.87 1949.87 1382.82 1949.82 1379.74 1949.82 1376.71 1951.57 1376.27 1956.72 1375.67 1961.94 1375.22 1975.52 1387.34 1980.3 1386.35 1985.19 1385.51 1978.66 1383.32 1983.52 1383.19 1988.48 1383.24 2002.72 1394.19 2007.18 1391.65 2010.21 1389.85 2013.24 1393.38 2013.24 1394.06 2017.76 1397.66 2025.1 1397.9 2029.31 1401.84 2033.59 1405.86 2042.89 1412.84 2049.61 1412.45 2056.37 1412.08 2052.58 1409.1 2055.25 1408.97 2057.94 1408.81 2060.24 1413.07 2063.82 1415.29 2066.19 1416.97 2069.88 1417.88 2074.81 1417.93 2082.78 1422.63 2091.22 1426.89 2098.74 1431.1 2080.43 1443.19 2059.69 1455.31 2037.41 1467.41 1975.84 1433.76 1886.94 1344.45 1885.06 1259.74ZM2209.08 1552.64C2128 1549.17 2104.64 1507.32 2048.48 1474.8 2070.76 1462.03 2091.51 1449.25 2109.79 1436.48 2158.14 1456.46 2193.85 1471.3 2249.7 1461.58 2240.06 1488.12 2226.74 1518.24 2209.08 1552.64ZM2256.83 1440.42C2206.44 1452.49 2169.74 1443.14 2123.98 1426.19 2126.87 1423.99 2129.7 1421.82 2132.46 1419.63 2133.33 1420 2135.23 1420.07 2137.09 1420.15 2140.8 1420.31 2145.58 1419.47 2150.52 1417.23 2154.59 1415.29 2162.98 1408.06 2167.34 1406.33 2171.8 1404.64 2178.52 1403.12 2182.93 1399.28 2187.4 1395.39 2181.42 1391.89 2178.96 1389.98 2178.15 1389.75 2178.18 1389.12 2177.34 1388.88 2209.53 1394.21 2240.58 1391.08 2271.25 1375.48 2269.53 1394.24 2264.96 1415.63 2256.81 1440.4ZM2255.92 1304.07C2253.88 1304.27 2254.17 1307.51 2252.78 1310.52 2237.95 1320.99 2221.23 1326.43 2203.33 1327.39 2207.2 1314.72 2208.95 1302.08 2209.34 1289.49 2219.77 1287.35 2229.48 1283.01 2236.77 1275.59 2237.63 1276.53 2239.38 1276.48 2241.08 1278.39 2242.78 1280.32 2242.28 1282.75 2243.51 1283.27 2244.76 1283.77 2247.9 1278.44 2247.06 1276.48 2246.23 1274.52 2243.67 1275.46 2241.94 1274.52 2240.66 1274.05 2240.22 1273.58 2238.91 1273.14 2239.33 1272.64 2239.77 1272.14 2240.19 1271.67 2241.47 1270.21 2242.73 1268.75 2243.54 1266.82 2243.95 1266.32 2243.93 1265.38 2243.48 1264.91 2243.04 1264.44 2242.99 1263.47 2242.54 1263.03 2242.07 1262.56 2242.49 1262.09 2242.05 1261.62 2242.33 1261.62 2242.62 1261.62 2242.91 1261.62 2244.24 1262.06 2247.79 1263.94 2248.19 1262.53 2248.58 1261.07 2244.84 1256.34 2243.48 1255.92 2241.26 1255.5 2239.83 1254.15 2239.2 1251.82 2238.73 1251.38 2236.22 1248.22 2237.5 1247.69 2238.81 1247.15 2240.43 1250.36 2241.37 1251.27 2242.8 1252.63 2245.52 1253.52 2245.81 1251.17 2246.15 1249.76 2245.55 1247.41 2246.83 1246.94 2248.13 1246.47 2246.2 1250.7 2246.75 1252.11 2247.27 1253.52 2249.39 1252.11 2249.47 1253.05 2249.52 1253.99 2248.63 1253.99 2248.68 1254.93 2248.73 1255.87 2252.76 1257.36 2252.37 1258.8 2252 1260.21 2249.96 1264.49 2249.57 1265.93 2249.18 1267.36 2247.45 1267.34 2247.43 1266.37 2247.43 1265.4 2245.18 1263.97 2244.35 1264.93 2243.51 1265.9 2243.95 1266.37 2244.84 1267.34 2245.73 1268.28 2247.9 1268.77 2248.32 1269.27 2248.76 1269.77 2247.92 1271.67 2247.48 1273.14 2247.9 1275.57 2247.87 1278.52 2247.38 1280.95 2246.88 1283.4 2244.22 1286.28 2245 1287.29 2245.78 1288.31 2247.11 1286.88 2247.95 1286.9 2250.01 1287.48 2251.97 1289.15 2250.88 1292.1 2249.78 1295.05 2245.68 1294.77 2245.13 1296.25 2244.55 1297.74 2245.89 1300.8 2247.35 1304.59 2248.79 1308.32 2255.16 1303.96 2256.99 1299.49 2258.22 1296.49 2255.68 1293.56 2256.75 1290.64 2257.82 1287.69 2255.89 1285.96 2258.03 1284.66 2260.18 1283.38 2258.22 1281.63 2259.94 1279.82 2261.69 1278 2262.84 1279.67 2265.4 1278.02 2269.66 1275.62 2271.96 1279.2 2271.25 1277 2270.55 1274.83 2270.18 1273.21 2266.81 1274.7 2263.44 1276.17 2259.34 1273.76 2262.29 1272.59 2266.08 1271.54 2268.22 1269.4 2269.87 1270.68 2271.49 1271.96 2273.68 1268.88 2275.33 1270.24 2277.73 1272.82 2277.52 1268.2 2274.99 1267.65 2272.48 1267.13 2272.51 1266.16 2272.53 1264.18 2272.53 1262.22 2274.26 1263.5 2273.86 1260 2273.45 1256.5 2272.14 1258.72 2270.86 1258.01 2269.61 1257.28 2265.14 1250.98 2267.7 1250.38 2270.31 1249.76 2270.68 1246.54 2269.34 1246.83 2268.04 1247.12 2266.55 1242.73 2266.97 1242.34 2267.41 1241.92 2268.82 1244.43 2269.71 1244.56 2270.6 1244.66 2273.08 1238.52 2275.85 1240.9 2278.57 1243.25 2276.4 1248.01 2275.54 1248.79 2273.81 1250.36 2274.28 1253.78 2274.73 1257.25 2275.14 1260.73 2274.26 1262.53 2276.76 1264.05 2279.27 1265.59 2280.6 1263.45 2281.52 1260.73 2282.46 1258.01 2282.48 1255.11 2282.95 1253.78 2283.9 1251.04 2290.29 1257.31 2290.19 1259.34 2290.11 1261.3 2288.73 1263.34 2288.62 1265.33 2287.13 1269.4 2285.59 1273.53 2282.48 1276.25 2281.07 1278.44 2281.47 1279.07 2282.41 1282.04 2283.35 1284.97 2274.23 1290.25 2272.4 1292.02 2270.62 1293.69 2270.7 1285.18 2268.35 1288.39 2266.03 1291.6 2263.62 1294.84 2261.19 1298.14 2260.75 1298.58 2259.52 1304.22 2255.89 1304.17ZM2299.36 1356.65C2302.18 1357.3 2305.05 1360.2 2306.78 1363.86 2308.48 1368.61 2309.05 1370.7 2307.67 1376.87 2304.3 1388.39 2304.51 1395.31 2310.33 1397.35 2313.78 1398.81 2314.25 1406.33 2316.1 1411.27 2301.14 1422.5 2284.89 1430.68 2268.69 1436.79 2275.69 1411.53 2279.27 1389.72 2280.13 1370.73 2286.59 1366.29 2293.38 1361.72 2299.39 1356.68ZM2280.21 1355.58C2280.13 1353.46 2280.03 1351.4 2279.9 1349.33 2286.82 1343.04 2285.75 1351.27 2290.37 1345.63 2291.89 1343.74 2293.56 1343.72 2294.81 1344.97 2290.01 1347.74 2285.2 1351.61 2280.24 1355.55ZM2222.95 1553.71C2240.22 1517.69 2253.04 1486.19 2262.11 1458.47 2284.26 1451.86 2307.3 1440.14 2327.99 1422.92 2328.49 1424.28 2329.14 1424.2 2329.79 1424.12 2332.43 1423.78 2335.36 1420.57 2337.55 1417.46 2344.52 1410.98 2350.66 1403.46 2355.73 1395 2372.27 1376.37 2385.35 1354.72 2394.73 1335.93 2406.88 1354.12 2419.05 1374.75 2431.22 1396.96 2397.21 1458.89 2308.76 1548.31 2222.95 1553.74ZM2438.04 1388.13C2425.29 1365.9 2412.55 1345.21 2399.8 1326.95 2419.68 1278.39 2434.1 1242.47 2424.22 1186.78 2451.08 1196.44 2481.67 1209.92 2516.67 1227.89 2513.25 1309.16 2470.98 1331.02 2438.07 1388.13Z" stroke="#000000" stroke-width="0.859285" stroke-miterlimit="8" fill="#262626" fill-rule="evenodd"/><path d="M1758.5 1236C1758.5 991.614 1956.39 793.5 2200.5 793.5 2444.61 793.5 2642.5 991.614 2642.5 1236 2642.5 1480.39 2444.61 1678.5 2200.5 1678.5 1956.39 1678.5 1758.5 1480.39 1758.5 1236ZM1915.46 1236C1915.46 1393.7 2043.08 1521.54 2200.5 1521.54 2357.92 1521.54 2485.54 1393.7 2485.54 1236 2485.54 1078.3 2357.92 950.463 2200.5 950.463 2043.08 950.463 1915.46 1078.3 1915.46 1236Z" stroke="#262626" stroke-width="6.875" stroke-miterlimit="8" fill-rule="evenodd"/><path d="M1769.5 1236.5C1769.5 998.465 1962.47 805.5 2200.5 805.5 2438.54 805.5 2631.5 998.465 2631.5 1236.5 2631.5 1474.53 2438.54 1667.5 2200.5 1667.5 1962.47 1667.5 1769.5 1474.53 1769.5 1236.5ZM1901.29 1236.5C1901.29 1401.75 2035.25 1535.71 2200.5 1535.71 2365.75 1535.71 2499.71 1401.75 2499.71 1236.5 2499.71 1071.25 2365.75 937.291 2200.5 937.291 2035.25 937.291 1901.29 1071.25 1901.29 1236.5Z" stroke="#595959" stroke-width="6.875" stroke-miterlimit="8" fill="none" fill-rule="evenodd"/><path d="M2305.48 1555.2 2344.17 1563.48C2356.36 1567.39 2368.24 1572.24 2379.52 1578.96 2390.79 1585.69 2403.62 1590.82 2416.43 1594.42L2419.24 1595.32 2419.88 1596.56C2402.5 1600.8 2384.14 1601.64 2366.36 1597.47 2334.23 1591.3 2308.66 1559.83 2305.48 1555.2ZM2094.59 1555.2C2091.41 1559.83 2065.85 1591.3 2033.72 1597.47 2015.94 1601.64 1997.57 1600.8 1980.19 1596.56L1980.83 1595.32 1983.65 1594.42C1996.46 1590.82 2009.29 1585.69 2020.56 1578.96 2031.84 1572.24 2043.72 1567.39 2055.91 1563.48ZM1970.97 1445.99 2003.26 1473.77 2038.55 1507.56C2055.07 1521.08 2073.83 1530.84 2094.12 1536.11L2094.87 1536.11C2095.62 1536.11 2095.62 1536.86 2095.62 1536.86L2094.87 1536.86 2054.32 1546.61C2037.8 1551.86 2019.78 1554.87 2002.51 1556.37 1982.99 1557.12 1964.2 1554.87 1945.44 1548.86 1921.4 1539.85 1900.39 1523.33 1885.37 1502.3L1886.86 1502.3C1896.62 1509.81 1907.15 1515.07 1918.41 1518.82 1934.18 1523.33 1951.45 1526.33 1967.97 1526.33 1989.75 1527.08 2011.52 1528.6 2032.55 1531.59 2034.05 1531.59 2034.8 1531.59 2034.05 1530.84 2015.28 1523.33 2000.26 1509.06 1992 1490.29 1985.24 1476.79 1973.96 1452.01 1970.97 1447.49ZM2429.08 1445.26 2429.08 1446.76 2408.04 1489.56C2399.78 1507.58 2384.76 1522.6 2365.99 1530.11 2365.24 1530.86 2365.99 1530.86 2367.49 1530.86 2389.27 1527.85 2410.29 1526.35 2432.07 1525.6 2448.59 1525.6 2465.86 1522.6 2481.63 1518.09 2492.89 1514.34 2503.42 1509.08 2513.18 1501.57L2513.19 1501.57C2513.94 1501.57 2514.69 1501.57 2514.69 1502.32 2489.16 1539.87 2444.87 1560.91 2399.05 1556.39 2381.01 1554.89 2362.99 1551.9 2345.72 1546.63L2305.17 1536.87 2305.92 1536.13 2306.67 1536.13C2326.96 1530.86 2345.73 1521.1 2361.5 1507.58L2396.78 1473.04C2406.54 1464.03 2427.58 1446.01 2429.08 1445.26ZM1910.91 1361.88C1926.67 1381.39 1938.69 1403.18 1946.95 1426.46L1960.48 1464.76C1966.47 1482.03 1975.48 1497.8 1988.25 1510.58L1989.75 1512.08 1989.75 1512.82C1987.49 1512.82 1986.74 1512.08 1985.24 1512.08L1985.26 1512.06C1971 1509.06 1956.73 1505.3 1942.46 1501.55 1918.43 1498.55 1895.89 1488.79 1876.38 1473.77 1856.09 1459.5 1839.57 1439.98 1828.31 1418.2 1825.32 1412.19 1823.05 1406.19 1820.8 1400.18L1821.55 1400.18C1832.08 1412.93 1844.83 1424.21 1859.11 1433.22 1871.13 1441.48 1883.89 1448.24 1897.41 1454.25 1914.68 1461 1930.45 1470.77 1944.72 1482.03L1947.72 1484.28C1948.47 1485.03 1948.47 1484.28 1948.47 1483.53 1948.47 1482.78 1925.94 1460.25 1919.17 1413.68 1917.68 1396.41 1915.43 1379.89 1910.91 1363.37ZM2489.15 1361.88 2489.15 1363.37C2485.38 1379.89 2482.38 1396.41 2481.63 1413.68 2474.87 1461 2452.34 1483.53 2452.34 1484.28 2452.34 1484.78 2452.59 1485.03 2453.09 1485.03L2456.09 1482.78C2470.36 1471.52 2486.13 1461.76 2503.4 1455 2516.92 1448.99 2529.7 1442.23 2541.7 1433.97 2555.98 1424.96 2568.75 1413.7 2579.26 1400.93L2579.26 1400.95C2580.01 1400.2 2580.76 1400.2 2579.26 1401.7 2577.01 1407.71 2574.74 1413.7 2571.75 1419.71 2560.49 1441.5 2544.72 1461.02 2524.43 1475.29 2504.92 1489.54 2482.38 1499.32 2458.35 1503.07L2414.8 1512.08C2413.29 1512.08 2411.79 1512.82 2410.29 1512.82L2410.29 1512.08 2411.79 1510.58C2424.54 1497.8 2434.3 1482.03 2439.57 1464.76L2453.09 1426.46C2461.37 1403.18 2473.37 1381.39 2489.15 1361.88ZM2513.93 1274.03 2514.68 1274.78C2516.94 1296.54 2524.45 1316.08 2527.45 1334.1 2530.45 1355.88 2528.95 1377.65 2522.94 1397.93 2522.19 1398.68 2523.68 1399.43 2523.68 1398.68 2538.71 1379.16 2555.23 1359.63 2573.25 1342.36 2589.02 1327.34 2601.02 1308.57 2607.78 1288.28L2607.8 1288.28C2607.8 1288.28 2608.55 1287.53 2609.3 1287.53L2609.3 1290.53C2609.3 1319.08 2601.04 1346.1 2584.52 1369.39 2571.75 1387.42 2555.98 1402.45 2537.21 1414.45L2492.14 1442.23 2492.14 1440.73C2501.92 1421.94 2503.42 1400.18 2504.92 1379.15 2506.41 1361.13 2503.42 1337.84 2504.17 1319.83 2505.67 1304.82 2508.66 1290.55 2513.18 1276.28 2513.18 1275.53 2513.93 1274.78 2513.93 1274.03ZM1888.36 1273.26C1888.36 1274.01 1889.11 1274.76 1889.11 1275.51 1893.61 1289.78 1896.62 1304.8 1898.12 1319.83 1898.87 1337.84 1895.87 1360.38 1897.37 1379.15 1898.89 1400.18 1900.39 1421.21 1910.15 1440.73 1910.15 1441.48 1909.4 1442.23 1909.4 1442.23L1864.33 1414.45 1864.35 1414.43C1845.56 1402.41 1829.79 1386.64 1817.79 1369.37 1801.27 1346.09 1793.01 1318.29 1793.01 1290.51 1793.01 1289.01 1792.26 1287.52 1793.01 1287.52 1793.76 1287.52 1794.5 1288.26 1794.5 1288.26 1801.27 1308.55 1813.27 1326.57 1829.04 1341.59 1847.06 1358.86 1863.58 1377.63 1878.6 1397.91 1878.6 1398.66 1880.1 1397.91 1879.35 1397.16 1873.34 1376.13 1871.84 1354.36 1874.84 1333.33 1877.86 1315.31 1886.12 1295.79 1887.61 1274.01ZM1800.5 1174.14 1801.25 1174.89C1801.25 1225.95 1825.28 1247.73 1835.79 1282.27L1841.05 1300.29 1841.05 1301.04C1841.8 1301.04 1841.8 1300.29 1841.8 1300.29 1841.05 1294.28 1841.05 1288.28 1841.8 1282.27 1843.3 1261.24 1855.32 1243.22 1867.33 1226.7 1874.84 1215.44 1881.6 1203.43 1887.61 1190.66 1887.61 1190.16 1887.86 1189.91 1888.36 1189.91 1888.36 1191.41 1887.61 1198.17 1887.61 1201.92 1883.1 1232.71 1875.59 1261.99 1865.08 1290.53 1857.57 1307.8 1855.32 1327.34 1856.82 1346.1 1856.82 1347.1 1856.57 1347.85 1856.07 1348.35 1849.33 1338.59 1837.3 1325.82 1828.29 1315.31 1819.28 1304.8 1774.97 1253.74 1796.75 1183.15 1798.25 1180.15 1799 1177.14 1800.5 1174.14ZM2599.54 1172.64C2601.04 1175.64 2602.54 1178.65 2603.29 1181.65 2625.07 1252.23 2580.01 1303.3 2571.75 1313.81 2563.49 1324.32 2549.96 1337.84 2543.2 1347.6 2542.7 1347.1 2542.45 1346.35 2542.45 1345.35 2543.95 1326.59 2541.7 1307.8 2534.94 1289.78 2523.67 1261.24 2516.16 1231.21 2512.41 1201.17 2511.66 1197.42 2511.66 1190.66 2511.66 1189.16 2512.41 1189.16 2513.16 1189.91 2513.16 1189.91 2519.17 1202.67 2525.93 1214.69 2533.44 1225.95 2544.7 1243.97 2557.47 1261.24 2558.97 1282.27 2559.72 1288.28 2559.72 1294.28 2559.72 1300.29L2559.74 1300.29C2560.51 1295.04 2562.01 1289.03 2564.25 1280.77 2574.01 1246.23 2598.79 1224.45 2598.79 1173.39ZM2572.82 1068.04C2574.98 1070.6 2576.41 1073.36 2578.57 1075.92 2616.31 1139.43 2585.22 1199.46 2578.92 1211.79 2572.63 1224.12 2563.94 1239.36 2559.68 1250.43 2559.07 1250.06 2558.65 1249.39 2558.42 1248.42 2555.47 1229.82 2548.7 1211.36 2537.35 1196.33 2520.44 1171.05 2506.26 1144.36 2494.65 1115.48 2493.77 1111.84 2491.46 1105.44 2491.11 1103.99 2491.59 1103.87 2491.89 1104.05 2492.01 1104.54 2500.85 1115.55 2510.24 1125.63 2520.18 1134.81 2535.73 1148.05 2551.65 1162.75 2558.04 1182.84 2560.18 1188.51 2561.59 1194.34 2562.27 1200.36 2562.27 1200.36 2562.45 1201.09 2563.18 1200.91L2563 1200.18 2563.89 1181.43C2566 1145.39 2584.25 1118.58 2572.26 1068.94ZM1827.19 1068.04 1827.74 1068.94C1815.76 1118.58 1834.01 1145.39 1836.11 1181.43L1837 1200.18 1836.83 1200.91C1837.55 1201.09 1837.73 1200.36 1837.73 1200.36 1838.41 1194.34 1839.82 1188.51 1841.96 1182.84 1848.35 1162.75 1864.27 1148.05 1879.82 1134.81 1889.76 1125.63 1899.15 1115.55 1907.99 1104.54 1908.11 1104.05 1908.41 1103.87 1908.9 1103.99 1908.54 1105.44 1906.23 1111.84 1905.35 1115.48 1893.74 1144.36 1879.57 1171.05 1862.65 1196.34 1851.3 1211.36 1844.53 1229.82 1841.58 1248.42 1841.35 1249.39 1840.93 1250.06 1840.33 1250.43 1836.06 1239.36 1827.37 1224.12 1821.08 1211.79 1814.79 1199.46 1783.69 1139.43 1821.43 1075.92 1823.59 1073.36 1825.03 1070.6 1827.19 1068.04ZM2511.16 969.205C2513.97 971.039 2516.13 973.266 2518.94 975.099 2573.33 1025.1 2560.78 1091.53 2558.29 1105.15 2555.8 1118.77 2551.85 1135.86 2550.95 1147.69 2550.26 1147.51 2549.67 1146.99 2549.17 1146.12 2541 1129.16 2529.22 1113.42 2514.03 1102.28 2490.57 1082.92 2469.33 1061.42 2449.91 1037.1 2448.02 1033.86 2443.97 1028.4 2443.21 1027.1 2443.65 1026.85 2443.99 1026.94 2444.24 1027.37 2455.87 1035.38 2467.76 1042.34 2479.92 1048.28 2498.62 1056.5 2518.08 1066 2529.98 1083.42 2533.65 1088.23 2536.67 1093.41 2539.06 1098.98 2539.06 1098.98 2539.43 1099.63 2540.08 1099.25L2539.7 1098.6 2535.17 1080.39C2526.84 1045.26 2536.62 1014.33 2510.89 970.23ZM1888.84 969.205 1889.11 970.23C1863.38 1014.33 1873.16 1045.26 1864.83 1080.39L1860.3 1098.6 1859.92 1099.25C1860.57 1099.63 1860.95 1098.98 1860.95 1098.98 1863.33 1093.41 1866.35 1088.23 1870.03 1083.42 1881.92 1066 1901.39 1056.5 1920.08 1048.28 1932.24 1042.34 1944.13 1035.38 1955.76 1027.37 1956.01 1026.94 1956.36 1026.85 1956.79 1027.1 1956.03 1028.4 1951.98 1033.86 1950.09 1037.1 1930.67 1061.42 1909.43 1082.92 1885.97 1102.28 1870.78 1113.42 1859 1129.16 1850.83 1146.12 1850.33 1146.99 1849.74 1147.51 1849.05 1147.69 1848.15 1135.86 1844.2 1118.77 1841.71 1105.15 1839.22 1091.53 1826.68 1025.1 1881.06 975.1 1883.87 973.266 1886.04 971.039 1888.84 969.205ZM2420.02 888.913C2423.25 889.825 2425.98 891.304 2429.2 892.217 2496.04 923.7 2503.89 990.851 2505.59 1004.59 2507.28 1018.33 2508.61 1035.82 2511.27 1047.38 2510.57 1047.41 2509.85 1047.09 2509.11 1046.42 2496.25 1032.66 2480.31 1021.16 2462.49 1015.07 2434.31 1003.59 2407.62 989.411 2381.83 971.993 2379.06 969.468 2373.56 965.465 2372.46 964.455 2372.79 964.087 2373.15 964.07 2373.52 964.406 2387.01 968.573 2400.43 971.67 2413.81 973.707 2434.11 975.971 2455.52 979.231 2472.07 992.299 2477.02 995.798 2481.45 999.837 2485.39 1004.44 2485.39 1004.44 2485.94 1004.95 2486.44 1004.39L2485.89 1003.89 2476.13 987.857C2457.69 956.817 2457.79 924.382 2420.07 889.971ZM1979.98 888.913 1979.93 889.971C1942.21 924.382 1942.31 956.817 1923.88 987.857L1914.11 1003.89 1913.56 1004.39C1914.06 1004.95 1914.62 1004.44 1914.62 1004.44 1918.55 999.837 1922.98 995.798 1927.93 992.299 1944.48 979.231 1965.89 975.971 1986.19 973.707 1999.57 971.67 2013 968.574 2026.49 964.406 2026.85 964.07 2027.21 964.087 2027.54 964.455 2026.44 965.465 2020.94 969.468 2018.17 971.993 1992.38 989.411 1965.69 1003.59 1937.52 1015.07 1919.7 1021.16 1903.75 1032.66 1890.89 1046.42 1890.15 1047.09 1889.43 1047.41 1888.73 1047.38 1891.39 1035.82 1892.72 1018.33 1894.42 1004.59 1896.11 990.852 1903.96 923.7 1970.8 892.217 1974.02 891.304 1976.76 889.826 1979.98 888.913Z" fill="#404040" fill-rule="evenodd"/><path d="M2160 1235.5C2160 1213.68 2177.91 1196 2200 1196 2222.09 1196 2240 1213.68 2240 1235.5 2240 1257.32 2222.09 1275 2200 1275 2177.91 1275 2160 1257.32 2160 1235.5ZM2167.13 1235.5C2167.13 1253.38 2181.85 1267.87 2200 1267.87 2218.16 1267.87 2232.87 1253.38 2232.87 1235.5 2232.87 1217.62 2218.16 1203.13 2200 1203.13 2181.85 1203.13 2167.13 1217.62 2167.13 1235.5Z" fill="#FFFFFF" fill-rule="evenodd"/><path d="M2296.52 1354.02 2302.17 1360.93 2289.51 1369.8 2302.77 1389.62 2298.87 1392.39C2281.68 1403.26 2262.76 1411.25 2242.88 1415.99L2245.18 1425.61C2259.14 1422.29 2272.65 1417.44 2285.47 1411.18L2297.32 1404.57 2299.5 1408.34C2249.66 1437.11 2190.75 1442.47 2137.74 1425.02L2124.07 1419.42 2128.65 1408.37C2122.3 1405.74 2116.11 1402.76 2110.1 1399.46L2094.36 1389.63 2104.12 1375.44C2131 1393.92 2162 1403.86 2193.34 1405.09L2215.03 1404.44 2214.34 1396.66 2192.17 1397.2C2168.71 1396.07 2145.33 1389.8 2123.76 1378.25L2130.87 1364.98C2143.91 1371.96 2157.68 1376.82 2171.71 1379.58L2180.07 1380.6 2179.15 1387.3C2217.45 1392.58 2255.81 1383.1 2286.87 1361.62ZM2006.69 1243.18C2009.37 1315.1 2051.74 1379.59 2116.7 1410.58L2114.3 1415.6C2047.48 1383.72 2003.89 1317.38 2001.14 1243.39ZM2398.39 1220.41C2404.19 1294.22 2368.53 1365.15 2305.83 1404.53L2302.87 1399.82C2363.82 1361.54 2398.48 1292.6 2392.84 1220.85ZM2200 1114.32C2132.8 1114.32 2078.32 1168.8 2078.32 1236 2078.32 1303.2 2132.8 1357.68 2200 1357.68 2267.2 1357.68 2321.68 1303.2 2321.68 1236 2321.68 1168.8 2267.2 1114.32 2200 1114.32ZM2200 1107.61C2270.9 1107.61 2328.38 1165.1 2328.38 1236 2328.38 1306.91 2270.9 1364.39 2200 1364.39 2129.09 1364.39 2071.61 1306.91 2071.61 1236 2071.61 1165.1 2129.09 1107.61 2200 1107.61ZM2119.77 1067.7 2127.18 1083.25C2097.73 1097.29 2073.63 1119.16 2056.89 1145.69L2046.61 1164.8 2053.69 1168.09 2064.31 1148.62C2077.02 1128.87 2094.14 1111.75 2114.93 1098.85L2122.86 1111.65C2110.3 1119.44 2099.21 1128.94 2089.8 1139.71L2084.74 1146.44 2079.4 1142.29C2055.68 1172.83 2044.71 1210.79 2047.78 1248.43L2049.53 1260.58 2040.72 1262.02 2039.38 1246.62 2015.58 1248.19 2015.12 1243.43C2014.31 1223.1 2016.85 1202.73 2022.68 1183.15L2013.2 1180.32C2009.1 1194.08 2006.55 1208.2 2005.55 1222.43L2005.35 1236 2001 1236C2001 1178.46 2025.81 1124.76 2067.44 1087.57L2079.12 1078.54 2086.4 1088.03C2091.85 1083.84 2097.52 1079.97 2103.39 1076.42ZM2299.5 1063.66C2349.33 1092.43 2383.43 1140.77 2394.82 1195.41L2396.81 1210.04 2384.95 1211.61C2385.84 1218.42 2386.36 1225.27 2386.51 1232.12L2385.87 1250.67 2368.7 1249.31C2371.26 1216.79 2364.37 1184.98 2349.77 1157.22L2338.35 1138.76 2331.97 1143.25 2343.52 1162.18C2354.27 1183.07 2360.53 1206.45 2361.31 1230.9L2346.26 1231.38C2345.79 1216.59 2343.11 1202.25 2338.49 1188.71L2335.19 1180.96 2341.45 1178.41C2326.87 1142.6 2299.48 1114.12 2265.35 1097.96L2253.94 1093.4 2257.1 1085.05 2271.12 1091.59 2281.65 1070.19 2286 1072.18C2304.01 1081.63 2320.39 1094.02 2334.43 1108.87L2341.62 1102.07C2331.76 1091.64 2320.8 1082.37 2308.97 1074.39L2297.32 1067.43ZM2188.51 1037.33C2224.13 1035.27 2260.31 1042.78 2293.03 1060.09L2290.43 1065C2226.81 1031.36 2149.77 1035.81 2090.46 1076.57L2087.31 1071.98C2117.82 1051.02 2152.89 1039.39 2188.51 1037.33Z" fill="#FFFFFF" fill-rule="evenodd"/><path d="M2244.4 1575.93C2242.68 1575.75 2240.7 1575.79 2238.44 1576.06L2233.53 1576.65 2236.08 1598.07 2241.86 1597.38C2246 1596.89 2249 1595.75 2250.86 1593.98 2253.23 1591.63 2254.2 1588.63 2253.77 1584.98 2253.35 1581.41 2251.67 1578.81 2248.75 1577.16 2247.57 1576.52 2246.12 1576.11 2244.4 1575.93ZM2250.27 1563.4C2253.23 1563.82 2256.11 1564.97 2258.92 1566.86 2264.38 1570.64 2267.55 1576.21 2268.42 1583.57 2269.24 1590.42 2267.88 1596.09 2264.36 1600.57 2260.58 1605.38 2254.69 1608.26 2246.69 1609.22L2237.53 1610.31 2240.74 1637.31 2226.56 1639 2217.9 1566.09 2239.06 1563.57C2243.57 1563.03 2247.3 1562.98 2250.27 1563.4ZM2151.39 1561.47C2154.12 1561.35 2156.97 1561.49 2159.93 1561.88 2166.31 1562.73 2171.74 1564.74 2176.19 1567.92 2181.41 1571.49 2185.37 1576.53 2188.06 1583.03L2174.88 1588.06C2173.41 1584.02 2170.96 1580.77 2167.52 1578.32 2164.67 1576.39 2161.36 1575.17 2157.58 1574.68 2150.76 1573.78 2144.88 1575.18 2139.97 1578.9 2134.48 1582.99 2131.21 1589.07 2130.15 1597.15 2129.14 1604.79 2130.73 1611.25 2134.91 1616.54 2138.65 1621.25 2143.75 1624.03 2150.21 1624.89 2155.87 1625.63 2160.82 1624.8 2165.05 1622.4 2168.89 1620.17 2171.66 1616.76 2173.37 1612.18L2154.64 1609.7 2156.25 1597.48 2189.57 1601.88 2189.45 1602.75C2187.74 1615.77 2182.87 1625.34 2174.83 1631.46 2167.6 1637.02 2158.57 1639.09 2147.76 1637.66 2136.72 1636.21 2128.37 1631.77 2122.69 1624.36 2116.45 1616.21 2114.09 1606.39 2115.6 1594.9 2117.03 1583.98 2121.77 1575.43 2129.82 1569.24 2136 1564.39 2143.19 1561.8 2151.39 1561.47ZM2339.76 1556.69 2340.72 1585.08 2359.85 1576.73ZM2282.53 1555.43 2297.84 1614.56 2319.74 1608.86 2322.83 1620.8 2287.11 1630.09 2268.71 1559.03ZM2337.16 1536.09 2394.51 1591.13 2380.41 1597.29 2368.33 1585.76 2341.25 1597.58 2341.45 1614.31 2327.25 1620.51 2326.89 1540.58ZM2055.38 1534.38 2064.66 1537.79 2089.72 1599.16 2106.53 1553.17 2119.94 1558.09 2094.73 1627.03 2085.45 1623.62 2060.44 1562.15 2043.58 1608.24 2030.18 1603.32ZM2035.72 1522.09 2048.24 1528.97 2013 1593.34 2000.48 1586.46ZM1993.98 1508.37 1981.1 1526.34 1984.4 1528.72C1985.35 1529.41 1986.34 1530.01 1987.37 1530.52 1988.4 1531.03 1989.84 1531.57 1991.69 1532.14 1993.54 1532.7 1995.41 1532.64 1997.29 1531.97 1999.17 1531.29 2000.84 1529.94 2002.29 1527.91 2003.74 1525.88 2004.5 1523.88 2004.57 1521.89 2004.64 1519.91 2004.11 1518.13 2002.99 1516.55 2001.87 1514.98 2000.9 1513.81 2000.09 1513.05 1999.29 1512.29 1998.41 1511.56 1997.46 1510.88ZM2397.64 1501.03 2404.28 1511.41 2390.41 1520.32 2423.3 1571.75 2411.28 1579.47 2378.39 1528.04 2364.52 1536.95 2357.88 1526.57ZM1989.17 1490.55 2006.39 1502.94C2012.93 1507.65 2016.92 1512.78 2018.35 1518.33 2019.89 1524.49 2018.64 1530.37 2014.63 1535.98 2010.15 1542.24 2004.47 1545.25 1997.61 1545.01 1994.93 1544.97 1992.14 1544.28 1989.24 1542.91L1989.79 1581.39 1975.34 1570.99 1976.63 1535.6 1975.21 1534.57 1958.04 1558.53 1946.44 1550.18ZM2428.11 1474.93 2436.02 1484.36 2417.19 1500.23 2427.72 1512.78 2445.38 1497.91 2453.29 1507.35 2435.63 1522.22 2456.41 1547 2445.48 1556.2 2398.34 1500ZM1946.24 1448.13 1956.25 1458.33 1934.17 1480.09 1975.13 1477.55 1987.76 1490.42 1941.92 1492.07 1936.69 1543.09 1923.44 1529.59 1928.6 1487.91 1926.27 1487.89 1904.03 1509.81 1894.02 1499.61ZM2478.45 1445.45C2471.87 1445.93 2466.31 1448.91 2461.77 1454.38 2457.23 1459.86 2455.33 1465.88 2456.07 1472.46 2456.81 1479.04 2460.02 1484.69 2465.71 1489.43 2471.4 1494.16 2477.51 1496.29 2484.04 1495.81 2490.58 1495.34 2496.14 1492.33 2500.72 1486.8 2505.31 1481.27 2507.23 1475.24 2506.5 1468.72 2505.77 1462.19 2502.55 1456.56 2496.86 1451.83 2491.17 1447.09 2485.04 1444.97 2478.45 1445.45ZM2478.08 1431.25C2488.25 1430.23 2497.65 1433.31 2506.27 1440.48 2514.89 1447.65 2519.61 1456.33 2520.45 1466.52 2521.29 1476.71 2518.04 1486.24 2510.69 1495.1 2503.35 1503.96 2494.6 1508.92 2484.45 1509.96 2474.31 1511.01 2464.92 1507.95 2456.31 1500.77 2447.69 1493.6 2442.95 1484.91 2442.08 1474.7 2441.21 1464.48 2444.45 1454.95 2451.8 1446.08 2459.14 1437.22 2467.9 1432.28 2478.08 1431.25ZM1914.11 1422.69 1895.96 1435.29 1898.28 1438.64C1898.94 1439.6 1899.67 1440.5 1900.47 1441.33 1901.27 1442.16 1902.44 1443.15 1904 1444.31 1905.55 1445.46 1907.33 1446.03 1909.33 1446.03 1911.33 1446.02 1913.35 1445.31 1915.4 1443.89 1917.45 1442.47 1918.83 1440.83 1919.56 1438.99 1920.29 1437.14 1920.39 1435.29 1919.86 1433.43 1919.33 1431.56 1918.81 1430.14 1918.31 1429.15 1917.8 1428.16 1917.22 1427.18 1916.55 1426.22ZM1915.55 1404.28 1927.62 1421.75C1932.21 1428.38 1934.25 1434.55 1933.74 1440.26 1933.12 1446.58 1929.98 1451.71 1924.32 1455.64 1918 1460.02 1911.65 1460.95 1905.27 1458.42 1902.75 1457.49 1900.36 1455.89 1898.08 1453.63L1885.72 1490.07 1875.59 1475.41 1888.66 1442.5 1887.65 1441.06 1863.46 1457.85 1855.33 1446.09ZM2507.27 1395.16C2505.3 1395.33 2503.6 1396.08 2502.18 1397.39 2500.76 1398.7 2499.72 1399.81 2499.07 1400.7 2498.41 1401.6 2497.8 1402.56 2497.24 1403.59L2495.2 1407.37 2514.58 1417.95 2516.53 1414.37C2517.09 1413.34 2517.56 1412.28 2517.94 1411.19 2518.32 1410.11 2518.68 1408.61 2519.01 1406.7 2519.34 1404.79 2519.05 1402.94 2518.15 1401.15 2517.24 1399.36 2515.7 1397.87 2513.51 1396.68 2511.32 1395.49 2509.24 1394.98 2507.27 1395.16ZM1881.88 1380.89 1853.57 1382.34 1862.23 1401.37ZM2510.95 1380.56C2513.94 1380.81 2516.95 1381.76 2519.97 1383.41 2526.72 1387.1 2530.4 1392.37 2531.02 1399.22 2531.32 1401.89 2530.97 1404.75 2529.98 1407.8L2568.01 1402.49 2559.5 1418.15 2524.3 1421.24 2523.46 1422.79 2549.31 1436.9 2542.48 1449.47 2478.14 1414.35 2488.28 1395.69C2492.13 1388.61 2496.72 1384.01 2502.03 1381.89 2504.99 1380.75 2507.96 1380.3 2510.95 1380.56ZM1897.74 1367.72 1902.38 1377.93 1848.44 1436.34 1842.06 1422.32 1853.36 1410.01 1841.11 1383.07 1824.43 1383.56 1818 1369.44ZM2524.31 1302 2598 1311.4 2593.81 1325.31 2548.69 1318.57 2586.23 1350.49 2584.84 1355.13 2536.2 1360.09 2577.26 1380.32 2573.07 1394.23 2506.87 1359.96 2509.85 1350.06 2560.05 1344.88 2521.33 1311.91Z" fill="#FFFFFF" fill-rule="evenodd"/><path d="M2567.57 1197.72 2541.37 1173.86C2540.9 1173.43 2540.29 1173.2 2539.65 1173.2L2452 1173.2C2451.43 1173.2 2450.95 1172.82 2450.78 1172.29 2449.81 1168.87 2448.76 1165.5 2447.66 1162.14 2447.4 1161.31 2448 1160.47 2448.86 1160.47L2527.13 1160.47C2528.29 1160.47 2528.85 1159.05 2527.98 1158.26L2501.79 1134.4C2501.32 1133.97 2500.7 1133.74 2500.06 1133.74L2437.21 1133.74C2436.71 1133.74 2436.28 1133.46 2436.06 1133.01 2434.45 1129.59 2432.77 1126.21 2431.02 1122.86 2430.57 1122.01 2431.19 1121.01 2432.14 1121.01L2490.11 1121.01C2491.27 1121.01 2491.83 1119.58 2490.96 1118.79L2464.77 1094.93C2464.3 1094.5 2463.68 1094.27 2463.05 1094.27L2447.82 1094.27C2446.94 1094.27 2446.12 1093.81 2445.66 1093.06 2423.04 1056.42 2392.41 1025.28 2356 1002.02 2317.45 977.374 2273.53 962.288 2227.94 958.011 2226.53 957.883 2225.27 958.927 2225.16 960.34L2224.51 967.966C2224.39 969.354 2225.42 970.576 2226.82 970.703 2272.68 975.006 2316.81 990.768 2355.07 1016.62 2384.57 1036.56 2409.75 1061.96 2429.37 1091.29 2430.22 1092.55 2429.3 1094.26 2427.76 1094.26L2414.91 1094.26C2414.08 1094.26 2413.31 1093.86 2412.84 1093.19 2402.2 1078.19 2389.94 1064.28 2376.21 1051.72 2334.4 1013.53 2281.22 989.991 2224.83 984.657 2223.78 984.555 2222.84 985.344 2222.75 986.388L2222.01 994.892C2221.92 995.924 2222.68 996.84 2223.72 996.942 2275.86 1001.88 2325.35 1023.18 2364.83 1058.08 2406.33 1094.75 2434.21 1144.18 2444.24 1198.28 2444.44 1199.3 2445.43 1200.15 2446.45 1199.98 2446.57 1199.95 2446.68 1199.95 2446.78 1199.95L2566.72 1199.95C2567.88 1199.95 2568.45 1198.53 2567.58 1197.74Z" fill="#FFFFFF" fill-rule="evenodd"/><path d="M2175.18 984.658C2118.93 989.979 2065.92 1013.53 2024.24 1051.73 2010.54 1064.28 1998.31 1078.21 1987.71 1093.19 1987.24 1093.87 1986.46 1094.26 1985.64 1094.26L1972.83 1094.26C1971.3 1094.26 1970.38 1092.56 1971.22 1091.3 1990.79 1061.96 2015.9 1036.56 2045.31 1016.63 2083.46 990.769 2127.46 975.02 2173.19 970.704 2174.58 970.577 2175.61 969.354 2175.5 967.967L2174.85 960.34C2174.73 958.927 2173.49 957.883 2172.07 958.011 2126.62 962.276 2082.82 977.363 2044.36 1002.01 2008.06 1025.27 1977.51 1056.41 1954.96 1093.05 1954.5 1093.81 1953.68 1094.26 1952.81 1094.26L1937.62 1094.26C1936.98 1094.26 1936.37 1094.51 1935.9 1094.93L1909.78 1118.78C1908.93 1119.57 1909.48 1121 1910.64 1121L1968.44 1121C1969.39 1121 1970 1122.01 1969.56 1122.86 1967.81 1126.21 1966.13 1129.58 1964.53 1133.01 1964.32 1133.45 1963.88 1133.73 1963.38 1133.73L1900.71 1133.73C1900.07 1133.73 1899.46 1133.97 1898.99 1134.39L1872.87 1158.25C1872.02 1159.04 1872.57 1160.47 1873.73 1160.47L1951.76 1160.47C1952.63 1160.47 1953.24 1161.31 1952.96 1162.14 1951.85 1165.5 1950.82 1168.87 1949.85 1172.28 1949.7 1172.83 1949.2 1173.2 1948.63 1173.2L1861.25 1173.2C1860.62 1173.2 1860 1173.44 1859.53 1173.86L1833.42 1197.73C1832.56 1198.52 1833.11 1199.95 1834.27 1199.95L1953.86 1199.95C1953.98 1199.95 1954.09 1199.95 1954.19 1199.97 1955.21 1200.16 1956.22 1199.3 1956.4 1198.28 1966.4 1144.17 1994.2 1094.75 2035.58 1058.07 2074.95 1023.17 2124.29 1001.87 2176.29 996.931 2177.32 996.829 2178.08 995.925 2177.99 994.881L2177.25 986.377C2177.17 985.32 2176.24 984.543 2175.18 984.645Z" fill="#FFFFFF" fill-rule="evenodd"/><path d="M2400 1412C2404.42 1412 2408 1408.42 2408 1404L2408 1404C2408 1408.42 2411.58 1412 2416 1412L2416 1413C2411.58 1413 2408 1416.58 2408 1421L2408 1421C2408 1416.58 2404.42 1413 2400 1413Z" fill="#FFFFFF" fill-rule="evenodd"/><path d="M2397 1367C2402.52 1367 2407 1362.52 2407 1357L2407 1357C2407 1362.52 2411.48 1367 2417 1367L2417 1368C2411.48 1368 2407 1372.48 2407 1378L2407 1378C2407 1372.48 2402.52 1368 2397 1368Z" fill="#FFFFFF" fill-rule="evenodd"/><path d="M2306 1461C2311.52 1461 2316 1456.52 2316 1451L2316 1451C2316 1456.52 2320.48 1461 2326 1461L2326 1461C2320.48 1461 2316 1465.48 2316 1471L2316 1471C2316 1465.48 2311.52 1461 2306 1461Z" fill="#FFFFFF" fill-rule="evenodd"/><path d="M2421 1352C2426.52 1352 2431 1347.52 2431 1342L2432 1342C2432 1347.52 2436.48 1352 2442 1352L2442 1352C2436.48 1352 2432 1356.48 2432 1362L2431 1362C2431 1356.48 2426.52 1352 2421 1352Z" fill="#FFFFFF" fill-rule="evenodd"/><path d="M2439 1262C2444.52 1262 2449 1257.52 2449 1252L2449 1252C2449 1257.52 2453.48 1262 2459 1262L2459 1262C2453.48 1262 2449 1266.48 2449 1272L2449 1272C2449 1266.48 2444.52 1262 2439 1262Z" fill="#FFFFFF" fill-rule="evenodd"/><path d="M2443 1298.5C2446.59 1298.5 2449.5 1295.59 2449.5 1292L2449.5 1292C2449.5 1295.59 2452.41 1298.5 2456 1298.5L2456 1298.5C2452.41 1298.5 2449.5 1301.41 2449.5 1305L2449.5 1305C2449.5 1301.41 2446.59 1298.5 2443 1298.5Z" fill="#FFFFFF" fill-rule="evenodd"/><path d="M2379 1399C2386.18 1399 2392 1393.18 2392 1386L2392 1386C2392 1393.18 2397.82 1399 2405 1399L2405 1399C2397.82 1399 2392 1404.82 2392 1412L2392 1412C2392 1404.82 2386.18 1399 2379 1399Z" fill="#FFFFFF" fill-rule="evenodd"/><path d="M2364 1397.5C2367.59 1397.5 2370.5 1394.59 2370.5 1391L2370.5 1391C2370.5 1394.59 2373.41 1397.5 2377 1397.5L2377 1397.5C2373.41 1397.5 2370.5 1400.41 2370.5 1404L2370.5 1404C2370.5 1400.41 2367.59 1397.5 2364 1397.5Z" fill="#FFFFFF" fill-rule="evenodd"/><path d="M2344 1422C2349.52 1422 2354 1417.52 2354 1412L2354 1412C2354 1417.52 2358.48 1422 2364 1422L2364 1422C2358.48 1422 2354 1426.48 2354 1432L2354 1432C2354 1426.48 2349.52 1422 2344 1422Z" fill="#FFFFFF" fill-rule="evenodd"/><path d="M2340 1472C2345.52 1472 2350 1467.52 2350 1462L2350 1462C2350 1467.52 2354.48 1472 2360 1472L2360 1472C2354.48 1472 2350 1476.48 2350 1482L2350 1482C2350 1476.48 2345.52 1472 2340 1472Z" fill="#FFFFFF" fill-rule="evenodd"/><path d="M1936 1322.5C1945.66 1322.5 1953.5 1314.66 1953.5 1305L1953.5 1305C1953.5 1314.66 1961.34 1322.5 1971 1322.5L1971 1322.5C1961.34 1322.5 1953.5 1330.33 1953.5 1340L1953.5 1340C1953.5 1330.33 1945.66 1322.5 1936 1322.5Z" fill="#FFFFFF" fill-rule="evenodd"/><path d="M1969 1338.5C1972.59 1338.5 1975.5 1335.59 1975.5 1332L1975.5 1332C1975.5 1335.59 1978.41 1338.5 1982 1338.5L1982 1338.5C1978.41 1338.5 1975.5 1341.41 1975.5 1345L1975.5 1345C1975.5 1341.41 1972.59 1338.5 1969 1338.5Z" fill="#FFFFFF" fill-rule="evenodd"/><path d="M1986 1365C1989.31 1365 1992 1362.31 1992 1359L1992 1359C1992 1362.31 1994.69 1365 1998 1365L1998 1366C1994.69 1366 1992 1368.69 1992 1372L1992 1372C1992 1368.69 1989.31 1366 1986 1366Z" fill="#FFFFFF" fill-rule="evenodd"/><path d="M2019 1391.5C2023.69 1391.5 2027.5 1387.69 2027.5 1383L2027.5 1383C2027.5 1387.69 2031.31 1391.5 2036 1391.5L2036 1392.5C2031.31 1392.5 2027.5 1396.31 2027.5 1401L2027.5 1401C2027.5 1396.31 2023.69 1392.5 2019 1392.5Z" fill="#FFFFFF" fill-rule="evenodd"/><path d="M2020 1426C2027.18 1426 2033 1420.18 2033 1413L2034 1413C2034 1420.18 2039.82 1426 2047 1426L2047 1426C2039.82 1426 2034 1431.82 2034 1439L2033 1439C2033 1431.82 2027.18 1426 2020 1426Z" fill="#FFFFFF" fill-rule="evenodd"/><path d="M2037 1452C2046.39 1452 2054 1444.39 2054 1435L2055 1435C2055 1444.39 2062.61 1452 2072 1452L2072 1452C2062.61 1452 2055 1459.61 2055 1469L2054 1469C2054 1459.61 2046.39 1452 2037 1452Z" fill="#FFFFFF" fill-rule="evenodd"/><path d="M2073 1439C2078.52 1439 2083 1434.52 2083 1429L2083 1429C2083 1434.52 2087.48 1439 2093 1439L2093 1439C2087.48 1439 2083 1443.48 2083 1449L2083 1449C2083 1443.48 2078.52 1439 2073 1439Z" fill="#FFFFFF" fill-rule="evenodd"/><path d="M2200.5 1366.5 2220.5 1444.38 2200.5 1464.5 2200.5 1366.5 2200.5 1366.5Z" stroke="#FFFFFF" stroke-width="4.58333" stroke-miterlimit="8" fill-rule="evenodd"/><path d="M2200.5 1366.5 2200.5 1464.5 2180.5 1444.38 2180.5 1444.38 2200.5 1366.5Z" stroke="#FFFFFF" stroke-width="4.58333" stroke-miterlimit="8" fill-rule="evenodd"/><path d="M2220.41 1444.5 2220.41 1444.51 2297.5 1464.5 2200.5 1464.5 2200.5 1464.49 2220.41 1444.5Z" stroke="#FFFFFF" stroke-width="4.58333" stroke-miterlimit="8" fill-rule="evenodd"/><path d="M2180.59 1444.5 2200.5 1464.5 2103.5 1464.5 2180.59 1444.5Z" stroke="#FFFFFF" stroke-width="4.58333" stroke-miterlimit="8" fill-rule="evenodd"/><path d="M2200.5 1464.5 2180.59 1483.5 2103.5 1464.5 2200.5 1464.5Z" stroke="#FFFFFF" stroke-width="4.58333" stroke-miterlimit="8" fill-rule="evenodd"/><path d="M2200.49 1464.5 2200.5 1464.5 2200.5 1561.5 2180.51 1484.41 2180.5 1484.41 2200.49 1464.5Z" stroke="#FFFFFF" stroke-width="4.58333" stroke-miterlimit="8" fill-rule="evenodd"/><path d="M2200.5 1464.5 2200.51 1464.5 2220.5 1484.41 2220.49 1484.41 2200.5 1561.5 2200.5 1561.5 2200.5 1464.5Z" stroke="#FFFFFF" stroke-width="4.58333" stroke-miterlimit="8" fill-rule="evenodd"/><path d="M2200.5 1464.5 2297.5 1464.5 2297.5 1464.5 2220.41 1483.5 2200.5 1464.5Z" stroke="#FFFFFF" stroke-width="4.58333" stroke-miterlimit="8" fill-rule="evenodd"/><path d="M2268.66 1394.88 2228.2 1463.52 2200.01 1463.52 2268.66 1394.88 2268.66 1394.88Z" stroke="#FFFFFF" stroke-width="4.58333" stroke-miterlimit="8" fill-rule="evenodd"/><path d="M2268.65 1394.87 2200 1463.52 2200 1435.33 2200 1435.33 2268.65 1394.87Z" stroke="#FFFFFF" stroke-width="4.58333" stroke-miterlimit="8" fill-rule="evenodd"/><path d="M2228.19 1463.51 2228.19 1463.52 2268.65 1532.18 2200 1463.52 2200.01 1463.51 2228.19 1463.51Z" stroke="#FFFFFF" stroke-width="4.58333" stroke-miterlimit="8" fill-rule="evenodd"/><path d="M2200.01 1435.34 2200.01 1463.53 2131.35 1394.88 2200.01 1435.34Z" stroke="#FFFFFF" stroke-width="4.58333" stroke-miterlimit="8" fill-rule="evenodd"/><path d="M2200 1463.52 2171.81 1463.52 2131.35 1394.88 2200 1463.52Z" stroke="#FFFFFF" stroke-width="4.58333" stroke-miterlimit="8" fill-rule="evenodd"/><path d="M2199.99 1463.51 2200 1463.52 2131.34 1532.18 2171.81 1463.52 2171.8 1463.51 2199.99 1463.51Z" stroke="#FFFFFF" stroke-width="4.58333" stroke-miterlimit="8" fill-rule="evenodd"/><path d="M2200.01 1463.53 2200.01 1463.54 2200.01 1491.73 2200.01 1491.72 2131.35 1532.19 2131.35 1532.19 2200.01 1463.53Z" stroke="#FFFFFF" stroke-width="4.58333" stroke-miterlimit="8" fill-rule="evenodd"/><path d="M2200 1463.53 2268.65 1532.18 2268.65 1532.18 2200 1491.72 2200 1463.53Z" stroke="#FFFFFF" stroke-width="4.58333" stroke-miterlimit="8" fill-rule="evenodd"/><path d="M243.95 27.6378 238.303 28.0818 244.88 41.7351 248.762 41.4267ZM109.961 27.546C70.4318 40.5315 33.2851 59.9517 0 85.034L6.67128 93.9998C38.9826 69.6514 75.0423 50.7995 113.415 38.1939ZM346.038 27.546 342.584 38.1939C380.958 50.7995 417.017 69.6514 449.329 93.9998L456 85.034C422.715 59.9517 385.568 40.5315 346.038 27.546ZM147.958 8.54015 123.084 15.4961 151.729 43.5272 156.393 39.6523 134.462 18.19 149.465 13.9947ZM268.609 7.75809C271.841 8.08927 274.387 9.45115 276.248 11.8437 278.11 14.2361 278.869 17.1253 278.527 20.5114 278.184 23.8973 276.871 26.5656 274.586 28.5162 272.302 30.4669 269.528 31.2749 266.263 30.9404 262.998 30.6057 260.443 29.2515 258.596 26.8774 256.75 24.5033 255.998 21.6233 256.34 18.2374 256.683 14.8515 258.006 12.1755 260.308 10.2098 262.611 8.24415 265.378 7.42691 268.609 7.75809ZM289.534 4.98895 288.439 10.542 300.264 12.9019 298.808 20.2895 287.476 18.028 286.382 23.5811 297.714 25.8427 295.935 34.8664 284.111 32.5067 283.017 38.0597 301.246 41.6978 301.291 41.4688 316.674 46.0643 326.208 13.7435 319.948 11.8736 312.016 38.7671 302.39 35.8918 307.763 8.62702ZM168.672 4.8376 153.41 7.38092 154.329 12.966 165.329 11.133 167.38 16.1709C166.499 16.1811 165.745 16.2385 165.117 16.3431 161.583 16.9321 158.925 18.5192 157.144 21.1044 155.523 23.4238 154.986 26.2459 155.533 29.5705 156.113 33.0945 157.712 35.7996 160.33 37.6861 162.949 39.5723 166.157 40.1991 169.957 39.566 172.831 39.087 175.133 38.2254 176.863 36.9807 178.168 36.0459 179.35 34.8754 180.409 33.4693L177.359 28.2392C176.614 29.6955 175.639 30.8826 174.432 31.8011 173.049 32.8854 171.515 33.568 169.83 33.8487 167.716 34.2009 165.922 33.8168 164.448 32.6961 163.089 31.6588 162.246 30.1426 161.918 28.148 161.606 26.2529 161.998 24.6163 163.095 23.2381 164.198 21.8931 165.822 21.0417 167.97 20.6838 170.349 20.2875 172.845 20.606 175.458 21.6392ZM269.21 1.82435C263.979 1.28817 259.541 2.493 255.894 5.43864 252.247 8.38429 250.163 12.4218 249.644 17.551 249.125 22.6803 250.358 27.0491 253.342 30.6576 256.325 34.266 260.432 36.3381 265.662 36.8741 270.893 37.4101 275.33 36.2137 278.976 33.2848 282.621 30.356 284.703 26.3268 285.223 21.1976 285.742 16.0685 284.51 11.6912 281.528 8.06608 278.546 4.44097 274.44 2.36033 269.21 1.82435ZM196.283 1.71959 184.976 2.72767 187.932 36.3108 194.436 35.731 191.976 7.78698 196.779 7.35871ZM215.546 0.00511021C211.864 0.0982734 209.003 1.23235 206.964 3.40773 204.925 5.58291 203.942 8.11895 204.014 11.016 204.054 12.633 204.463 14.2408 205.24 15.8391 206.017 17.4376 206.75 18.6409 207.44 19.4493 208.13 20.2577 209.111 21.32 210.384 22.6363L216.316 28.8065 204.214 29.1125 204.356 34.7721 228.658 34.1575 218.536 23.1379C215.228 19.4463 213.261 17.1532 212.636 16.2589 211.282 14.3381 210.584 12.5523 210.543 10.9017 210.505 9.38569 210.951 8.14391 211.882 7.17671 212.812 6.2093 213.98 5.70772 215.386 5.67234 216.993 5.63165 218.279 6.1468 219.244 7.21798 220.208 8.28916 220.743 9.59875 220.849 11.1466L227.577 10.9765C227.359 7.57747 226.136 4.8779 223.908 2.87803 221.681 0.878171 218.894-0.0794049 215.546 0.00511021Z" fill="#FFFFFF" fill-rule="evenodd" transform="matrix(-1 0 0 1 2428 847)"/></g></svg>